<svg width="100%" height="100%" viewBox="0 0 104 65">
    <defs>
        <filter x="-6.4%" y="-10.5%" width="112.9%" height="121.0%" filterUnits="objectBoundingBox" id="filter-1">
            <feOffset dx="0" dy="1" in="SourceAlpha" result="shadowOffsetOuter1"></feOffset>
            <feGaussianBlur stdDeviation="1" in="shadowOffsetOuter1" result="shadowBlurOuter1"></feGaussianBlur>
            <feColorMatrix values="0 0 0 0 0.392694446   0 0 0 0 0.388840131   0 0 0 0 0.388840131  0 0 0 0.5 0" type="matrix" in="shadowBlurOuter1" result="shadowMatrixOuter1"></feColorMatrix>
            <feMerge>
                <feMergeNode in="shadowMatrixOuter1"></feMergeNode>
                <feMergeNode in="SourceGraphic"></feMergeNode>
            </feMerge>
        </filter>
    </defs>
    <g id="Page-1" stroke="none" stroke-width="1" fill="none" fill-rule="evenodd">
        <g id="analyze" filter="url(#filter-1)" transform="translate(2.000000, 1.000000)">
            <polygon id="Fill-3" fill="#0498B4" fill-rule="nonzero" points="37.1879106 32.2273364 18.5939553 42.9697806 0 32.2273364 0 10.7424442 18.5939553 0 37.1879106 10.7424482"></polygon>
            <g id="Group" transform="translate(18.528252, 9.461235)">
                <g id="Rectangle" fill="#FFFFFF" fill-rule="nonzero">
                    <rect x="0" y="0" width="81.4717477" height="50.9855453"></rect>
                </g>
                <rect id="Rectangle" fill="#E9EBE9" fill-rule="nonzero" x="16.6885677" y="29.9605782" width="18.3968463" height="2.62812089"></rect>
                <rect id="Rectangle" fill="#E9EBE9" fill-rule="nonzero" x="16.6885677" y="35.4796321" width="18.3968463" height="2.62812089"></rect>
                <g id="Rectangle" transform="translate(36.793693, 29.960578)" fill="#E9EBE9" fill-rule="nonzero">
                    <g id="Group">
                        <rect id="Rectangle" x="0" y="0" width="22.9960578" height="2.62812089"></rect>
                    </g>
                </g>
                <g id="Rectangle" transform="translate(36.793693, 35.479632)" fill="#E9EBE9" fill-rule="nonzero">
                    <g id="Group">
                        <rect id="Rectangle" x="0" y="0" width="22.9960578" height="2.62812089"></rect>
                    </g>
                    <g id="Group" transform="translate(0.000000, 3.942181)">
                        <rect id="Rectangle" x="0" y="0" width="22.9960578" height="2.62812089"></rect>
                    </g>
                    <g id="Group" transform="translate(0.000000, 7.884363)">
                        <rect id="Rectangle" x="0" y="0" width="22.9960578" height="2.62812089"></rect>
                    </g>
                </g>
                <rect id="Rectangle" fill="#E9EBE9" fill-rule="nonzero" x="63.0749014" y="29.9605782" width="7.22733246" height="2.62812089"></rect>
                <rect id="Rectangle" fill="#E9EBE9" fill-rule="nonzero" x="63.0749014" y="35.4796321" width="7.22733246" height="2.62812089"></rect>
                <rect id="Rectangle" fill="#F6F6F6" fill-rule="nonzero" x="0" y="0" width="81.4717477" height="1.70827858"></rect>
                <g id="Oval" transform="translate(1.314060, 0.394218)" fill="#6D7275" fill-rule="nonzero">
                    <g id="Group">
                        <circle id="Oval" cx="0.328515112" cy="0.328515112" r="0.3"></circle>
                    </g>
                    <g id="Group" transform="translate(1.314060, 0.000000)">
                        <circle id="Oval" cx="0.328515112" cy="0.328515112" r="0.3"></circle>
                    </g>
                    <g id="Group" transform="translate(2.628121, 0.000000)">
                        <circle id="Oval" cx="0.328515112" cy="0.328515112" r="0.3"></circle>
                    </g>
                </g>
                <rect id="Rectangle" fill="#CFD3DA" fill-rule="nonzero" x="10.2496715" y="1.57687254" width="71.2220762" height="7.62155059"></rect>
                <rect id="Rectangle" fill="#F6F6F6" fill-rule="nonzero" x="16.6885677" y="13.1406045" width="16.4257556" height="13.7976347"></rect>
                <rect id="Rectangle" fill="#F6F6F6" fill-rule="nonzero" x="35.0854139" y="13.1406045" width="16.4257556" height="13.7976347"></rect>
                <rect id="Rectangle" fill="#F6F6F6" fill-rule="nonzero" x="53.4822602" y="13.1406045" width="16.4257556" height="13.7976347"></rect>
                <rect id="Rectangle" fill="#CFD3DA" fill-rule="nonzero" x="18.0026281" y="15.1116951" width="13.7976347" height="1.70827858"></rect>
                <rect id="Rectangle" fill="#CFD3DA" fill-rule="nonzero" x="36.3994744" y="15.1116951" width="13.7976347" height="1.70827858"></rect>
                <rect id="Rectangle" fill="#CFD3DA" fill-rule="nonzero" x="54.7963206" y="15.1116951" width="13.7976347" height="1.70827858"></rect>
                <circle id="Oval" fill="#3290FF" fill-rule="nonzero" cx="24.7700394" cy="22.1419185" r="3.48226018"></circle>
                <path d="M25.2555261,18.1340342 L24.3101183,22.6018397 L28.7701267,22.6018397 C28.7701267,22.6018397 29.1127512,18.6254765 25.2555261,18.1340342 Z" id="Path" fill="#E6F7FF" fill-rule="nonzero"></path>
                <rect id="Rectangle" fill="#CFD3DA" fill-rule="nonzero" x="36.7936925" y="18.6596583" width="11.5637319" height="1.05124836"></rect>
                <rect id="Rectangle" fill="#CFD3DA" fill-rule="nonzero" x="55.1905388" y="18.6596583" width="4.9934297" height="1.05124836"></rect>
                <rect id="Rectangle" fill="#3290FF" fill-rule="nonzero" x="63.7319317" y="18.6596583" width="4.9934297" height="1.05124836"></rect>
                <rect id="Rectangle" fill="#3290FF" fill-rule="nonzero" x="36.7936925" y="21.6819974" width="11.5637319" height="1.05124836"></rect>
                <rect id="Rectangle" fill="#3290FF" fill-rule="nonzero" x="55.1905388" y="21.6819974" width="4.9934297" height="1.05124836"></rect>
                <rect id="Rectangle" fill="#CFD3DA" fill-rule="nonzero" x="63.7319317" y="21.6819974" width="4.9934297" height="1.05124836"></rect>
                <polyline id="Path" stroke="#62C370" stroke-width="0.5" stroke-linecap="round" stroke-linejoin="round" points="67.4113009 30.4862024 66.2368804 31.6688568 65.7030223 31.1312558"></polyline>
                <path d="M67.39578,37.1404689 L67.39578,37.1404689 L66.9182721,36.6622865 L67.39578,36.1841041 L67.39578,36.1841041 C67.4050675,36.1748637 67.4102892,36.1623028 67.4102892,36.1492014 C67.4102892,36.1361003 67.4050675,36.1235393 67.39578,36.1142988 L67.1698406,35.8883594 C67.1606001,35.8790719 67.1480392,35.8738502 67.134938,35.8738502 C67.1218367,35.8738502 67.1092757,35.8790719 67.1000353,35.8883594 L67.1000353,35.8883594 L66.6228647,36.366879 L66.1446823,35.8886966 L66.1446823,35.8886966 C66.1354419,35.8794091 66.1228809,35.8741874 66.1097796,35.8741874 C66.0966784,35.8741874 66.0841175,35.8794091 66.074877,35.8886966 L65.8489376,36.1146361 C65.8396501,36.1238765 65.8344284,36.1364375 65.8344284,36.1495388 C65.8344284,36.1626399 65.8396501,36.1752009 65.8489376,36.1844413 L65.8489376,36.1844413 L66.32712,36.6622865 L65.8489376,37.1404689 L65.8489376,37.1404689 C65.8396501,37.1497092 65.8344284,37.1622702 65.8344284,37.1753715 C65.8344284,37.1884727 65.8396501,37.2010336 65.8489376,37.2102741 L66.074877,37.4362135 C66.0841175,37.4455011 66.0966784,37.4507227 66.1097796,37.4507227 C66.1228809,37.4507227 66.1354419,37.4455011 66.1446823,37.4362135 L66.1446823,37.4362135 L66.6228647,36.9580311 L67.101047,37.4362135 L67.101047,37.4362135 C67.1102874,37.4455011 67.1228484,37.4507227 67.1359497,37.4507227 C67.1490509,37.4507227 67.1616118,37.4455011 67.1708523,37.4362135 L67.3967917,37.2102741 C67.4060792,37.2010336 67.4113009,37.1884727 67.4113009,37.1753715 C67.4113009,37.1622702 67.4060792,37.1497092 67.3967917,37.1404689 L67.39578,37.1404689 Z" id="Path" fill="#C3423F" fill-rule="nonzero"></path>
                <g transform="translate(0.000000, 1.576873)">
                    <rect id="Rectangle" fill="#FFFFFF" fill-rule="nonzero" x="0" y="0" width="10.1839685" height="49.3425347"></rect>
                    <g id="Rectangle" transform="translate(3.285151, 11.184308)" fill-rule="nonzero">
                        <rect fill="#E9E9E9" x="0" y="0" width="3.61366623" height="1.64475116"></rect>
                        <rect fill="#CFD3DA" x="0" y="1.97370138" width="3.61366623" height="1"></rect>
                    </g>
                    <g id="Rectangle" transform="translate(3.285151, 14.473810)" fill-rule="nonzero">
                        <rect fill="#E9EBE9" x="0" y="0" width="3.61366623" height="1.31580092"></rect>
                        <rect fill="#CFD3DA" x="0" y="1.64475116" width="3.61366623" height="1"></rect>
                    </g>
                    <g id="Rectangle" transform="translate(3.285151, 17.763312)" fill-rule="nonzero">
                        <rect fill="#E6F7FF" x="0" y="0" width="3.61366623" height="1.31580092"></rect>
                        <rect fill="#3290FF" x="0" y="1.64475116" width="3.61366623" height="1"></rect>
                    </g>
                    <g id="Rectangle" transform="translate(3.285151, 20.723865)" fill-rule="nonzero">
                        <rect fill="#E9EBE9" x="0" y="0" width="3.61366623" height="1.64475116"></rect>
                        <rect fill="#CFD3DA" x="0" y="1.97370138" width="3.61366623" height="1"></rect>
                    </g>
                    <g transform="translate(2.803219, 2.302652)" fill-rule="nonzero">
                        <g id="Path" transform="translate(0.210907, 1.086852)" fill="#031A6B">
                            <path d="M1.76971091,1.06515827 C1.76452062,1.06515827 1.75941819,1.06379982 1.75492773,1.06119345 L0.01478318,0.0549346886 C0.00235659713,0.0460692396 -0.00131615912,0.0291706505 0.00635330025,0.0159446424 C0.0140227597,0.00271863436 0.0304906252,-0.00248106256 0.0443495401,0.00394740277 L1.78547963,1.01020616 C1.79730265,1.01670172 1.80315511,1.03045182 1.79964639,1.04349034 C1.79613767,1.05652885 1.78417809,1.06547294 1.77069645,1.06515827 L1.76971091,1.06515827 Z"></path>
                        </g>
                        <g id="Path" transform="translate(1.885348, 1.086852)" fill="#031A6B">
                            <path d="M0.0952693824,1.06515827 C0.0817877443,1.06547294 0.0698281666,1.05652885 0.0663194418,1.04349034 C0.0628107171,1.03045182 0.0686631807,1.01670172 0.0804862024,1.01020616 L1.82095926,0.00394740277 C1.83473735,-0.00192753137 1.85072639,0.00344027611 1.85818326,0.0164441696 C1.86564013,0.0294480631 1.86220979,0.0459811151 1.85019711,0.0549346886 L0.110052562,1.06119345 C0.105562097,1.06379982 0.100459668,1.06515827 0.0952693824,1.06515827 Z"></path>
                        </g>
                        <g id="Path" transform="translate(1.885348, 3.095267)" fill="#031A6B">
                            <path d="M0.0949408673,0.872201965 C0.078793251,0.872201965 0.0657030223,0.859094398 0.0657030223,0.842925394 L0.0657030223,0.160682615 C0.0657030223,0.144422775 0.0788667924,0.13124157 0.0951051248,0.13124157 C0.111343457,0.13124157 0.124507227,0.144422775 0.124507227,0.160682615 L0.124507227,0.842925394 C0.124507227,0.859094398 0.111416999,0.872201965 0.0952693824,0.872201965 L0.0949408673,0.872201965 Z"></path>
                        </g>
                        <polygon id="Path" fill="#031A6B" points="2.99047306 1.52698698 1.98061761 0.941784511 0.970762155 1.52567117 1.98061761 2.10955783"></polygon>
                        <polygon id="Path" fill="#1D84B5" points="1.98061761 3.28851545 2.99901445 2.7046288 2.99901445 1.53718443 1.98061761 2.12107109"></polygon>
                        <polygon id="Path" fill="#75D3FF" points="0.961892247 1.53389493 0.961892247 2.7019972 1.98028909 3.28588386 1.98028909 2.11778159"></polygon>
                        <g id="Shape" transform="translate(0.139947, 0.000000)">
                            <path d="M1.84034166,4.00036376 C1.82883204,4.00044335 1.81750348,3.99749402 1.80749014,3.99181105 L0.0519053876,2.98686809 C0.031998065,2.97536624 0.0195400838,2.95428436 0.0190538765,2.93127551 L0.0190538765,1.08915422 C0.0195400838,1.06614535 0.031998065,1.04506348 0.0519053876,1.03356163 L1.80847569,0.0276318194 C1.82821196,0.0167454062 1.85214284,0.0167454062 1.87187911,0.0276318194 L3.62877792,1.03224583 C3.64868524,1.04374768 3.66114323,1.06482955 3.66162943,1.08783841 L3.66162943,2.92995971 C3.66114323,2.95296857 3.64868524,2.97405045 3.62877792,2.9855523 L1.87220762,3.99279791 C1.8622306,3.99857007 1.8508774,4.00152581 1.83935611,4.00136475 L1.84034166,4.00036376 Z M0.1478318,1.12566769 L0.1478318,2.89410414 L1.84034166,3.86121781 L3.53285151,2.89410414 L3.53285151,1.12566769 L1.84034166,0.15690926 L0.1478318,1.12566769 Z" fill="#031A6B"></path>
                            <path d="M1.84067017,0.0391445666 C1.84839686,0.0391445666 1.85598423,0.0412062711 1.86268068,0.0450661816 L3.61925099,1.04902229 C3.63304482,1.05691822 3.64159001,1.07159973 3.64159001,1.08750946 L3.64159001,2.92963076 C3.64159001,2.9455405 3.63304482,2.960222 3.61925099,2.96811794 L1.86235217,3.97667934 C1.8487141,3.98448612 1.83196921,3.98448612 1.81833114,3.97667934 L0.061760841,2.97009164 C0.047966998,2.9621957 0.0394454426,2.94751419 0.0394218134,2.93160445 L0.0394218134,1.08948317 C0.0387170899,1.07287231 0.0473376129,1.05725865 0.061760841,1.04902229 L1.81833114,0.0450661816 C1.82512411,0.0411504925 1.83283212,0.0391445666 1.84067017,0.0391445666 L1.84067017,0.0391445666 Z M1.84067017,3.88523118 L1.86005256,3.87404687 L3.53285151,2.9168017 L3.55256242,2.90561739 L3.55256242,1.11481233 L3.53285151,1.10362802 L1.85972405,0.145724953 L1.84067017,0.134869595 L1.82095926,0.145724953 L0.1478318,1.10362802 L0.128120894,1.11481233 L0.128120894,2.90594635 L0.1478318,2.91713064 L1.82095926,3.87437582 L1.84034166,3.88556013 L1.84067017,3.88523118 Z M1.84066947,0 C1.82613725,6.97047024e-05 1.81187244,0.003924038 1.79927727,0.0111843079 L0.0423784494,1.01612726 C0.0166324448,1.03124595 0.000864386996,1.05893925 0.000984166778,1.08882526 L0.000984166778,2.93094656 C0.000984166778,2.96096802 0.0170366699,2.98869269 0.0430354796,3.00364456 L1.79894875,4.00957436 C1.82470021,4.0243066 1.85631162,4.0243066 1.88206307,4.00957436 L3.63863338,3.00463141 C3.66463218,2.98967955 3.68068331,2.96195486 3.68068331,2.9319334 L3.68068331,1.08981212 C3.68068331,1.05979066 3.66463218,1.03206598 3.63863338,1.01711411 L1.88206307,0.0111843079 C1.8694679,0.003924038 1.85520309,6.97047024e-05 1.84066947,0 Z M1.84067017,3.84016499 L0.167542707,2.88324878 L0.167542707,1.13718095 L1.84067017,0.179935777 L3.51379763,1.13718095 L3.51379763,2.88259088 L1.84067017,3.83983604 L1.84067017,3.84016499 Z" fill="#FFFFFF"></path>
                        </g>
                        <ellipse id="Oval" fill="#031A6B" cx="0.244086728" cy="1.11843079" rx="0.3" ry="0.3"></ellipse>
                        <ellipse id="Oval" fill="#031A6B" cx="3.71681997" cy="1.11843079" rx="0.3" ry="0.3"></ellipse>
                        <ellipse id="Oval" fill="#031A6B" cx="1.98028909" cy="3.91121825" rx="0.3" ry="0.3"></ellipse>
                    </g>
                    <path d="M10.348226,7.4013802 L10.348226,49.5070097" id="Path" stroke="#E9EBE9" stroke-width="0.5"></path>
                </g>
            </g>
        </g>
    </g>
</svg>