<?xml version="1.0" encoding="UTF-8"?>
<svg width="39px" height="30px" viewBox="0 0 39 30" version="1.1" xmlns="http://www.w3.org/2000/svg" xmlns:xlink="http://www.w3.org/1999/xlink">
    <!-- Generator: Sketch 57.1 (83088) - https://sketch.com -->
    <title>analyze</title>
    <desc>Created with Sketch.</desc>
    <g id="Page-1" stroke="none" stroke-width="1" fill="none" fill-rule="evenodd">
        <g id="analyze" fill="#1890FF" fill-rule="nonzero">
            <path d="M34.5,0 C36.9852814,0 39,2.01471863 39,4.5 C39,6.98528137 36.9852814,9 34.5,9 C34.1896949,9 33.8867255,8.96859193 33.5940974,8.9087814 L27.9759041,18.6418106 C28.6157658,19.4190599 29,20.4146586 29,21.5 C29,23.9852814 26.9852814,26 24.5,26 C22.0147186,26 20,23.9852814 20,21.5 C20,20.3958485 20.397668,19.3845773 21.057594,18.6015964 L17.947658,14.7620773 C17.4933572,14.9163368 17.0064489,15 16.5,15 C15.9935511,15 15.5066428,14.9163368 15.052342,14.7620773 L8.30481387,23.0961266 C8.74510909,23.7915603 9,24.6160137 9,25.5 C9,27.9852814 6.98528137,30 4.5,30 C2.01471863,30 0,27.9852814 0,25.5 C0,23.0147186 2.01471863,21 4.5,21 C5.00644887,21 5.49335716,21.0836632 5.94765799,21.2379227 L12.6951861,12.9038734 C12.2548909,12.2084397 12,11.3839863 12,10.5 C12,8.01471863 14.0147186,6 16.5,6 C18.9852814,6 21,8.01471863 21,10.5 C21,11.3839863 20.7451091,12.2084397 20.3048139,12.9038734 L23.6805392,17.0744345 C23.9462563,17.0255464 24.2201448,17 24.5,17 C24.8103051,17 25.1132745,17.0314081 25.4059026,17.0912186 L31.0240959,7.35818945 C30.3842342,6.58094013 30,5.58534142 30,4.5 C30,2.01471863 32.0147186,0 34.5,0 Z" id="Combined-Shape"></path>
        </g>
    </g>
</svg>