<svg width="100%" height="100%" viewBox="0 0 618.392 295.654"><defs><style>.a{fill:#c1dee2;}.b{fill:#69a1ac;}.c{fill:#89c5cc;}.d{opacity:0.6;}.e{fill:#dde3e9;}.f{fill:#e0e0e0;}.g{fill:#fff;}.h{fill:#f2f2f2;}.i{fill:#c5cfd6;}.j{fill:#afb9c5;}.k{fill:#915b3c;}.l{fill:#191847;}.m{fill:#b28b67;}.n{fill:#2f3676;}.o{fill:#e4e4e4;}.p{fill:#5c63ab;}.q{fill:#e87613;}.r{fill:#ff9b21;}.s{fill:rgba(0,0,0,0.1);}.t{fill:#d4a181;}.u{fill:#997659;}.v{fill:#2b44ff;}</style></defs><g transform="translate(-755.33 -124.587)"><g transform="translate(750.324 114.587)"><path class="a" d="M51.412,114.1a201.417,201.417,0,0,0-3.972-23.544c-1.135-4.573-2.59-9.05-3.911-13.571q.178.851.314,1.71c-.46-1.348-1.42-2.638-1.972-3.982-.616-1.5-1.111-3.055-1.582-4.6-.919-3.02-1.786-6.045-2.82-9.031-1.152-3.326-2.479-6.6-3.715-9.894a80.3,80.3,0,0,0-3.4-8.406c-.744-1.455-1.412-3.019-2.143-4.5-.245-.5-2.344-6.043-2.328-6.043.347,0,1.649,2.465,1.864,2.828.63,1.058,1.166,2.159,1.707,3.261a14.523,14.523,0,0,1,1.186-3.8c.18-.372,1.442-3.112,1.853-3.112a43,43,0,0,1-1.932,5.63,9.374,9.374,0,0,0-.687,1.23c-.205.634-.1.476.07,1.048a30.048,30.048,0,0,0,1.43,3.082,21.915,21.915,0,0,0,1.392,3.235,83.917,83.917,0,0,1,3.623,9.448,20.228,20.228,0,0,1,1.23-4.41c.136-.339,1.221-3.487,1.533-3.487.351,0-.994,5.041-1.177,5.476-.34.809-.873,1.592-1.156,2.415-.31.9.235,1.717.581,2.641,1.276,3.4,2.394,6.834,3.416,10.314,5.936-2.6,7.116-10.251,7.5-15.893A39.42,39.42,0,0,0,46.986,40,81.211,81.211,0,0,0,41.1,24.755,54.52,54.52,0,0,0,30.054,9.5a58.3,58.3,0,0,0-7.829-6.254,16.658,16.658,0,0,0-4.288-2.211A15.531,15.531,0,0,0,15.773.5c-.557-.1-1.693-.614-2.155-.483a14.576,14.576,0,0,0-8.8,6A28.221,28.221,0,0,0,.725,16.31,32.73,32.73,0,0,0,.419,28.331a74.31,74.31,0,0,0,2.33,9.036C5.965,47.939,11.6,59.273,21.712,65.072a30.777,30.777,0,0,0,10.633,3.556c.879.137,1.756.267,2.645.318.6.034,2.57-.364,3-.106.595.354.936,2.364,1.2,3.093,1.969,5.538,3.73,11.14,5.327,16.791,1.7,6.013,3.05,12.084,4.175,18.222.478,2.611.944,5.218,1.341,7.843.093.611,0,2.532.593,3.071a.719.719,0,0,0,1.134-.216c.39-.726-.245-2.731-.347-3.541" transform="matrix(0.799, -0.602, 0.602, 0.799, 191.251, 112.039)"/><path class="b" d="M58.042.445a31.771,31.771,0,0,0-7.19-.423,44.677,44.677,0,0,0-32.97,15.642C11.038,23.765,9.156,33.837,7.8,44.019c-.134,1.011-.192,2.015-.267,3.028-.016.217-.041.411-.066.594a1.308,1.308,0,0,0-.5,1.638,67.682,67.682,0,0,0-3.012,7.9c-2.5,7.979-5.048,16.11-3.48,24.5A117.228,117.228,0,0,1,2.541,67.8c.053-.261.11-.519.17-.777l.018-.081a30.354,30.354,0,0,1,1.266-4.068l.016-.043c.068-.175.14-.349.212-.522.148-.36.3-.719.46-1.076q.082-.183.157-.368c.751-1.84,1.068-3.914,1.74-5.818q.241-.649.505-1.293l.032-.075c.476-1.155,1-2.295,1.559-3.423a4.215,4.215,0,0,0,.725-1.3A8.15,8.15,0,0,0,10,47.79q.492-.951.984-1.9l-.03.011q.5-.912.99-1.815l.218-.4.354-.633c1.1-1.972,2.27-3.9,3.483-5.812.433-.681,1.467-1.658,1.666-2.422.007-.029.009-.055.013-.082a43.4,43.4,0,0,1,9.3-9.81c-.439.475-1.373,2.087-1.62,2.406-.756.977-1.576,1.886-2.4,2.807a59.754,59.754,0,0,0-4.193,5.149A97.856,97.856,0,0,0,12.5,45.573c-.018.021-.038.04-.055.062a25.039,25.039,0,0,0-2.253,4.32c2.732-1.265,5.752-2.089,8.555-3.213a70.3,70.3,0,0,0,8.141-3.832A90.845,90.845,0,0,0,37.3,36.28a41.232,41.232,0,0,0,9.756-8.955c3.316-4.006,6.355-8.046,8.235-12.91a38.766,38.766,0,0,0,2.08-7.4c.019-.11.043-.229.069-.353A24.252,24.252,0,0,0,58.6,3.987c.525-1.445,1.765-3.034-.56-3.541" transform="translate(466.541 19.696)"/><path class="c" d="M31.23,48c.128,0,.269-.1.419-.3.345-.452.068-1.921-.08-2.71-.027-.141-.049-.262-.062-.344a17.063,17.063,0,0,0-.446-2.054,59.463,59.463,0,0,0-2.173-6.029c-.3-.734-.609-1.5-.925-2.263-.059-.143-.109-.248-.15-.333-.145-.3-.145-.3.15-.628l.052-.058a4.1,4.1,0,0,1,.538-.468,5.022,5.022,0,0,0,.452-.378,10.215,10.215,0,0,0,2.474-4.125,10.411,10.411,0,0,0,.448-4.511,17.822,17.822,0,0,0-1.151-4.423A35.578,35.578,0,0,0,27.2,12.424a32.035,32.035,0,0,0-5.08-6.008,27.63,27.63,0,0,0-8.434-4.963A17.777,17.777,0,0,0,8.291.183c-.259-.018-.528-.028-.8-.028A14.549,14.549,0,0,0,5.7.274c-.168.021-.344.055-.514.089A5.251,5.251,0,0,1,4.46.471L4.344.478c-.081,0-.143.008-.2.008-.223,0-.312-.065-.592-.343A.407.407,0,0,0,3.285,0a.243.243,0,0,0-.218.187.672.672,0,0,0,.183.7A4.987,4.987,0,0,0,.97,2.914,7.251,7.251,0,0,0,.075,5.8,20.962,20.962,0,0,0,.567,12a28.529,28.529,0,0,0,1.994,6.185A32.58,32.58,0,0,0,5.78,23.716a46.641,46.641,0,0,0,9.1,9.278,13.255,13.255,0,0,0,6.112,2.811,7.081,7.081,0,0,0,1.165.1A7.765,7.765,0,0,0,24.6,35.49c.061-.02.14-.043.23-.069.372-.108.935-.272,1.074-.505.125-.21.009-.392-.137-.621-.043-.068-.087-.138-.129-.214l-.482-.882c-.423-.775-.86-1.577-1.3-2.36-.069-.124-.142-.287-.22-.46a3.008,3.008,0,0,0-.667-1.091.409.409,0,0,0-.11-.01.858.858,0,0,1-.349-.058c-.074-.047-.086-.182-.094-.271,0-.045-.007-.08-.017-.086a3.776,3.776,0,0,0-1.323-.306c-.223-.026-.433-.051-.6-.086-.459-.1-1-.222-1.535-.39a16.962,16.962,0,0,1-1.611-.6c-.112-.048-.273-.141-.444-.24a3.042,3.042,0,0,0-.9-.417,14.669,14.669,0,0,1,3.448.621,13.382,13.382,0,0,1,1.8.63c.071.03.187.1.322.171a2.981,2.981,0,0,0,.942.412.153.153,0,0,0,.079-.018,35.279,35.279,0,0,0-2.4-3.435c-.447-.568-.92-1.182-1.346-1.814-.028-.041-.1-.164-.181-.319a4.764,4.764,0,0,0-.75-1.16c.272,0,.863.642,1.217,1.024.1.111.191.206.247.26a16.512,16.512,0,0,1,1.3,1.4,31.655,31.655,0,0,1,1.928,2.629c.854,1.283,1.6,2.622,2.3,3.883.16.291.333.588.5.875a17.407,17.407,0,0,1,1.246,2.43.146.146,0,0,1,.087-.037c.093,0,.137.151.18.3a1.566,1.566,0,0,0,.049.149c.226.545.446,1.078.663,1.609.458,1.121.824,2.047,1.153,2.913l.018.046c.385,1.016.784,2.067,1.1,3.121a17.952,17.952,0,0,1,.662,3.026c.051.409.087.823.106,1.229C30.671,47.09,30.836,48,31.23,48ZM29.359,28.886a11.1,11.1,0,0,1-1.745,2.927c.407-.606.758-1.163,1.072-1.7.071-.122.207-.377.339-.623C29.189,29.182,29.344,28.892,29.359,28.886Zm-7.776-8.531c.185,0,.383,1.666.4,1.943a8.168,8.168,0,0,1-.318,2.735v0a10.543,10.543,0,0,0-.082-1.313c-.116-1.308-.275-3.1-.057-3.339A.072.072,0,0,1,21.583,20.355Z" transform="matrix(0.53, -0.848, 0.848, 0.53, 229.229, 109.13)"/><g class="d" transform="translate(105.005 189.378)"><path class="e" d="M365.9,74.417c5.336,33.261-124.07,54.957-235.453,39.816S-32.032,39.967,21.118,8.462,360.565,41.156,365.9,74.417Z" transform="translate(-100 -3.63)"/></g><g transform="translate(173.813 10.413)"><g transform="translate(14.169 129.128)"><path class="c" d="M5.754,0c-.937,0-1.87.019-2.806.067C2.236.1,1.146-.043.543.4-.084.863-.041,1.808.057,2.475a15.045,15.045,0,0,0,4.424,9.158A25.554,25.554,0,0,0,18.737,18.31a11.577,11.577,0,0,0,10.313-3,43.03,43.03,0,0,1,4.462,12.479,29.9,29.9,0,0,1,.442,6.414c-.044,1.391-.121,2.78-.27,4.165a4.928,4.928,0,0,0-.136,2.081.95.95,0,0,0,1.627.163,4.674,4.674,0,0,0,.356-1.966c.119-.932.228-1.864.307-2.8.128-1.515.222-3.034.215-4.555A33.959,33.959,0,0,0,34.239,21.2,34.642,34.642,0,0,0,23.98,5.112C20.886,2.444,17.346,1.363,13.33.783A53.394,53.394,0,0,0,5.754,0" transform="translate(0 0)"/></g><rect class="f" width="112" height="213" rx="8" transform="translate(35.862)"/><ellipse class="g" cx="10.5" cy="11" rx="10.5" ry="11" transform="translate(80.862 178)"/><g transform="translate(80.94 11.6)"><ellipse class="g" cx="1.5" cy="1" rx="1.5" ry="1" transform="translate(-0.078 0.4)"/><rect class="g" width="15" height="2" rx="1" transform="translate(5.922 0.4)"/></g><g transform="translate(45.249 19.63)"><g transform="translate(0 0)"><rect class="g" width="93" height="38" rx="4" transform="translate(-0.386 0.37)"/><g transform="translate(6.47 11.616)"><rect class="e" width="51.607" height="5.726" rx="2.863"/><rect class="e" width="34.64" height="5.726" rx="2.863" transform="translate(0 9.544)"/></g><g transform="translate(77.63 14.277)"><circle class="e" cx="5" cy="5" r="5" transform="translate(-0.016 0.093)"/><circle class="h" cx="2" cy="2" r="2" transform="translate(2.984 3.093)"/></g></g><g transform="translate(0 43.722)"><rect class="g" width="93" height="31" rx="4" transform="translate(-0.386 -0.353)"/><g transform="translate(27.678 9.179)"><rect class="e" width="51.607" height="4.454" rx="2.227"/><rect class="e" width="34.64" height="4.454" rx="2.227" transform="translate(0 7.423)"/></g><circle class="i" cx="8.5" cy="8.5" r="8.5" transform="translate(6.614 6.647)"/></g><g transform="translate(0 79.414)"><rect class="g" width="93" height="29" rx="4" transform="translate(-0.386 -0.045)"/><g transform="translate(6.47 8.834)"><rect class="e" width="51.607" height="4.454" rx="2.227"/><rect class="j" width="34.64" height="4.454" rx="2.227" transform="translate(0 7.423)"/></g><g transform="translate(77.63 9.815)"><circle class="e" cx="5" cy="5" r="5" transform="translate(-0.016 0.14)"/><circle class="h" cx="2" cy="2" r="2" transform="translate(2.984 3.14)"/></g></g><g transform="translate(0 115.106)"><rect class="g" width="93" height="29" rx="4" transform="translate(-0.386 0.263)"/><g transform="translate(27.678 8.489)"><rect class="e" width="51.607" height="4.454" rx="2.227"/><rect class="e" width="34.64" height="4.454" rx="2.227" transform="translate(0 7.423)"/></g><circle class="i" cx="8.5" cy="8.5" r="8.5" transform="translate(6.614 6.263)"/></g></g></g><g transform="translate(269.342 10)"><rect class="f" width="217.657" height="224.804" rx="8"/><rect class="g" width="45.48" height="52.627" rx="8" transform="translate(161.781 27.938)"/><g transform="translate(168.278 37.684)"><circle class="e" cx="10.396" cy="10.396" r="10.396" transform="translate(5.847)"/><rect class="e" width="32.486" height="3.898" rx="1.949" transform="translate(0 23.39)"/><rect class="e" width="22.091" height="3.898" rx="1.949" transform="translate(5.198 29.887)"/></g><path class="i" d="M8,0H209.657a8,8,0,0,1,8,8v9.542a0,0,0,0,1,0,0H0a0,0,0,0,1,0,0V8A8,8,0,0,1,8,0Z"/><g transform="translate(8.092 8.991)"><circle class="h" cx="3.596" cy="3.596" r="3.596"/><circle class="h" cx="3.596" cy="3.596" r="3.596" transform="translate(10.789)"/><circle class="h" cx="3.596" cy="3.596" r="3.596" transform="translate(21.579)"/></g><g transform="translate(161.781 85.763)"><rect class="g" width="45.48" height="126.046" rx="8"/><g transform="translate(16.184 16.184)"><rect class="e" width="13.112" height="16.893" rx="4"/><rect class="j" width="13.112" height="16.243" rx="4" transform="translate(0 22.091)"/><rect class="e" width="13.112" height="16.243" rx="4" transform="translate(0 43.531)"/><rect class="e" width="13.112" height="16.243" rx="4" transform="translate(0 86.413)"/><rect class="i" width="13.112" height="16.243" rx="4" transform="translate(0 64.972)"/></g></g><g transform="translate(14.386 39.561)"><rect class="g" width="118.753" height="30.537" rx="4"/><g transform="translate(8.092 9.161)"><rect class="e" width="66.604" height="4.581" rx="2.29"/><rect class="e" width="44.707" height="4.581" rx="2.29" transform="translate(0 7.634)"/></g><g transform="translate(97.589 8.975)"><circle class="e" cx="6.294" cy="6.294" r="6.294"/><circle class="h" cx="2.697" cy="2.697" r="2.697" transform="translate(3.596 3.596)"/></g><g transform="translate(0 35.735)"><rect class="g" width="118.753" height="25.339" rx="4"/><g transform="translate(8.092 7.602)"><rect class="e" width="66.604" height="3.801" rx="1.9"/><rect class="e" width="44.707" height="3.801" rx="1.9" transform="translate(0 6.335)"/></g><g transform="translate(97.589 6.376)"><circle class="e" cx="6.294" cy="6.294" r="6.294"/><circle class="h" cx="2.697" cy="2.697" r="2.697" transform="translate(3.596 3.596)"/></g></g><g transform="translate(0 66.272)"><rect class="g" width="118.753" height="25.339" rx="4"/><g transform="translate(8.092 7.602)"><rect class="e" width="66.604" height="3.801" rx="1.9"/><rect class="e" width="44.707" height="3.801" rx="1.9" transform="translate(0 6.335)"/></g><g transform="translate(97.589 6.376)"><circle class="e" cx="6.294" cy="6.294" r="6.294"/><circle class="j" cx="2.697" cy="2.697" r="2.697" transform="translate(3.596 3.596)"/></g></g><g transform="translate(0 157.882)"><rect class="g" width="118.753" height="25.339" rx="4"/><g transform="translate(8.092 7.602)"><rect class="e" width="66.604" height="3.801" rx="1.9"/><rect class="e" width="44.707" height="3.801" rx="1.9" transform="translate(0 6.335)"/></g><g transform="translate(97.589 6.376)"><circle class="e" cx="6.294" cy="6.294" r="6.294"/><circle class="h" cx="2.697" cy="2.697" r="2.697" transform="translate(3.596 3.596)"/></g></g><g transform="translate(0 127.345)"><rect class="g" width="118.753" height="25.339" rx="4"/><g transform="translate(8.092 7.602)"><rect class="e" width="66.604" height="3.801" rx="1.9"/><rect class="e" width="44.707" height="3.801" rx="1.9" transform="translate(0 6.335)"/></g><g transform="translate(97.589 6.376)"><circle class="e" cx="6.294" cy="6.294" r="6.294"/><circle class="h" cx="2.697" cy="2.697" r="2.697" transform="translate(3.596 3.596)"/></g></g><g transform="translate(0 96.808)"><rect class="g" width="118.753" height="25.339" rx="4"/><g transform="translate(8.092 7.602)"><rect class="e" width="66.604" height="3.801" rx="1.9"/><rect class="e" width="44.707" height="3.801" rx="1.9" transform="translate(0 6.335)"/></g><g transform="translate(97.589 6.376)"><circle class="e" cx="6.294" cy="6.294" r="6.294"/><circle class="h" cx="2.697" cy="2.697" r="2.697" transform="translate(3.596 3.596)"/></g></g></g></g><g transform="translate(419 241.761)"><rect class="e" width="6" height="25" rx="3" transform="translate(0 32)"/><rect class="e" width="6" height="41" rx="3" transform="translate(14 16)"/><rect class="e" width="6" height="49" rx="3" transform="translate(28 8)"/><rect class="e" width="6" height="41" rx="3" transform="translate(42 16)"/><rect class="i" width="6" height="57" rx="3" transform="translate(56)"/></g><g transform="translate(197.516 69.563) rotate(180)"><path class="h" d="M0,20.256A20.191,20.191,0,0,1,20,0V20.256L6.332,35A20.073,20.073,0,0,1,0,20.256Z" transform="translate(40 40) rotate(180)"/><path class="j" d="M13.8,0H34a20.014,20.014,0,0,1-5.5,13.668A20.357,20.357,0,0,1,13.8,20,20.644,20.644,0,0,1,0,14.557Z" transform="translate(34.332 20) rotate(180)"/><path class="i" d="M20,20H40a19.745,19.745,0,0,0-1.578-7.765A20.2,20.2,0,0,0,27.765,1.578,19.746,19.746,0,0,0,20,0V20Zm-2-2v0L10,0A18.353,18.353,0,0,0,0,10l18,8Z" transform="translate(40 40) rotate(180)"/></g></g><g transform="translate(766 188)"><g transform="translate(47)"><g transform="translate(35.355 19.905)"><path class="k" d="M0,47,5.311,22.206C2.349,18.724.344,14.456.679,9.674,1.645-4.1,20.8-1.073,24.521,5.881S27.8,30.475,22.989,31.717c-1.92.5-6.01-.718-10.173-3.232L15.429,47Z" transform="translate(-0.355 0.095)"/></g><path class="l" d="M6.737,29.927C4.789,21.272-.76,15.371.087,11.5A6.589,6.589,0,0,1,4.605,6.691S6.5-.979,16.849.166,33.51,5.6,30.783,15.046c-2.507,0-5.533-.905-9.717.646-1.992.738-2.849,4.579-2.849,4.579H16.326s-2.753-4.558-5.429-3.35S9.68,22.791,9.68,22.791l-.931,7.136Z" transform="translate(32.333 15.484)"/></g><g transform="translate(0 120.195)"><g transform="translate(0 26.805)"><path class="i" d="M79,81H16A16,16,0,0,1,0,65V16A16,16,0,0,1,16,0H79A16,16,0,0,1,95,16V65A16,16,0,0,1,79,81ZM22.095,18.291a4,4,0,0,0-4,4V58.71a4,4,0,0,0,4,4H72.9a4,4,0,0,0,4-4V22.29a4,4,0,0,0-4-4Z" transform="translate(28)"/></g><path class="m" d="M42.783,75.569Q23.658,52.244,16.9,40.984C9.191,28.132,2.88,16.7.888,12.326-3.862,1.909,11.822-2.969,15.372,1.89q8.059,11.032,34.421,69.428Z" transform="translate(144.673 28.224)"/><path class="n" d="M24.417,74.278.689,14.621C-4.386,3.746,20.122-3.4,23.851,1.659c8.467,11.49,28.593,56.817,31.115,60.24Z" transform="translate(136.913 24.995)"/><g transform="translate(139.83 34.048) rotate(39)"><path class="k" d="M1.114,67.631C.468,59.488-.724,31.3.493,18.254c.35-3.749.718-7.374,1.089-10.775,1.1-10.108,19.848-9.8,18.354-.2C16.215,31.2,9.67,64.716,9.2,67.613,8.543,71.672,1.52,72.748,1.114,67.631Z" transform="translate(0 0)"/></g><g transform="translate(95.129 83.435) rotate(30)"><path class="o" d="M2.483,2.941a1.11,1.11,0,0,0-1.424.748L0,7.421A35.653,35.653,0,0,0,.5,11.8H31.8s1.22-4.034-1.409-4.355-4.368-.581-4.368-.581L11.477.38a.555.555,0,0,0-.739.3L9.8,2.944A12.579,12.579,0,0,1,5.848,4.08Z" transform="translate(0 -0.332)"/></g><g transform="translate(180 84.805)"><path class="o" d="M2.893,3.368a1.294,1.294,0,0,0-1.659.871L0,8.582a41.446,41.446,0,0,0,.583,5.1H37.056s1.422-4.694-1.641-5.069-5.089-.676-5.089-.676L13.373.388a.647.647,0,0,0-.861.344l-1.09,2.64A14.67,14.67,0,0,1,6.814,4.693Z" transform="translate(0.647 12.154)"/></g><path class="p" d="M61.885,42.6S32.3,37.782,22.257,36.012C3.165,32.65-2.4,22.389.889,0H36.065c6.982,2.014,58.351,24.912,58.351,24.912,6.161,3.055,5.014,12.063,3.888,15.03-.069.182-31.161,53.332-31.161,53.332L38.367,74.964,61.939,44.753S62.873,42.874,61.885,42.6Z" transform="translate(67.179)"/></g><g transform="translate(9 53)"><path class="k" d="M.793,56.052c-.722-.444-1.512-2.118.4-3.426,4.758-3.258,11.615-8.961,12.542-10.839C15.627,37.947,22.081.522,22.081.522L35.594.575S23.078,40.931,22.081,43.4c-1.5,3.7,1.67,9.345,3.024,12.377-2.134.954-3.126-.264-4.211-1.482-1.157-1.3-2.422-2.6-5.292-1.262-3.673,1.707-6.71,4.417-10.33,4.416A8.407,8.407,0,0,1,.793,56.052ZM117.147,19.719,96.72,11.259,101.28,0l20.628,15.129a55.547,55.547,0,0,1,14.022,5.628c.887.807,1.958,2.441-1.719,2.159s-7.558-.414-8.065.838,1.718,2.751.692,4.441a.488.488,0,0,1-.447.241Q124.577,28.437,117.147,19.719Z" transform="translate(22.092 59.559)"/><path class="q" d="M0,1.441,5.487,0C27.715,16.024,39.2,49.541,66.124,65.473l-5.437,8.083C16.261,71.966,1.711,31.13,0,1.441Z" transform="matrix(0.996, 0.087, -0.087, 0.996, 82.702, 2.009)"/><path class="e" d="M0,73.632H49.477c2.261,0,1.835-3.261,1.508-4.906-3.772-18.99-18.5-39.459-18.5-66.49L18.218,0C6.413,18.962,2.331,42.309,0,73.632Z" transform="translate(58.2)"/><path class="r" d="M.066,103.028C-1.076,66.162,12.9,37.791,24.595,20.685a7.506,7.506,0,0,1-6.423-3.941C12.956,7.343,14.84,2.168,20.415.466s10.546,1.8,19.428,1.8a6.931,6.931,0,0,1,1.059.075l4.736.27S64.865,67.7,56.243,89.465H17.135a123.878,123.878,0,0,1-6.459,13.564Z" transform="translate(35.501 -2.269)"/><path class="s" d="M14.617,23.6H0C2.681,17.174,5.638,9.233,8.789,0c1.312,11.378,3.273,19.32,5.827,23.6Z" transform="translate(52.637 63.591)"/></g></g><g transform="translate(1219.337 159)"><g transform="translate(61.624)"><path class="l" d="M0,26.953V14.62A14.609,14.609,0,0,1,12.4.18c0-.06.007-.12.01-.18H31.234c3.2,3.128-.417,24.342-2.672,31.373a10.079,10.079,0,0,1-.933,2.2A14.607,14.607,0,0,1,0,26.953Z" transform="translate(32.499 41.558) rotate(180)"/><g transform="translate(3.288 2.597)"><path class="t" d="M0,0,5.363,25C2.372,28.509.348,32.812.686,37.633,1.661,51.524,21,48.468,24.759,41.457s3.315-24.8-1.546-26.049c-1.939-.5-6.069.724-10.272,3.258L15.579,0Z" transform="translate(27.263 47.386) rotate(180)"/></g><path class="l" d="M18.9,0H.077A33.81,33.81,0,0,0,.183,5.889,16.191,16.191,0,0,0,1.129,9.9,15.167,15.167,0,0,0,4.447,14.8c2.319,2.558,4.718,5.2,4.718,13.52.163.16.326.321.484.477.463.458.9.889,1.336,1.279l-.021.5a26.2,26.2,0,0,0,3.385,5,17.323,17.323,0,0,0,3.912,3.441,9.66,9.66,0,0,0,5.11,1.564,13.621,13.621,0,0,0,8.012-2.117,15.577,15.577,0,0,0,3.893-4.343l0-.007a7.623,7.623,0,0,0-2.965-4.111,27.35,27.35,0,0,0-4.873-2.637A42.661,42.661,0,0,1,22.7,24.944a3.57,3.57,0,1,1-2.25-6.342c.054,0,.109,0,.162,0A71.876,71.876,0,0,0,20.827,7.2C20.637,4.586,20.149,1.219,18.9,0Z" transform="translate(41.587 41.244) rotate(180)"/></g><g transform="translate(24.663 101.7)"><path class="u" d="M45.442,0,21.066,79.689,9.258,147.459H0L12.477,0Z" transform="translate(25.042 4.729)"/><path class="m" d="M36.725,0c-1.656,43.753.293,66.322.663,70.3s5.445,29.751,17.457,78.5l-9.865-3.388C26,100.7,19.526,77.464,17.349,71.593S9.388,41.858,0,0Z" transform="translate(42.479 4.729)"/><g transform="translate(60.888 146.153)"><path class="o" d="M34.55,3.377a1.3,1.3,0,0,1,1.662.873l1.236,4.356a41.613,41.613,0,0,1-.584,5.114H.33S-1.094,9.012,1.974,8.636s5.1-.678,5.1-.678L24.053.388a.648.648,0,0,1,.863.345l1.092,2.648a14.681,14.681,0,0,0,4.616,1.325Z" transform="translate(0 -0.332)"/></g><g transform="translate(0 146.153)"><path class="o" d="M34.55,3.377a1.3,1.3,0,0,1,1.662.873l1.236,4.356a41.613,41.613,0,0,1-.584,5.114H.33S-1.094,9.012,1.974,8.636s5.1-.678,5.1-.678L24.053.388a.648.648,0,0,1,.863.345l1.092,2.648a14.681,14.681,0,0,0,4.616,1.325Z" transform="translate(0 -0.332)"/></g><path class="v" d="M58.945,3.8s-21.907-7.343-41.456,0C12.955,28.038,1.937,37.658,0,74.818c22.023,12.821,49.229-9.144,71.9,3.359C78.378,60.689,69.309,18.573,58.945,3.8Z" transform="translate(18.663 -0.538)"/></g><g transform="translate(0 37.702)"><path class="t" d="M.8,1.4c-.724.447-1.518,2.129.4,3.443C5.972,8.122,12.854,13.854,13.784,15.74c1.9,3.859,18.546,53.526,18.546,53.526l14.214-.054S23.166,16.6,22.164,14.119C20.662,10.4,23.841,4.728,25.2,1.681c-2.142-.959-3.138.265-4.227,1.489-1.161,1.305-2.431,2.61-5.312,1.268C11.973,2.723,8.925,0,5.291,0A8.432,8.432,0,0,0,.8,1.4ZM112.841,75.2l25.629,3.5a55.883,55.883,0,0,0,14.15,5.792c1.212.035,3.14-.405.268-2.8s-5.785-5.042-5.274-6.32,3.182-.8,3.625-2.767q.443-1.965-13-.639l-20.8-8.245Z" transform="translate(154.385 117.593) rotate(180)"/><path class="j" d="M0,63.744l11.151.231c4.892-24.464,21.13-38.766,53.967-30.571L72.325,1.98C41.554-4.765,13.169,5.308,4.623,38.555,2.411,47.162.472,56.15,0,63.744Z" transform="matrix(-0.996, 0.087, -0.087, -0.996, 88.676, 66.747)"/><path class="i" d="M0,0Q11.59,61.669,48.927,95.421h1.1l.009-.01L66.9,91.549c0-29,9.239-47.506,13.977-68.829H35.339C34.7,15.352,34.3,7.778,34.1,0Z" transform="translate(138.651 95.421) rotate(180)"/><path class="s" d="M9.256,0H0A220.191,220.191,0,0,0,7.494,42.453c-.5-8.41-.669-16.011-.5-22.593C7.205,11.483,7.967,4.8,9.256,0Z" transform="translate(103.312 72.702) rotate(180)"/></g></g></g></svg>