<svg width="100%" height="100%" viewBox="0 0 909 582">
    <g id="Page-1" stroke="none" stroke-width="1" fill="none" fill-rule="evenodd">
        <g id="feature-illustration" transform="translate(-110.000000, 0.000000)">
            <g id="Group" transform="translate(0.684000, 0.000000)">
                <polygon id="Path" fill="#F6CE41" fill-rule="nonzero" transform="translate(238.447913, 328.252787) rotate(-15.008914) translate(-238.447913, -328.252787) " points="238.447913 116.474196 428.536434 540.031378 48.359391 540.031378"></polygon>
                <g transform="translate(169.316000, 137.655000)" fill-rule="nonzero">
                    <g transform="translate(35.000000, 0.000000)" id="Path">
                        <g transform="translate(17.000000, 16.000000)" fill="#E9AFA3">
                            <path d="M0,73 L8.262,34.49 C3.655,29.081 0.536,22.452 1.057,15.025 C2.557,-6.375 32.349,-1.667 38.143,9.134 C43.937,19.935 43.25,47.334 35.761,49.263 C32.774,50.033 26.412,48.147 19.936,44.244 L24,73 L0,73 Z"></path>
                        </g>
                        <path d="M7.593,23.9 C6.86351031,23.0611192 6.32963248,22.070559 6.03,21 C5.63236946,19.920519 5.29846159,18.8186231 5.03,17.7 C4.53,15.451 4.521,12.864 6.13,11.118 C7.46897876,9.79897299 9.25190903,9.02696418 11.13,8.953 C12.3296645,8.86920206 13.5341101,9.02175385 14.675,9.402 C15.804,9.773 16.775,10.513 17.875,10.972 C17.8261886,8.52288152 18.4070702,6.10225483 19.562,3.942 C20.6745297,2.05560119 22.6049567,0.79775295 24.78,0.542 C26.9814129,0.276490857 29.2098916,0.725201366 31.137,1.822 C31.631,2.089 32.121,2.369 32.59,2.687 C32.9658524,2.99103944 33.392854,3.22570407 33.851,3.38 C34.364,3.501 34.619,3.204 34.951,2.83 C35.3423785,2.39635957 35.7780874,2.00489188 36.251,1.662 C38.273904,0.0728151545 40.9602918,-0.392765275 43.4,0.423 C44.5477488,0.844427391 45.5570714,1.57417073 46.317,2.532 C46.983,3.405 47.457,4.79 48.376,5.398 C48.766,5.656 49.041,5.314 49.396,5.061 C49.929,4.681 50.438,4.261 50.977,3.892 C51.718018,3.3715659 52.5500662,2.99471898 53.43,2.781 C54.716,2.481 56.494,2.553 56.862,4.238 C56.9494198,4.88468001 56.9453802,5.54044606 56.85,6.186 C56.789,7.062 56.725,7.937 56.65,8.811 C56.5987112,9.46733653 56.5132621,10.1205552 56.394,10.768 C56.2452994,11.1991607 56.2017575,11.6596079 56.267,12.111 C56.453,12.546 57.313,12.299 57.68,12.311 C58.4105527,12.3270637 59.1308432,12.486411 59.8,12.78 C60.369139,12.9901168 60.8314122,13.4178544 61.085,13.969 C61.1960983,14.3318525 61.2085244,14.7177518 61.121,15.087 C61.0771369,15.4703881 61.100145,15.8584801 61.189,16.234 C62.163,15.754 65.538,14.689 65.963,16.434 C66.0179322,17.0414087 65.8679652,17.6497257 65.537,18.162 C65.0904044,19.0087649 64.5636617,19.8107667 63.964,20.557 C62.7594651,22.0969343 61.3496989,23.4646431 59.774,24.622 C60.643711,24.9946491 61.2603086,25.7887987 61.405832,26.7237253 C61.5513553,27.6586518 61.2053027,28.60264 60.49,29.222 C59.7858304,29.7857237 58.886512,30.046526 57.99,29.947 C57.6489967,29.8873589 57.3031421,29.8599048 56.957,29.865 C56.8066713,29.933172 56.6498875,29.9861033 56.489,30.023 C55.1952937,30.0397695 53.9055603,29.8761968 52.657,29.537 C50.472832,29.0535905 48.4561468,27.9990063 46.813,26.481 C46.4729706,26.0887205 45.9801317,25.8623499 45.461,25.86 C44.961,25.865 44.461,26.003 43.961,26.016 C42.65404,25.8982531 41.3795166,25.5431081 40.2,24.968 C40.0977401,26.6958602 39.6801984,28.3904287 38.968,29.968 C38.412,31.191 37.251,31.368 36.11,31.476 C32.461,31.819 28.8,31.436 25.147,31.441 C28.683,32.241 32.338,32.57 35.847,33.51 C37.431,33.935 36.222,35.003 35.547,35.743 C34.4325977,37.0043642 33.5764351,38.4720715 33.027,40.063 C31.297,37.808 28.239,36.322 25.527,37.015 C22.534,37.78 20.427,41.828 22.34,44.738 C23.451,46.427 25.458,47.079 27.128,47.805 C25.828,49.159 25.51,51.159 24.728,52.844 C24.4232914,53.7393634 23.7790114,54.4791722 22.934,54.904 C22.592163,54.9499892 22.2669162,55.0794697 21.987,55.281 C21.674,55.604 21.6,55.965 21.201,56.242 C19.4937017,57.3941574 17.2178053,57.2189292 15.707,55.819 C14.5716993,54.4405069 14.623712,52.4367374 15.829,51.119 C14.129,50.411 11.038,49.501 11.713,46.856 C8.034,46.612 -0.898,40.645 4.039,36.285 C1.329,34.754 -1.161,31.011 0.58,27.711 C1.92,25.17 5.037,24.035 7.595,23.9" fill="#191847"></path>
                    </g>
                    <g transform="translate(0.000000, 183.000000)" id="Path">
                        <polygon fill="#E9AFA3" points="44 0 80.631 126.227 97.86 221 115.153 221 97.891 0"></polygon>
                        <path d="M27.538,0 C30.094,65.574 29.086,101.34 28.514,107.3 C27.942,113.26 24.694,153.156 2.564,223 L20.55,223 C49.858,156 60.089,116.1 63.45,107.3 C66.811,98.5 76.74,62.734 91.234,0 L27.538,0 Z" fill="#E9AFA3"></path>
                        <path d="M43.214,0 C52.742,43.4353333 69.2216667,112.768667 92.653,208 L117.946,208 C119.814,110.254 111.867,45.92 98.105,0 L43.214,0 Z" fill="#69A1AC"></path>
                        <path d="M27.41,0 C29.914,65.574 23.431,130.177 3.331,209.021 L30.317,209.021 C59.679,143.018 80.724,78.734 95.106,0 L27.41,0 Z" fill="#89C5CC"></path>
                        <g transform="translate(0.000000, 218.000000)" fill="#191847">
                            <path d="M0,18 L0.939,2.856 C0.969513494,2.36354219 1.35464882,1.96694198 1.846,1.922 L22.826,0 L58.806,13.357 C59.7841907,13.7201199 60.3188621,14.7742238 60.034,15.778 L58.553,21 L1.985,21 L0,18 Z"></path>
                        </g>
                        <g transform="translate(94.000000, 218.000000)" fill="#191847">
                            <path d="M0,18 L0.939,2.856 C0.969513494,2.36354219 1.35464882,1.96694198 1.846,1.922 L22.826,0 L58.806,13.357 C59.7841907,13.7201199 60.3188621,14.7742238 60.034,15.778 L58.553,21 L1.985,21 L0,18 Z"></path>
                        </g>
                    </g>
                    <g transform="translate(25.929000, 50.776000)">
                        <path d="M132.713,120.921 L101.126,107.823 L108.178,90.393 L140.078,113.816 C147.669709,115.718748 154.965611,118.650567 161.763,122.53 C163.134,123.779 164.792,126.309 159.104,125.872 C153.416,125.435 147.417,125.23 146.633,127.172 C145.849,129.114 149.289,131.431 147.703,134.048 C147.560526,134.292257 147.293361,134.436264 147.011,134.421 C145.139667,134.419667 140.373667,129.919667 132.713,120.921 Z M111.526,23.565 L149.426,12.186 C155.515824,7.26818642 162.249534,3.20622533 169.44,0.113 C171.263,-0.23 174.281,-0.031 170.509,4.248 C166.737,8.527 162.963,13.196 164.04,14.99 C165.117,16.784 169.04,15.432 170.176,18.273 C170.932667,20.1676667 164.432667,21.5246667 150.676,22.344 L121.204,39.686 L111.526,23.565 Z" id="Shape" fill="#E9AFA3"></path>
                        <path d="M47.0474724,36.8825692 C72.2124539,63.6757436 102.90509,81.1598151 144.76805,96.6676525 L135.466948,115.255855 C92.2788313,111.183372 69.1890957,107.930987 51.0879511,81.0968077 C46.5444128,74.3620097 38.4214504,51.1842637 33.5548738,39.1538383 L47.0474724,36.8825692 Z" id="Path" fill="#2026A2" transform="translate(89.161462, 76.069212) rotate(15.008914) translate(-89.161462, -76.069212) "></path>
                        <path d="M10.071,135.224 L87.071,135.224 C87.071,135.224 60.908,55.432 60.341,25.696 C60.322,24.685 58.455,22.904 57.629,23.138 C48.571,25.696 38.243,21.224 38.243,21.224 C19.988,50.582 13.671,86.724 10.071,135.224 Z" id="Path" fill="#F2F2F2"></path>
                        <path d="M1.421,159.83 C-5.1,116.008 12.039,55.248 27.926,24.601 C28.7452417,22.5851103 30.691224,21.2550997 32.867,21.224 L44.8,21.224 L44.816,21.271 C48.835,21.304 53.31,21.464 58.191,21.624 C80.112,22.346 110.218,23.067 143.996,12.224 L148.074,32.597 C116.857,52.672 85.252,68.224 57.557,66.015 C69.582,117.6 69.028,159.83 42.478,159.83 L1.421,159.83 Z" id="Path" fill="#1F28CF"></path>
                    </g>
                </g>
                <g transform="translate(481.328000, 0.000000)">
                    <path d="M130.464,14.001 C130.464,14.001 25.618,19.675 20.78,141.25 C16.602,175.899 74.287,181.839 79.517,153.282 C84.747,124.725 85.393,89.051 135.239,76.031 C138.039,76.275 117.099,64.283 115.248,50.208 C113.057,33.562 130.464,14.001 130.464,14.001 Z" id="Path" fill="#3B3E45" fill-rule="nonzero"></path>
                    <path d="M120.671,0 C120.671,0 6.503,6.178 1.235,138.564 C-3.316,176.294 59.499,182.764 65.194,151.664 C70.889,120.564 62.543,97.936 111.33,69.764 C114.373,70.03 103.662,61.549 101.099,43.925 C98.37,25.171 120.671,0 120.671,0 Z" id="Path" fill="#0498B4" fill-rule="nonzero"></path>
                    <path d="M152.626886,140.525302 C152.626886,140.525302 59.9860403,140.261188 44.9902668,257.632204 C42.7542568,276.17658 65.1383676,289.892775 81.7418672,287.318613 C95.6581531,285.161638 105.820744,268.593155 105.820744,268.593155 C105.820744,268.593155 106.895229,246.624231 114.09348,232.797986 C122.743387,216.178479 139.151799,203.532767 153.548302,200.7265 C141.042653,191.93853 138.659577,188.305889 136.80774,174.224529 C134.61575,157.571007 152.626886,140.525302 152.626886,140.525302 Z" id="Path" fill="#3B3E45" fill-rule="nonzero" transform="translate(99.191644, 214.077445) rotate(-94.012171) translate(-99.191644, -214.077445) "></path>
                    <path d="M151.626886,157.525302 C151.626886,157.525302 58.9860403,157.261188 43.9902668,274.632204 C41.7542568,293.17658 64.1383676,306.892775 80.7418672,304.318613 C94.6581531,302.161638 104.820744,285.593155 104.820744,285.593155 C104.820744,285.593155 105.895229,263.624231 113.09348,249.797986 C121.743387,233.178479 138.151799,220.532767 152.548302,217.7265 C140.042653,208.93853 137.659577,205.305889 135.80774,191.224529 C133.61575,174.571007 151.626886,157.525302 151.626886,157.525302 Z" id="Path" fill="#0498B4" fill-rule="nonzero" transform="translate(98.191644, 231.077445) rotate(-94.012171) translate(-98.191644, -231.077445) "></path>
                    <path d="M143.756,15.244 C142.896,14.467 224.056,-3.625 300.762,102.565 C344.969,161.308 332.944,187.719 388.503,199.059 C350.884,228.444 384.269,260.219 384.269,260.219 C384.269,260.219 312.84,262.566 267.09,168.132 C225.018,93.367 171.483,68.742 143.756,72.432 C93.588,49.727 135.994,12.706 143.756,15.244 Z" id="Path" fill="#3B3E45" fill-rule="nonzero"></path>
                    <path d="M160.434,202.317 C160.434,202.317 206.801,202.699 250.183,126.796 C286.877,92.912 320.299,130.818 302.557,161.13 C290.715,173.998 251.943,241.546 164.832,264.887 C201.967,228.789 160.434,202.317 160.434,202.317 Z" id="Path" fill="#3B3E45" fill-rule="nonzero"></path>
                    <path d="M265.124,106.905 C265.124,106.905 312.193,14.705 396.273,12.02 C460.258,18.8 432.685,76.771 406.773,74.486 C387.511,71.159 350.503,82.028 318.905,138.166 C313.359,89.354 265.124,106.905 265.124,106.905 Z" id="Path" fill="#3B3E45" fill-rule="nonzero"></path>
                    <path d="M183.888,208.306 C183.888,208.306 221.263,208.5 266.006,130.215 C303.853,95.267 338.324,134.363 320.025,165.627 C307.811,178.899 267.825,248.568 177.976,272.641 C216.272,235.41 183.888,208.306 183.888,208.306 Z" id="Path" fill="#0498B4" fill-rule="nonzero"></path>
                    <path d="M427.411,14.001 C427.411,14.001 535.294,24.931 536.47,139.02 C533.916,192.207 478.003,170.485 474.91,147.49 C474.432,146.72 483.997,86.375 423.556,75.717 C463.798,45.077 427.411,14.001 427.411,14.001 Z" id="Path" fill="#3B3E45" fill-rule="nonzero"></path>
                    <path d="M472.545,154.75 C472.545,154.75 465.362,199.45 401.601,200.285 C361.025,204.5 370.85,263.529 407.678,261.596 C480.608,260.324 523.418,211.865 534.958,164.14 C493.016,198.545 472.545,154.75 472.545,154.75 Z" id="Path" fill="#3B3E45" fill-rule="nonzero"></path>
                    <g transform="translate(55.457982, 79.371290) rotate(-65.000000) translate(-55.457982, -79.371290) translate(34.957982, 70.871290)" fill="#FFFFFF" font-family="Helvetica" font-size="14" font-weight="normal" id="CODE">
                        <text>
                            <tspan x="0" y="14">CODE</tspan>
                        </text>
                    </g>
                    <g transform="translate(92.037533, 231.805860) rotate(30.000000) translate(-92.037533, -231.805860) translate(71.037533, 223.305860)" fill="#FFFFFF" font-family="Helvetica" font-size="14" font-weight="normal" id="BUILD">
                        <text>
                            <tspan x="0" y="14">BUILD</tspan>
                        </text>
                    </g>
                    <g transform="translate(247.516000, 197.498500) rotate(-35.024873) translate(-247.516000, -197.498500) translate(229.513867, 188.997493)" fill="#FFFFFF" font-family="Helvetica" font-size="14" font-weight="normal" id="TEST">
                        <text>
                            <tspan x="0" y="14">TEST</tspan>
                        </text>
                    </g>
                    <g transform="translate(198.603238, 51.399711) rotate(22.000000) translate(-198.603238, -51.399711) translate(180.103238, 42.899711)" fill="#FFFFFF" font-family="Helvetica" font-size="14" font-weight="normal" id="PLAN">
                        <text>
                            <tspan x="0" y="14">PLAN</tspan>
                        </text>
                    </g>
                    <g transform="translate(359.969826, 58.055860) rotate(-30.000000) translate(-359.969826, -58.055860) translate(327.469826, 49.555860)" fill="#FFFFFF" font-family="Helvetica" font-size="14" font-weight="normal" id="RELEASE">
                        <text>
                            <tspan x="0" y="14">RELEASE</tspan>
                        </text>
                    </g>
                    <g transform="translate(499.074500, 93.810500) rotate(53.989475) translate(-499.074500, -93.810500) translate(470.571294, 85.309544)" fill="#FFFFFF" font-family="Helvetica" font-size="14" font-weight="normal" id="DEPLOY">
                        <text>
                            <tspan x="0" y="14">DEPLOY</tspan>
                        </text>
                    </g>
                    <g transform="translate(444.655731, 222.275471) rotate(-22.000000) translate(-444.655731, -222.275471) translate(411.655731, 213.775471)" fill="#FFFFFF" font-family="Helvetica" font-size="14" font-weight="normal" id="OPERATE">
                        <text>
                            <tspan x="0" y="14">OPERATE</tspan>
                        </text>
                    </g>
                    <g transform="translate(334.863607, 203.268561) rotate(48.000000) translate(-334.863607, -203.268561) translate(301.863607, 194.768561)" fill="#FFFFFF" font-family="Helvetica" font-size="14" font-weight="normal" id="MONITOR">
                        <text>
                            <tspan x="0" y="14">MONITOR</tspan>
                        </text>
                    </g>
                    <g transform="translate(123.988000, 118.489000)" fill="#FFFFFF" font-family="Helvetica" font-size="32" font-weight="normal" id="DEV">
                        <text>
                            <tspan x="0" y="31">DEV</tspan>
                        </text>
                    </g>
                    <g transform="translate(374.988000, 118.489000)" fill="#FFFFFF" font-family="Helvetica" font-size="32" font-weight="normal" id="OPS">
                        <text>
                            <tspan x="0" y="31">OPS</tspan>
                        </text>
                    </g>
                </g>
                <g transform="translate(303.316000, 40.489000)">
                    <g transform="translate(0.000000, 0.510000)" fill="#FFFFFF" fill-rule="nonzero" id="Rectangle">
                        <rect x="0" y="0.49" width="209" height="131"></rect>
                    </g>
                    <rect id="Rectangle" fill="#E9EBE9" fill-rule="nonzero" x="59" y="42" width="47" height="7"></rect>
                    <rect id="Rectangle" fill="#E9EBE9" fill-rule="nonzero" x="59" y="78" width="47" height="7"></rect>
                    <rect id="Rectangle" fill="#E9EBE9" fill-rule="nonzero" x="59" y="92" width="47" height="7"></rect>
                    <g transform="translate(111.000000, 42.000000)" fill="#E9EBE9" fill-rule="nonzero" id="Rectangle">
                        <g>
                            <rect x="0" y="0" width="70" height="8"></rect>
                        </g>
                        <g transform="translate(0.000000, 12.000000)">
                            <rect x="0" y="0" width="70" height="8"></rect>
                        </g>
                        <g transform="translate(0.000000, 24.000000)">
                            <rect x="0" y="0" width="70" height="8"></rect>
                        </g>
                    </g>
                    <g transform="translate(111.000000, 78.000000)" fill="#E9EBE9" fill-rule="nonzero" id="Rectangle">
                        <g>
                            <rect x="0" y="0" width="70" height="8"></rect>
                        </g>
                    </g>
                    <g transform="translate(111.000000, 92.000000)" fill="#E9EBE9" fill-rule="nonzero" id="Rectangle">
                        <g>
                            <rect x="0" y="0" width="70" height="8"></rect>
                        </g>
                        <g transform="translate(0.000000, 12.000000)">
                            <rect x="0" y="0" width="70" height="8"></rect>
                        </g>
                    </g>
                    <rect id="Rectangle" fill="#E9EBE9" fill-rule="nonzero" x="178" y="42" width="19" height="7"></rect>
                    <rect id="Rectangle" fill="#E9EBE9" fill-rule="nonzero" x="178" y="78" width="19" height="7"></rect>
                    <rect id="Rectangle" fill="#E9EBE9" fill-rule="nonzero" x="178" y="92" width="19" height="7"></rect>
                    <rect id="Rectangle" fill="#F6F6F6" fill-rule="nonzero" x="0" y="1" width="209" height="4"></rect>
                    <g transform="translate(3.000000, 2.000000)" fill="#6D7275" fill-rule="nonzero" id="Oval">
                        <g>
                            <circle cx="1" cy="1" r="1"></circle>
                        </g>
                        <g transform="translate(4.000000, 0.000000)">
                            <circle cx="1" cy="1" r="1"></circle>
                        </g>
                        <g transform="translate(8.000000, 0.000000)">
                            <circle cx="1" cy="1" r="1"></circle>
                        </g>
                    </g>
                    <g transform="translate(33.000000, 41.000000)" fill="#E9EBE9" fill-rule="nonzero" id="Rectangle">
                        <g>
                            <rect x="0" y="0" width="15" height="8"></rect>
                        </g>
                        <g transform="translate(0.000000, 13.000000)">
                            <rect x="0" y="0" width="15" height="8"></rect>
                        </g>
                        <g transform="translate(0.000000, 26.000000)">
                            <rect x="0" y="0" width="15" height="8"></rect>
                        </g>
                        <g transform="translate(0.000000, 39.000000)">
                            <rect x="0" y="0" width="15" height="8"></rect>
                        </g>
                        <g transform="translate(0.000000, 52.000000)">
                            <rect x="0" y="0" width="15" height="8"></rect>
                        </g>
                    </g>
                    <rect id="Rectangle" fill="#CFD3DA" fill-rule="nonzero" x="26" y="5" width="183" height="20"></rect>
                    <path d="M53.3,25.259 L53.3,132" id="Path" stroke="#F6F6F6"></path>
                    <g transform="translate(0.000000, 4.500000)">
                        <rect id="Rectangle" fill="#FFFFFF" fill-rule="nonzero" x="0" y="0.5" width="26" height="127"></rect>
                        <g transform="translate(7.000000, 23.500000)" fill-rule="nonzero" id="Rectangle">
                            <rect fill="#E6F7FF" x="0" y="0" width="11" height="5"></rect>
                            <rect fill="#3290FF" x="0" y="6" width="11" height="1"></rect>
                        </g>
                        <g transform="translate(7.000000, 33.500000)" fill-rule="nonzero" id="Rectangle">
                            <rect fill="#E9EBE9" x="0" y="0" width="11" height="4"></rect>
                            <rect fill="#CFD3DA" x="0" y="5" width="11" height="1"></rect>
                        </g>
                        <g transform="translate(7.000000, 43.500000)" fill-rule="nonzero" id="Rectangle">
                            <rect fill="#E9EBE9" x="0" y="0" width="11" height="4"></rect>
                            <rect fill="#CFD3DA" x="0" y="5" width="11" height="1"></rect>
                        </g>
                        <g transform="translate(7.000000, 52.500000)" fill-rule="nonzero" id="Rectangle">
                            <rect fill="#E9EBE9" x="0" y="0" width="11" height="5"></rect>
                            <rect fill="#CFD3DA" x="0" y="6" width="11" height="1"></rect>
                        </g>
                        <g transform="translate(8.533000, 5.500000)" fill-rule="nonzero">
                            <g transform="translate(0.457000, 2.354000)" fill="#031A6B" id="Path">
                                <path d="M3.838,3.302 C3.82751111,3.30475415 3.81648889,3.30475415 3.806,3.302 L0.032,1.119 C0.00162433876,1.09994618 -0.00755382387,1.05987566 0.0115,1.0295 C0.0305538239,0.999124339 0.0706243388,0.989946176 0.101,1.009 L3.87,3.188 C3.89464729,3.20266152 3.90653235,3.23192918 3.89908508,3.25962372 C3.89163781,3.28731826 3.86667656,3.30667766 3.838,3.307 L3.838,3.302 Z"></path>
                            </g>
                            <g transform="translate(4.231000, 3.354000)" fill="#031A6B" id="Path">
                                <path d="M0.064,2.302 C0.0353234364,2.30167766 0.0103621912,2.28231826 0.00291492084,2.25462372 C-0.00453234954,2.22692918 0.00735270982,2.19766152 0.032,2.183 L3.806,0.009 C3.8366518,-0.00867311042 3.87582689,0.00184819834 3.8935,0.0325000012 C3.91117311,0.063151804 3.9006518,0.102326887 3.87,0.12 L0.101,2.302 C0.0889446661,2.30570333 0.0760553339,2.30570333 0.064,2.302 Z"></path>
                            </g>
                            <g transform="translate(3.231000, 7.988000)" fill="#031A6B" id="Path">
                                <path d="M1.064,1.6 C1.02865378,1.6 1,1.57134622 1,1.536 L1,0.064 C1,0.028653776 1.02865378,-5.68434189e-17 1.064,-5.68434189e-17 C1.09934622,-5.68434189e-17 1.128,0.028653776 1.128,0.064 L1.128,1.541 C1.128,1.57634622 1.09934622,1.605 1.064,1.605 L1.064,1.6 Z"></path>
                            </g>
                            <polygon id="Path" fill="#031A6B" points="6.485 4.307 4.294 3.039 2.104 4.303 4.294 5.567"></polygon>
                            <polygon id="Path" fill="#1D84B5" points="4.295 8.122 6.503 6.857 6.503 4.33 4.295 5.595"></polygon>
                            <polygon id="Path" fill="#75D3FF" points="2.086 4.322 2.086 6.852 4.294 8.117 4.294 5.587"></polygon>
                            <g transform="translate(0.304000, 0.000000)" id="Shape">
                                <path d="M3.991,9.66400261 C3.96716495,9.66400261 3.94374848,9.65773094 3.923,9.646 L0.113,7.469 C0.0696075333,7.44418699 0.0428795504,7.39798577 0.0429995946,7.348 L0.0429995946,3.357 C0.0432376955,3.30737182 0.0699173405,3.26163529 0.113,3.237 L3.923,1.06 C3.9657519,1.0355531 4.0182481,1.0355531 4.061,1.06 L7.869,3.237 C7.91239247,3.26181301 7.93912045,3.30801423 7.93900041,3.358 L7.93900041,7.348 C7.93912045,7.39798577 7.91239247,7.44418699 7.869,7.469 L4.06,9.646 C4.03897417,9.65794144 4.01517977,9.66414867 3.991,9.66400261 L3.991,9.66400261 Z M0.323,3.438 L0.323,7.268 L3.994,9.368 L7.665,7.268 L7.665,3.438 L3.994,1.338 L0.323,3.438 Z" fill="#031A6B"></path>
                                <path d="M3.991,1.089 C4.0078394,1.08922239 4.02434991,1.09369399 4.039,1.102 L7.849,3.279 C7.87876487,3.29663805 7.89729777,3.32840875 7.898,3.363 L7.898,7.349 C7.89729777,7.38359125 7.87876487,7.41536195 7.849,7.433 L4.039,9.609 C4.00805989,9.62686328 3.96994011,9.62686328 3.939,9.609 L0.134,7.432 C0.104531396,7.41454943 0.0860428205,7.38323205 0.085,7.349 L0.085,3.358 C0.0857022261,3.32340875 0.104235135,3.29163805 0.134,3.274 L3.943,1.097 C3.95809719,1.09042166 3.97458535,1.08767363 3.991,1.089 L3.991,1.089 Z M3.991,9.419 L4.033,9.389 L7.661,7.317 L7.703,7.289 L7.703,3.413 L7.661,3.389 L4.033,1.316 L3.991,1.289 L3.949,1.316 L0.321,3.389 L0.278,3.413 L0.278,7.289 L0.321,7.313 L3.949,9.389 L3.991,9.413 L3.991,9.419 Z M3.991,0.998 C3.95992748,0.999008428 3.92963125,1.00795959 3.903,1.024 L0.092,3.201 C0.0366483301,3.23390387 0.00280377115,3.29360719 0.00299915133,3.358 L0.00299915133,7.349 C0.00342577185,7.41400848 0.0384942852,7.47385366 0.095,7.506 L3.903,9.683 C3.95880054,9.71474699 4.02719946,9.71474699 4.083,9.683 L7.891,7.507 C7.94750571,7.47485366 7.98257423,7.41500848 7.983,7.35 L7.983,3.358 C7.98257423,3.29299152 7.94750571,3.23314634 7.891,3.201 L4.081,1.024 C4.0536074,1.00828561 4.02258,1.00001163 3.991,1 L3.991,0.998 Z M3.991,9.315 L0.363,7.244 L0.363,3.463 L3.991,1.389 L7.619,3.463 L7.619,7.243 L3.991,9.316 L3.991,9.315 Z" fill="#FFFFFF"></path>
                            </g>
                            <circle id="Oval" fill="#031A6B" cx="0.529" cy="3.422" r="1"></circle>
                            <circle id="Oval" fill="#031A6B" cx="8.06" cy="3.422" r="1"></circle>
                            <circle id="Oval" fill="#031A6B" cx="4.294" cy="9.47" r="1"></circle>
                        </g>
                        <path d="M25.5,0 L25.5,128" id="Path" stroke="#E9EBE9"></path>
                    </g>
                </g>
                <g transform="translate(558.316000, 250.998000)">
                    <g fill="#FFFFFF" fill-rule="nonzero" id="Rectangle">
                        <rect x="0" y="0" width="248" height="155"></rect>
                    </g>
                    <rect id="Rectangle" fill="#E9EBE9" fill-rule="nonzero" x="51" y="91" width="56" height="8"></rect>
                    <rect id="Rectangle" fill="#E9EBE9" fill-rule="nonzero" x="51" y="108" width="56" height="8"></rect>
                    <g transform="translate(112.000000, 91.000000)" fill="#E9EBE9" fill-rule="nonzero" id="Rectangle">
                        <g>
                            <rect x="0" y="0" width="70" height="8"></rect>
                        </g>
                    </g>
                    <g transform="translate(112.000000, 108.000000)" fill="#E9EBE9" fill-rule="nonzero" id="Rectangle">
                        <g>
                            <rect x="0" y="0" width="70" height="8"></rect>
                        </g>
                        <g transform="translate(0.000000, 12.000000)">
                            <rect x="0" y="0" width="70" height="8"></rect>
                        </g>
                        <g transform="translate(0.000000, 24.000000)">
                            <rect x="0" y="0" width="70" height="8"></rect>
                        </g>
                    </g>
                    <rect id="Rectangle" fill="#E9EBE9" fill-rule="nonzero" x="192" y="91" width="22" height="8"></rect>
                    <rect id="Rectangle" fill="#E9EBE9" fill-rule="nonzero" x="192" y="108" width="22" height="8"></rect>
                    <rect id="Rectangle" fill="#F6F6F6" fill-rule="nonzero" x="0" y="0" width="248" height="5"></rect>
                    <g transform="translate(4.000000, 1.000000)" fill="#6D7275" fill-rule="nonzero" id="Oval">
                        <g>
                            <circle cx="1" cy="1" r="1"></circle>
                        </g>
                        <g transform="translate(4.000000, 0.000000)">
                            <circle cx="1" cy="1" r="1"></circle>
                        </g>
                        <g transform="translate(8.000000, 0.000000)">
                            <circle cx="1" cy="1" r="1"></circle>
                        </g>
                    </g>
                    <rect id="Rectangle" fill="#CFD3DA" fill-rule="nonzero" x="31" y="5" width="217" height="23"></rect>
                    <rect id="Rectangle" fill="#F6F6F6" fill-rule="nonzero" x="51" y="40" width="50" height="42"></rect>
                    <rect id="Rectangle" fill="#F6F6F6" fill-rule="nonzero" x="107" y="40" width="50" height="42"></rect>
                    <rect id="Rectangle" fill="#F6F6F6" fill-rule="nonzero" x="163" y="40" width="50" height="42"></rect>
                    <rect id="Rectangle" fill="#CFD3DA" fill-rule="nonzero" x="55" y="46" width="42" height="5"></rect>
                    <rect id="Rectangle" fill="#CFD3DA" fill-rule="nonzero" x="111" y="46" width="42" height="5"></rect>
                    <rect id="Rectangle" fill="#CFD3DA" fill-rule="nonzero" x="167" y="46" width="42" height="5"></rect>
                    <circle id="Oval" fill="#3290FF" fill-rule="nonzero" cx="75.5" cy="67.5" r="10.5"></circle>
                    <path d="M76.813,55 L73.924,68.755 L87.553,68.755 C87.553,68.755 88.6,56.513 76.813,55 Z" id="Path" fill="#E6F7FF" fill-rule="nonzero"></path>
                    <rect id="Rectangle" fill="#CFD3DA" fill-rule="nonzero" x="112" y="57" width="35" height="3"></rect>
                    <rect id="Rectangle" fill="#CFD3DA" fill-rule="nonzero" x="168" y="57" width="15" height="3"></rect>
                    <rect id="Rectangle" fill="#3290FF" fill-rule="nonzero" x="194" y="57" width="15" height="3"></rect>
                    <rect id="Rectangle" fill="#3290FF" fill-rule="nonzero" x="112" y="66" width="35" height="3"></rect>
                    <rect id="Rectangle" fill="#3290FF" fill-rule="nonzero" x="168" y="66" width="15" height="3"></rect>
                    <rect id="Rectangle" fill="#CFD3DA" fill-rule="nonzero" x="194" y="66" width="15" height="3"></rect>
                    <polyline id="Path" stroke="#62C370" stroke-linecap="round" stroke-linejoin="round" points="205.091 93 201.591 96.5 200 94.909"></polyline>
                    <path d="M205.163,113.081 L205.163,113.081 L203.747,111.663 L205.163,110.245 L205.163,110.245 C205.190541,110.217599 205.206025,110.18035 205.206025,110.1415 C205.206025,110.10265 205.190541,110.065401 205.163,110.038 L204.493,109.368 C204.465599,109.340459 204.42835,109.324975 204.3895,109.324975 C204.35065,109.324975 204.313401,109.340459 204.286,109.368 L204.286,109.368 L202.871,110.787 L201.453,109.369 L201.453,109.369 C201.425599,109.341459 201.38835,109.325975 201.3495,109.325975 C201.31065,109.325975 201.273401,109.341459 201.246,109.369 L200.576,110.039 C200.548459,110.066401 200.532975,110.10365 200.532975,110.1425 C200.532975,110.18135 200.548459,110.218599 200.576,110.246 L200.576,110.246 L201.994,111.663 L200.576,113.081 L200.576,113.081 C200.548459,113.108401 200.532975,113.14565 200.532975,113.1845 C200.532975,113.22335 200.548459,113.260599 200.576,113.288 L201.246,113.958 C201.273401,113.985541 201.31065,114.001025 201.3495,114.001025 C201.38835,114.001025 201.425599,113.985541 201.453,113.958 L201.453,113.958 L202.871,112.54 L204.289,113.958 L204.289,113.958 C204.316401,113.985541 204.35365,114.001025 204.3925,114.001025 C204.43135,114.001025 204.468599,113.985541 204.496,113.958 L205.166,113.288 C205.193541,113.260599 205.209025,113.22335 205.209025,113.1845 C205.209025,113.14565 205.193541,113.108401 205.166,113.081 L205.163,113.081 Z" id="Path" fill="#C3423F" fill-rule="nonzero"></path>
                    <g transform="translate(0.000000, 5.000000)">
                        <rect id="Rectangle" fill="#FFFFFF" fill-rule="nonzero" x="0" y="0" width="31" height="150"></rect>
                        <g transform="translate(10.000000, 34.000000)" fill-rule="nonzero" id="Rectangle">
                            <rect fill="#E9E9E9" x="0" y="0" width="11" height="5"></rect>
                            <rect fill="#CFD3DA" x="0" y="6" width="11" height="1"></rect>
                        </g>
                        <g transform="translate(10.000000, 44.000000)" fill-rule="nonzero" id="Rectangle">
                            <rect fill="#E9EBE9" x="0" y="0" width="11" height="4"></rect>
                            <rect fill="#CFD3DA" x="0" y="5" width="11" height="1"></rect>
                        </g>
                        <g transform="translate(10.000000, 54.000000)" fill-rule="nonzero" id="Rectangle">
                            <rect fill="#E6F7FF" x="0" y="0" width="11" height="4"></rect>
                            <rect fill="#3290FF" x="0" y="5" width="11" height="1"></rect>
                        </g>
                        <g transform="translate(10.000000, 63.000000)" fill-rule="nonzero" id="Rectangle">
                            <rect fill="#E9EBE9" x="0" y="0" width="11" height="5"></rect>
                            <rect fill="#CFD3DA" x="0" y="6" width="11" height="1"></rect>
                        </g>
                        <g transform="translate(8.533000, 7.000000)" fill-rule="nonzero">
                            <g transform="translate(0.642000, 3.304000)" fill="#031A6B" id="Path">
                                <path d="M5.387,3.2380272 C5.37120077,3.23806513 5.35566898,3.23392332 5.342,3.226 L0.045,0.167 C0.00716213165,0.14004927 -0.00400638837,0.0886780059 0.019339446,0.0484712912 C0.0426852803,0.00826457653 0.0928134634,-0.00754236455 0.135,0.012 L5.435,3.071 C5.47098928,3.09074632 5.48880418,3.13254627 5.47812362,3.17218301 C5.46744306,3.21181975 5.43103811,3.23900956 5.39,3.2380272 L5.387,3.2380272 Z"></path>
                            </g>
                            <g transform="translate(4.939000, 3.304000)" fill="#031A6B" id="Path">
                                <path d="M1.09,3.2380272 C1.04896189,3.23900956 1.01255694,3.21181975 1.00187638,3.17218301 C0.991195823,3.13254627 1.00901072,3.09074632 1.045,3.071 L6.343,0.012 C6.38494048,-0.00585964437 6.4336111,0.0104583484 6.45630983,0.0499898405 C6.47900856,0.0895213326 6.46856662,0.139781373 6.432,0.167 L1.135,3.226 C1.12133102,3.23392332 1.10579923,3.23806513 1.09,3.2380272 Z"></path>
                            </g>
                            <g transform="translate(4.939000, 9.809000)" fill="#031A6B" id="Path">
                                <path d="M1.089,2.252 C1.03984666,2.252 1,2.21215334 1,2.163 L1,0.089 C1,0.0395705149 1.04007051,-0.0005 1.0895,-0.0005 C1.13892949,-0.0005 1.179,0.0395705149 1.179,0.089 L1.179,2.163 C1.179,2.21215334 1.13915334,2.252 1.09,2.252 L1.089,2.252 Z"></path>
                            </g>
                            <polygon id="Path" fill="#031A6B" points="9.103 4.642 6.029 2.863 2.955 4.638 6.029 6.413"></polygon>
                            <polygon id="Path" fill="#1D84B5" points="6.029 9.997 9.129 8.222 9.129 4.673 6.029 6.448"></polygon>
                            <polygon id="Path" fill="#75D3FF" points="2.928 4.663 2.928 8.214 6.028 9.989 6.028 6.438"></polygon>
                            <g transform="translate(0.426000, 0.000000)" id="Shape">
                                <path d="M5.602,12.161 C5.56696472,12.161242 5.53248058,12.1522761 5.502,12.135 L0.158,9.08 C0.0974021102,9.04503467 0.0594800154,8.98094633 0.058,8.911 L0.058,3.311 C0.0594800154,3.24105367 0.0974021102,3.17696533 0.158,3.142 L5.505,0.084 C5.56507722,0.050905592 5.63792278,0.050905592 5.698,0.084 L11.046,3.138 C11.1065979,3.17296533 11.14452,3.23705367 11.146,3.307 L11.146,8.907 C11.14452,8.97694633 11.1065979,9.04103467 11.046,9.076 L5.699,12.138 C5.66862994,12.1555472 5.63407081,12.1645326 5.599,12.1640224 L5.602,12.161 Z M0.45,3.422 L0.45,8.798 L5.602,11.738 L10.754,8.798 L10.754,3.422 L5.602,0.477 L0.45,3.422 Z" fill="#031A6B"></path>
                                <path d="M5.603,0.118998447 C5.62652002,0.118998447 5.64961599,0.125265974 5.67,0.137 L11.017,3.189 C11.0589885,3.21300343 11.085,3.25763483 11.085,3.306 L11.085,8.906 C11.085,8.95436517 11.0589885,8.99899657 11.017,9.023 L5.669,12.089 C5.62748573,12.1127324 5.57651427,12.1127324 5.535,12.089 L0.188,9.029 C0.146011542,9.00499657 0.120071927,8.96036517 0.12,8.912 L0.12,3.312 C0.117854822,3.26150343 0.144095694,3.21403832 0.188,3.189 L5.535,0.137 C5.55567779,0.125096409 5.57914097,0.118998447 5.603,0.118998447 L5.603,0.118998447 Z M5.603,11.811 L5.662,11.777 L10.754,8.867 L10.814,8.833 L10.814,3.389 L10.754,3.355 L5.661,0.443 L5.603,0.41 L5.543,0.443 L0.45,3.355 L0.39,3.389 L0.39,8.834 L0.45,8.868 L5.543,11.778 L5.602,11.812 L5.603,11.811 Z M5.603,0 C5.5587618,0.000211900451 5.51533971,0.0119289717 5.477,0.034 L0.129,3.089 C0.0506291622,3.1349604 0.00263119402,3.21914731 0.00299788984,3.31 L0.00299788984,8.91 C0.00299788984,9.00126443 0.051859623,9.08554674 0.131,9.131 L5.476,12.189 C5.55438744,12.2337856 5.65061256,12.2337856 5.729,12.189 L11.076,9.134 C11.1551404,9.08854674 11.204,9.00426443 11.204,8.913 L11.204,3.313 C11.204,3.22173557 11.1551404,3.13745326 11.076,3.092 L5.729,0.034 C5.69066029,0.0119289717 5.6472382,0.000211900451 5.603,0 Z M5.603,11.674 L0.51,8.765 L0.51,3.457 L5.603,0.547 L10.696,3.457 L10.696,8.763 L5.603,11.673 L5.603,11.674 Z" fill="#FFFFFF"></path>
                            </g>
                            <circle id="Oval" fill="#031A6B" cx="0.743" cy="3.4" r="1"></circle>
                            <circle id="Oval" fill="#031A6B" cx="11.314" cy="3.4" r="1"></circle>
                            <circle id="Oval" fill="#031A6B" cx="6.028" cy="11.89" r="1"></circle>
                        </g>
                        <path d="M31.5,22.5 L31.5,150.5" id="Path" stroke="#E9EBE9"></path>
                    </g>
                </g>
            </g>
        </g>
    </g>
</svg>