<svg width="100%" height="100%" viewBox="0 0 1598 649" version="1.1" xmlns="http://www.w3.org/2000/svg" xmlns:xlink="http://www.w3.org/1999/xlink">
    <g id="Page-1" stroke="none" stroke-width="1" fill="none" fill-rule="evenodd">
        <g id="pattern---features-page">
            <g id="Polygon_1" transform="translate(289.500000, 293.000000) rotate(90.000000) translate(-289.500000, -293.000000) translate(129.500000, 146.500000)">
                <polygon id="Path" points="240 0 320 146.5 240 293 80 293 0 146.5 80 0"></polygon>
                <path d="M97.7992859,30 L34.1815491,146.5 L97.7992859,263 L222.200714,263 L285.818451,146.5 L222.200714,30 L97.7992859,30 L97.7992859,30 Z M80,0 L240,0 L320,146.5 L240,293 L80,293 L0,146.5 L80,0 Z" id="Shape" fill="#B3B3B3" fill-rule="nonzero"></path>
            </g>
            <g id="Polygon_3" transform="translate(565.500000, 453.000000) rotate(90.000000) translate(-565.500000, -453.000000) translate(405.500000, 307.500000)">
                <polygon id="Path" points="240 0 320 145.5 240 291 80 291 0 145.5 80 0"></polygon>
                <path d="M97.7407684,30 L34.2356262,145.5 L97.7407684,261 L222.259232,261 L285.764374,145.5 L222.259232,30 L97.7407684,30 L97.7407684,30 Z M80,0 L240,0 L320,145.5 L240,291 L80,291 L0,145.5 L80,0 Z" id="Shape" fill="#B3B3B3" fill-rule="nonzero"></path>
            </g>
            <g id="Polygon_4" transform="translate(834.500000, 160.000000) rotate(90.000000) translate(-834.500000, -160.000000) translate(674.500000, 13.500000)">
                <polygon id="Path" points="240 0 320 146.5 240 293 80 293 0 146.5 80 0"></polygon>
                <path d="M97.7992859,30 L34.1815491,146.5 L97.7992859,263 L222.200714,263 L285.818451,146.5 L222.200714,30 L97.7992859,30 L97.7992859,30 Z M80,0 L240,0 L320,146.5 L240,293 L80,293 L0,146.5 L80,0 Z" id="Shape" fill="#B3B3B3" fill-rule="nonzero"></path>
            </g>
            <g id="Polygon_5" transform="translate(1160.500000, 290.000000) rotate(90.000000) translate(-1160.500000, -290.000000) translate(1000.500000, 144.500000)">
                <polygon id="Path" points="240 0 320 145.5 240 291 80 291 0 145.5 80 0"></polygon>
                <path d="M97.7407684,30 L34.2356262,145.5 L97.7407684,261 L222.259232,261 L285.764374,145.5 L222.259232,30 L97.7407684,30 L97.7407684,30 Z M80,0 L240,0 L320,145.5 L240,291 L80,291 L0,145.5 L80,0 Z" id="Shape" fill="#B3B3B3" fill-rule="nonzero"></path>
            </g>
            <g id="Polygon_6" transform="translate(1451.500000, 198.000000) rotate(90.000000) translate(-1451.500000, -198.000000) translate(1291.500000, 51.500000)">
                <polygon id="Path" points="240 0 320 146.5 240 293 80 293 0 146.5 80 0"></polygon>
                <path d="M97.7992859,30 L34.1815491,146.5 L97.7992859,263 L222.200714,263 L285.818451,146.5 L222.200714,30 L97.7992859,30 L97.7992859,30 Z M80,0 L240,0 L320,146.5 L240,293 L80,293 L0,146.5 L80,0 Z" id="Shape" fill="#B3B3B3" fill-rule="nonzero"></path>
            </g>
            <g id="Path_316" transform="translate(1411.000000, 198.000000) rotate(90.000000) translate(-1411.000000, -198.000000) translate(1251.000000, 92.000000)">
                <polygon id="Path" points="284.573 0.043 320 65.5 240 212 80 212 0 65.5 35.983 0.043"></polygon>
            </g>
            <g id="Polygon_9" transform="translate(1372.500000, 480.000000) rotate(90.000000) translate(-1372.500000, -480.000000) translate(1212.500000, 334.500000)">
                <polygon id="Path" points="240 0 320 145.5 240 291 80 291 0 145.5 80 0"></polygon>
                <path d="M97.7407684,30 L34.2356262,145.5 L97.7407684,261 L222.259232,261 L285.764374,145.5 L222.259232,30 L97.7407684,30 L97.7407684,30 Z M80,0 L240,0 L320,145.5 L240,291 L80,291 L0,145.5 L80,0 Z" id="Shape" fill="#B3B3B3" fill-rule="nonzero"></path>
            </g>
            <g id="Polygon_2" transform="translate(146.500000, 489.000000) rotate(90.000000) translate(-146.500000, -489.000000) translate(-13.500000, 342.500000)">
                <polygon id="Path" points="240 0 320 146.5 240 293 80 293 0 146.5 80 0"></polygon>
                <path d="M97.7992859,30 L34.1815491,146.5 L97.7992859,263 L222.200714,263 L285.818451,146.5 L222.200714,30 L97.7992859,30 L97.7992859,30 Z M80,0 L240,0 L320,146.5 L240,293 L80,293 L0,146.5 L80,0 Z" id="Shape" fill="#B3B3B3" fill-rule="nonzero"></path>
            </g>
            <g id="Path_315" transform="translate(185.521000, 489.000000) rotate(90.000000) translate(-185.521000, -489.000000) translate(25.521000, 381.000000)">
                <polygon id="Path" points="240 0 320 146.5 283.95 215.521 37.065 215.521 0 146.5 80 0"></polygon>
            </g>
        </g>
    </g>
</svg>