<?xml version="1.0" encoding="UTF-8"?>
<svg width="724px" height="375px" viewBox="0 0 724 375" version="1.1" xmlns="http://www.w3.org/2000/svg" xmlns:xlink="http://www.w3.org/1999/xlink">
    <title>EBFA5A32-6224-48CA-B327-DCE001A2401F</title>
    <g id="HFW-0.4" stroke="none" stroke-width="1" fill="none" fill-rule="evenodd">
        <g id="Analyze/CodeRepo/#1" transform="translate(-521.000000, -319.000000)">
            <g id="detailed_analysis" transform="translate(521.000000, 319.000000)">
                <path d="M510,153 L595,153 C607,162.333333 607,171.333333 595,180 C592.333333,181.333333 573,181 537,179 L660,180 C672,186.666667 672,194.333333 660,203 C659.333333,203 630,202.666667 572,202 C559.333333,204.666667 553,212.333333 553,225 C553,244 724,243 724,293 C724,326.333333 658,346 526,352 L359,340 L199,340 C185.666667,340 183.333333,334 192,322 C197.333333,319.333333 231,319.333333 293,322 L99,322 C83,313.333333 83,303.666667 99,293 C101.666667,291 153,291 253,293 C271.666667,269 268.666667,255.666667 244,253 C240.666667,249 220.666667,248 184,250 C164,236 166.666667,224.666667 192,216 C217.333333,207.333333 244.333333,188 273,158 C293,145.333333 327.333333,139 376,139 C378,138.333333 421.666667,121.666667 507,89 C537.666667,92.3333333 553,99.6666667 553,111 C553,122.333333 538.666667,136.333333 510,153 Z" id="Path-2" fill="#F2F2F2"></path>
                <polygon id="Path" fill="#2F2E41" fill-rule="nonzero" points="510 341.455384 509.955995 343.64245 509.833507 350.140593 476.167449 364.506949 453.432766 374.207774 452.473277 371.024459 451.454812 375 399.974007 355.608258 399.17602 336.886687 399.17602 336.882183 399 332.721534 499.851641 326 501.829596 329.008566 502.221104 329.606226"></polygon>
                <path d="M438.939439,143 C438.939439,143 432.396465,167 431.087871,167 C429.779276,167 443.519519,185.66667 443.519519,185.66667 L463.802731,197 L471,166.333332 C471,166.333332 464.457031,149.666667 465.765625,141 L438.939439,143 Z" id="Path" fill="#DFA9A9" fill-rule="nonzero"></path>
                <circle id="Oval" fill="#DFA9A9" fill-rule="nonzero" cx="449" cy="128" r="25"></circle>
                <path d="M452.349391,178.678411 L432.403377,161.514697 L420.638556,167.313295 L395,183.358176 C395,183.358176 401.74699,327.762107 398.373493,333.110402 C398.373493,333.110402 405.795179,349.823822 449.650604,339.795771 C493.50603,329.76772 504.975905,328.430646 504.975905,328.430646 L495.53012,240.183804 L507,184.695254 L468.472514,158 L456.397589,178.678425 L452.349391,178.678411 Z" id="Path" fill="#35A9C1" fill-rule="nonzero"></path>
                <path d="M378.480402,235 C378.480402,235 368.244227,266.392693 375.750758,269.732339 C383.257289,273.071986 389.398996,271.736126 389.398996,271.736126 L401,244.351012 L378.480402,235 Z" id="Path" fill="#DFA9A9" fill-rule="nonzero"></path>
                <path d="M517.991801,229 L524,257.27821 L524,314.507915 C524,314.507915 515.32149,350.865611 508.645693,341.439544 C501.969897,332.013477 502.107783,329.028556 502.107783,329.028556 L510.648429,315.854497 L506.642962,261.991244 L496,236.296897 L517.991801,229 Z" id="Path" fill="#DFA9A9" fill-rule="nonzero"></path>
                <path d="M472.090979,103.052425 C472.090979,103.052425 464.113903,85.5700434 448.8245,89.6044401 C433.535098,93.6388368 424.893262,99.6904296 424.228508,105.742022 C423.563753,111.793615 424.560896,120.871016 424.560896,120.871016 C424.560896,120.871016 426.222785,108.431629 436.858892,111.121227 C447.495,113.810825 464.113912,111.793624 464.113912,111.793624 L466.772939,136 C466.772939,136 469.764341,131.629402 473.088127,134.319 C476.411913,137.008598 482.727087,108.431598 472.090979,103.052425 Z" id="Path" fill="#2F2E41" fill-rule="nonzero"></path>
                <polygon id="Path" fill="#3F3D56" fill-rule="nonzero" points="496 236.351266 498.407606 249 522 242.675408 517.666667 231"></polygon>
                <polygon id="Path" fill="#3F3D56" fill-rule="nonzero" points="377.854121 235 374 247.352489 398.351369 253 400 240.59095"></polygon>
                <path d="M491.605956,184 L507.221172,185.34137 C507.221172,185.34137 524.873133,232.959991 522.836389,234.301361 C520.799644,235.642731 496.358447,243.690946 492.96384,241.678893 C489.569234,239.66684 491.605956,184 491.605956,184 Z" id="Path" fill="#35A9C1" fill-rule="nonzero"></path>
                <path d="M401.280582,184.353535 L395.841746,183 C395.841746,183 385.643931,195.858584 382.244661,210.747469 C378.845391,225.636354 374.086407,240.525239 376.805825,240.525239 C379.525243,240.525239 404,250 404,250 L401.280582,184.353535 Z" id="Path" fill="#35A9C1" fill-rule="nonzero"></path>
                <circle id="Oval" fill="#3F3D56" fill-rule="nonzero" cx="454" cy="184" r="5"></circle>
                <path d="M493,269.746862 L441.158454,286 L420,219.253134 C439.975601,216.467492 457.256112,211.049781 471.841532,203 C474.544837,225.767688 481.45244,248.033989 493,269.746862 Z" id="Path" fill="#E6E6E6" fill-rule="nonzero"></path>
                <path d="M487,276.746855 L435.158451,293 L414,226.253136 C433.975596,223.467494 451.256107,218.049782 465.841531,210 C468.544822,232.767651 475.452453,255.033974 487,276.746855 Z" id="Path" fill="#FFFFFF" fill-rule="nonzero"></path>
                <path d="M382.326606,250.697167 C382.326606,250.697167 374.319493,265.163723 376.321274,269.766722 C378.323054,274.369721 395.004532,277 397.006308,277 C399.008084,277 423.029414,271.739433 423.029414,271.739433 C423.029414,271.739433 459.728674,254.642593 449.052524,246.094173 C438.376373,237.545753 418.3586,257.93045 418.3586,257.93045 L402.344384,257.93045 L393.670009,252.012309 L382.326606,250.697167 Z" id="Path" fill="#DFA9A9" fill-rule="nonzero"></path>
                <rect id="Rectangle" fill="#F2F2F2" fill-rule="nonzero" x="0" y="61" width="88" height="39"></rect>
                <rect id="Rectangle" fill="#3F3D56" fill-rule="nonzero" x="304" y="188" width="15" height="14"></rect>
                <rect id="Rectangle" fill="#031A6B" fill-rule="nonzero" x="273" y="188" width="15" height="14"></rect>
                <rect id="Rectangle" fill="#F3A927" fill-rule="nonzero" x="335" y="158" width="15" height="15"></rect>
                <rect id="Rectangle" fill="#3F3D56" fill-rule="nonzero" x="320" y="173" width="15" height="15"></rect>
                <rect id="Rectangle" fill="#CC143C" fill-rule="nonzero" x="289" y="173" width="15" height="15"></rect>
                <rect id="Rectangle" fill="#F3A927" fill-rule="nonzero" x="107" y="200" width="15" height="14"></rect>
                <rect id="Rectangle" fill="#3F3D56" fill-rule="nonzero" x="245" y="186" width="15" height="15"></rect>
                <rect id="Rectangle" fill="#031A6B" fill-rule="nonzero" x="154" y="186" width="15" height="15"></rect>
                <rect id="Rectangle" fill="#CC143C" fill-rule="nonzero" x="138" y="171" width="15" height="15"></rect>
                <rect id="Rectangle" fill="#031A6B" fill-rule="nonzero" x="215" y="186" width="15" height="15"></rect>
                <rect id="Rectangle" fill="#CC143C" fill-rule="nonzero" x="199" y="171" width="15" height="15"></rect>
                <rect id="Rectangle" fill="#3F3D56" fill-rule="nonzero" x="184" y="186" width="15" height="15"></rect>
                <rect id="Rectangle" fill="#3F3D56" fill-rule="nonzero" x="123" y="186" width="15" height="15"></rect>
                <rect id="Rectangle" fill="#F3A927" fill-rule="nonzero" x="229" y="171" width="15" height="15"></rect>
                <path d="M298.204162,148 L290,139.204156 L298.795856,131 L307,139.795849 L298.204162,148 Z M291.307695,139.249668 L298.249675,146.692311 L305.692319,139.750332 L298.750339,132.307694 L291.307695,139.249668 Z" id="Shape" stroke="#018E42" fill="#018E42" fill-rule="nonzero"></path>
                <path d="M191,112 L179,112 L179,100 L191,100 L191,112 Z M179.923083,111.076926 L190.076926,111.076926 L190.076926,100.923083 L179.923083,100.923083 L179.923083,111.076926 Z" id="Shape" stroke="#018E42" fill="#018E42" fill-rule="nonzero"></path>
                <path d="M407,89 L395,89 L395,77 L407,77 L407,89 Z M395.923083,88.0769263 L406.076926,88.0769263 L406.076926,77.923083 L395.923083,77.923083 L395.923083,88.0769263 Z" id="Shape" stroke="#018E42" fill="#018E42" fill-rule="nonzero"></path>
                <path d="M113.812209,208 L113.114619,207.332386 C116.322998,203.76571 118.754914,199.594389 120.261399,195.073938 C122.633108,188.076077 123.791711,177.024268 115.841426,164.114334 C107.70717,150.905462 107.341119,140.176843 108.466163,133.502636 C109.690695,126.240392 112.814496,122.169643 112.946823,122 L113.721527,122.580337 C113.690347,122.620238 110.593678,126.669287 109.418653,133.714981 C108.333832,140.219778 108.712257,150.688451 116.675869,163.620103 C124.829409,176.860247 123.621536,188.218903 121.172714,195.416044 C118.51921,203.214042 114.003322,207.808188 113.812209,208 Z" id="Path" fill="#3F3D56" fill-rule="nonzero"></path>
                <path d="M234.812209,177 L234.114619,176.332386 C237.322998,172.76571 239.754914,168.594389 241.261399,164.073938 C243.633108,157.076077 244.791711,146.024268 236.841426,133.114334 C228.70717,119.905462 228.341119,109.176843 229.466163,102.502636 C230.690695,95.2403915 233.814496,91.1696428 233.946823,91 L234.721527,91.5803373 C234.690347,91.6202377 231.593678,95.6692867 230.418653,102.714981 C229.333832,109.219778 229.712257,119.688451 237.675869,132.620103 C245.829409,145.860247 244.621536,157.218903 242.172714,164.416044 C239.51921,172.214042 235.003322,176.808188 234.812209,177 Z" id="Path" fill="#3F3D56" fill-rule="nonzero"></path>
                <path d="M340.812209,166 L340.114619,165.332386 C343.322998,161.76571 345.754914,157.594389 347.261399,153.073938 C349.633108,146.076077 350.791711,135.024268 342.841426,122.114334 C334.70717,108.905462 334.341119,98.1768429 335.466163,91.5026356 C336.690695,84.2403915 339.814496,80.1696428 339.946823,80 L340.721527,80.5803373 C340.690347,80.6202377 337.593678,84.6692867 336.418653,91.7149807 C335.333832,98.2197776 335.712257,108.688451 343.675869,121.620103 C351.829409,134.860247 350.621536,146.218903 348.172714,153.416044 C345.51921,161.214042 341.003322,165.808188 340.812209,166 Z" id="Path" fill="#3F3D56" fill-rule="nonzero"></path>
                <rect id="Rectangle" fill="#3F3D56" fill-rule="nonzero" x="23" y="73" width="43" height="1"></rect>
                <rect id="Rectangle" fill="#3F3D56" fill-rule="nonzero" x="23" y="80" width="43" height="1"></rect>
                <rect id="Rectangle" fill="#3F3D56" fill-rule="nonzero" x="23" y="86" width="43" height="1"></rect>
                <rect id="Rectangle" fill="#3F3D56" fill-rule="nonzero" x="259" y="9" width="43" height="1"></rect>
                <rect id="Rectangle" fill="#3F3D56" fill-rule="nonzero" x="259" y="16" width="43" height="1"></rect>
                <rect id="Rectangle" fill="#3F3D56" fill-rule="nonzero" x="259" y="22" width="43" height="1"></rect>
                <rect id="Rectangle" fill="#3F3D56" fill-rule="nonzero" x="359" y="157" width="43" height="1"></rect>
                <rect id="Rectangle" fill="#3F3D56" fill-rule="nonzero" x="359" y="165" width="43" height="1"></rect>
                <rect id="Rectangle" fill="#3F3D56" fill-rule="nonzero" x="359" y="171" width="43" height="1"></rect>
                <rect id="Rectangle" fill="#3F3D56" fill-rule="nonzero" x="93" y="225" width="43" height="1"></rect>
                <rect id="Rectangle" fill="#3F3D56" fill-rule="nonzero" x="93" y="232" width="43" height="1"></rect>
                <rect id="Rectangle" fill="#3F3D56" fill-rule="nonzero" x="93" y="239" width="43" height="1"></rect>
                <path d="M62,49.5507753 C69.3129047,33.3899765 80.3350087,22.7593009 94.7597287,17.9537941 C105.469645,14.3857389 117.855308,14.0485647 131.5727,16.9513015 C141.687826,19.1079057 151.394508,22.8223628 160.33514,27.9578283 C207.955733,55.1854709 237.396734,55.4274971 253.709254,50.8359914 C271.595508,45.8017244 278.141222,33.9891512 278.205186,33.8703469 L279,34.2853533 C278.934547,34.407113 272.239852,46.5288708 253.991866,51.6782025 C243.471817,54.6467463 231.179995,54.7692947 217.45807,52.0424669 C200.380473,48.6486237 181.009641,40.8032631 159.883511,28.7244136 C151.024647,23.6357206 141.406757,19.9549398 131.384128,17.8176563 C108.885988,13.0568568 78.7281963,14.7601499 62.8211962,49.9115438 L62,49.5507753 Z" id="Path" fill="#2F2E41" fill-rule="nonzero"></path>
                <circle id="Oval" fill="#3F3D56" fill-rule="nonzero" cx="115.5" cy="105.5" r="16.5"></circle>
                <circle id="Oval" fill="#3F3D56" fill-rule="nonzero" cx="237.5" cy="78.5" r="16.5"></circle>
                <circle id="Oval" fill="#3F3D56" fill-rule="nonzero" cx="342.5" cy="63.5" r="16.5"></circle>
                <path d="M100,100 L0,100 L0,49 L100,49 L100,100 Z M0.896860987,99.1052632 L99.103139,99.1052632 L99.103139,49.8947368 L0.896860987,49.8947368 L0.896860987,99.1052632 Z" id="Shape" fill="#3F3D56" fill-rule="nonzero"></path>
                <rect id="Rectangle" fill="#F2F2F2" fill-rule="nonzero" x="127" y="27" width="88" height="39"></rect>
                <rect id="Rectangle" fill="#3F3D56" fill-rule="nonzero" x="149" y="39" width="43" height="1"></rect>
                <rect id="Rectangle" fill="#3F3D56" fill-rule="nonzero" x="149" y="47" width="43" height="1"></rect>
                <rect id="Rectangle" fill="#3F3D56" fill-rule="nonzero" x="147" y="51" width="43" height="1"></rect>
                <path d="M226,67 L126,67 L126,16 L226,16 L226,67 Z M126.896861,66.1052632 L225.103139,66.1052632 L225.103139,16.8947368 L126.896861,16.8947368 L126.896861,66.1052632 Z" id="Shape" fill="#3F3D56" fill-rule="nonzero"></path>
                <rect id="Rectangle" fill="#F2F2F2" fill-rule="nonzero" x="353" y="12" width="88" height="39"></rect>
                <rect id="Rectangle" fill="#3F3D56" fill-rule="nonzero" x="375" y="24" width="43" height="1"></rect>
                <rect id="Rectangle" fill="#3F3D56" fill-rule="nonzero" x="375" y="31" width="43" height="1"></rect>
                <rect id="Rectangle" fill="#3F3D56" fill-rule="nonzero" x="375" y="37" width="43" height="1"></rect>
                <path d="M452,51 L352,51 L352,0 L452,0 L452,51 Z M352.896861,50.1052632 L451.103139,50.1052632 L451.103139,0.894736842 L352.896861,0.894736842 L352.896861,50.1052632 Z" id="Shape" fill="#3F3D56" fill-rule="nonzero"></path>
            </g>
        </g>
    </g>
</svg>