<svg width="100%" height="100%" viewBox="0 0 1184 609">
  <g id="Hexagon_pattern" data-name="Hexagon pattern" transform="translate(-416 -172)">
    <g id="pattern_plus_path" data-name="pattern plus path" transform="translate(-1 -142)">
      <g id="big_hexagon" data-name="big hexagon">
        <g id="Polygon_1" data-name="Polygon 1" transform="translate(1009 396) rotate(90)" fill="none">
          <path d="M122.25,0,163,74.5,122.25,149H40.75L0,74.5,40.75,0Z" stroke="none"/>
          <path d="M 41.34285736083984 1 L 1.139816284179688 74.5 L 41.34283447265625 148 L 121.6571655273438 148 L 161.8601837158203 74.5 L 121.6571655273438 1 L 41.34285736083984 1 M 40.75002288818359 0 L 122.25 0 L 163 74.5 L 122.25 149 L 40.75 149 L 0 74.5 L 40.75002288818359 0 Z" stroke="none" fill="#e9e9e9"/>
        </g>
        <g id="Polygon_3" data-name="Polygon 3" transform="translate(1157 315) rotate(90)" fill="none">
          <path d="M122.25,0,163,74.5,122.25,149H40.75L0,74.5,40.75,0Z" stroke="none"/>
          <path d="M 41.34285736083984 1 L 1.139816284179688 74.5 L 41.34283447265625 148 L 121.6571655273438 148 L 161.8601837158203 74.5 L 121.6571655273438 1 L 41.34285736083984 1 M 40.75002288818359 0 L 122.25 0 L 163 74.5 L 122.25 149 L 40.75 149 L 0 74.5 L 40.75002288818359 0 Z" stroke="none" fill="#e9e9e9"/>
        </g>
        <g id="Polygon_4" data-name="Polygon 4" transform="translate(1305 314) rotate(90)" fill="none">
          <path d="M122.25,0,163,74.5,122.25,149H40.75L0,74.5,40.75,0Z" stroke="none"/>
          <path d="M 41.34285736083984 1 L 1.139816284179688 74.5 L 41.34283447265625 148 L 121.6571655273438 148 L 161.8601837158203 74.5 L 121.6571655273438 1 L 41.34285736083984 1 M 40.75002288818359 0 L 122.25 0 L 163 74.5 L 122.25 149 L 40.75 149 L 0 74.5 L 40.75002288818359 0 Z" stroke="none" fill="#e9e9e9"/>
        </g>
        <g id="Polygon_5" data-name="Polygon 5" transform="translate(1453 395) rotate(90)" fill="none">
          <path d="M122.25,0,163,74.5,122.25,149H40.75L0,74.5,40.75,0Z" stroke="none"/>
          <path d="M 41.34285736083984 1 L 1.139816284179688 74.5 L 41.34283447265625 148 L 121.6571655273438 148 L 161.8601837158203 74.5 L 121.6571655273438 1 L 41.34285736083984 1 M 40.75002288818359 0 L 122.25 0 L 163 74.5 L 122.25 149 L 40.75 149 L 0 74.5 L 40.75002288818359 0 Z" stroke="none" fill="#e9e9e9"/>
        </g>
        <g id="Polygon_6" data-name="Polygon 6" transform="translate(1601 314) rotate(90)" fill="none">
          <path d="M122.25,0,163,74.5,122.25,149H40.75L0,74.5,40.75,0Z" stroke="none"/>
          <path d="M 41.34285736083984 1 L 1.139816284179688 74.5 L 41.34283447265625 148 L 121.6571655273438 148 L 161.8601837158203 74.5 L 121.6571655273438 1 L 41.34285736083984 1 M 40.75002288818359 0 L 122.25 0 L 163 74.5 L 122.25 149 L 40.75 149 L 0 74.5 L 40.75002288818359 0 Z" stroke="none" fill="#e9e9e9"/>
        </g>
        <g id="Polygon_7" data-name="Polygon 7" transform="translate(1231 436) rotate(90)" fill="none">
          <path d="M122.25,0,163,74.5,122.25,149H40.75L0,74.5,40.75,0Z" stroke="none"/>
          <path d="M 41.34285736083984 1 L 1.139816284179688 74.5 L 41.34283447265625 148 L 121.6571655273438 148 L 161.8601837158203 74.5 L 121.6571655273438 1 L 41.34285736083984 1 M 40.75002288818359 0 L 122.25 0 L 163 74.5 L 122.25 149 L 40.75 149 L 0 74.5 L 40.75002288818359 0 Z" stroke="none" fill="#e9e9e9"/>
        </g>
        <g id="Polygon_8" data-name="Polygon 8" transform="translate(1305 557) rotate(90)" fill="none">
          <path d="M122.25,0,163,74.5,122.25,149H40.75L0,74.5,40.75,0Z" stroke="none"/>
          <path d="M 41.34285736083984 1 L 1.139816284179688 74.5 L 41.34283447265625 148 L 121.6571655273438 148 L 161.8601837158203 74.5 L 121.6571655273438 1 L 41.34285736083984 1 M 40.75002288818359 0 L 122.25 0 L 163 74.5 L 122.25 149 L 40.75 149 L 0 74.5 L 40.75002288818359 0 Z" stroke="none" fill="#e9e9e9"/>
        </g>
        <g id="Polygon_9" data-name="Polygon 9" transform="translate(1453 557) rotate(90)" fill="none">
          <path d="M122.25,0,163,74.5,122.25,149H40.75L0,74.5,40.75,0Z" stroke="none"/>
          <path d="M 41.34285736083984 1 L 1.139816284179688 74.5 L 41.34283447265625 148 L 121.6571655273438 148 L 161.8601837158203 74.5 L 121.6571655273438 1 L 41.34285736083984 1 M 40.75002288818359 0 L 122.25 0 L 163 74.5 L 122.25 149 L 40.75 149 L 0 74.5 L 40.75002288818359 0 Z" stroke="none" fill="#e9e9e9"/>
        </g>
        <g id="Polygon_10" data-name="Polygon 10" transform="translate(1601 638) rotate(90)" fill="none">
          <path d="M122.25,0,163,74.5,122.25,149H40.75L0,74.5,40.75,0Z" stroke="none"/>
          <path d="M 41.34285736083984 1 L 1.139816284179688 74.5 L 41.34283447265625 148 L 121.6571655273438 148 L 161.8601837158203 74.5 L 121.6571655273438 1 L 41.34285736083984 1 M 40.75002288818359 0 L 122.25 0 L 163 74.5 L 122.25 149 L 40.75 149 L 0 74.5 L 40.75002288818359 0 Z" stroke="none" fill="#e9e9e9"/>
        </g>
        <g id="Polygon_2" data-name="Polygon 2" transform="translate(935 517) rotate(90)" fill="none">
          <path d="M122.25,0,163,74.5,122.25,149H40.75L0,74.5,40.75,0Z" stroke="none"/>
          <path d="M 41.34285736083984 1 L 1.139816284179688 74.5 L 41.34283447265625 148 L 121.6571655273438 148 L 161.8601837158203 74.5 L 121.6571655273438 1 L 41.34285736083984 1 M 40.75002288818359 0 L 122.25 0 L 163 74.5 L 122.25 149 L 40.75 149 L 0 74.5 L 40.75002288818359 0 Z" stroke="none" fill="#e9e9e9"/>
        </g>
      </g>
      <path id="Path_91" data-name="Path 91" d="M-383-1823l72.911-40.08v-80.16l74.688-40.86,73.762,39.581v-80.7l74.31-39.79,73.71,39.79v80.7l74.176,40.162,147.854-80.931,74.387,40.663v80.707" transform="translate(1170 2381)" fill="none" stroke="#0498b4" stroke-width="1"/>
      <g id="small_polygon" data-name="small polygon">
        <g id="small_polygon-2" data-name="small polygon" transform="translate(864.5 433.5) rotate(90)">
          <path id="small_polygon-3" data-name="small polygon" d="M6.75,0,9,4,6.75,8H2.25L0,4,2.25,0Z" fill="#0498b4"/>
        </g>
        <g id="small_polygon-4" data-name="small polygon" transform="translate(1011.5 431.5) rotate(90)">
          <path id="small_polygon-5" data-name="small polygon" d="M6.75,0,9,4,6.75,8H2.25L0,4,2.25,0Z" fill="#0498b4"/>
        </g>
        <g id="small_polygon-6" data-name="small polygon" transform="translate(1012.5 351.5) rotate(90)">
          <path id="small_polygon-7" data-name="small polygon" d="M6.75,0,9,4,6.75,8H2.25L0,4,2.25,0Z" fill="#0498b4"/>
        </g>
        <g id="small_polygon-8" data-name="small polygon" transform="translate(1160.5 351.5) rotate(90)">
          <path id="small_polygon-9" data-name="small polygon" d="M6.75,0,9,4,6.75,8H2.25L0,4,2.25,0Z" fill="#0498b4"/>
        </g>
        <g id="small_polygon-10" data-name="small polygon" transform="translate(1233.5 472.5) rotate(90)">
          <path id="small_polygon-11" data-name="small polygon" d="M6.75,0,9,4,6.75,8H2.25L0,4,2.25,0Z" fill="#0498b4"/>
        </g>
        <g id="small_polygon-12" data-name="small polygon" transform="translate(1382.5 391.5) rotate(90)">
          <path id="small_polygon-13" data-name="small polygon" d="M6.75,0,9,4,6.75,8H2.25L0,4,2.25,0Z" fill="#0498b4"/>
        </g>
        <g id="small_polygon-14" data-name="small polygon" transform="translate(1456.5 512.5) rotate(90)">
          <path id="small_polygon-15" data-name="small polygon" d="M6.75,0,9,4,6.75,8H2.25L0,4,2.25,0Z" fill="#0498b4"/>
        </g>
      </g>
    </g>
    <g id="pattern_plus_path-2" data-name="pattern plus path" transform="translate(-370 61)">
      <g id="big_hexagon-2" data-name="big hexagon">
        <g id="Polygon_1-2" data-name="Polygon 1" transform="translate(1009 396) rotate(90)" fill="none">
          <path d="M122.25,0,163,74.5,122.25,149H40.75L0,74.5,40.75,0Z" stroke="none"/>
          <path d="M 41.34285736083984 1 L 1.139816284179688 74.5 L 41.34283447265625 148 L 121.6571655273438 148 L 161.8601837158203 74.5 L 121.6571655273438 1 L 41.34285736083984 1 M 40.75002288818359 0 L 122.25 0 L 163 74.5 L 122.25 149 L 40.75 149 L 0 74.5 L 40.75002288818359 0 Z" stroke="none" fill="#e9e9e9"/>
        </g>
        <g id="Polygon_3-2" data-name="Polygon 3" transform="translate(1157 315) rotate(90)" fill="none">
          <path d="M122.25,0,163,74.5,122.25,149H40.75L0,74.5,40.75,0Z" stroke="none"/>
          <path d="M 41.34285736083984 1 L 1.139816284179688 74.5 L 41.34283447265625 148 L 121.6571655273438 148 L 161.8601837158203 74.5 L 121.6571655273438 1 L 41.34285736083984 1 M 40.75002288818359 0 L 122.25 0 L 163 74.5 L 122.25 149 L 40.75 149 L 0 74.5 L 40.75002288818359 0 Z" stroke="none" fill="#e9e9e9"/>
        </g>
        <g id="Polygon_4-2" data-name="Polygon 4" transform="translate(1305 314) rotate(90)" fill="none">
          <path d="M122.25,0,163,74.5,122.25,149H40.75L0,74.5,40.75,0Z" stroke="none"/>
          <path d="M 41.34285736083984 1 L 1.139816284179688 74.5 L 41.34283447265625 148 L 121.6571655273438 148 L 161.8601837158203 74.5 L 121.6571655273438 1 L 41.34285736083984 1 M 40.75002288818359 0 L 122.25 0 L 163 74.5 L 122.25 149 L 40.75 149 L 0 74.5 L 40.75002288818359 0 Z" stroke="none" fill="#e9e9e9"/>
        </g>
        <g id="Polygon_5-2" data-name="Polygon 5" transform="translate(1453 395) rotate(90)" fill="none">
          <path d="M122.25,0,163,74.5,122.25,149H40.75L0,74.5,40.75,0Z" stroke="none"/>
          <path d="M 41.34285736083984 1 L 1.139816284179688 74.5 L 41.34283447265625 148 L 121.6571655273438 148 L 161.8601837158203 74.5 L 121.6571655273438 1 L 41.34285736083984 1 M 40.75002288818359 0 L 122.25 0 L 163 74.5 L 122.25 149 L 40.75 149 L 0 74.5 L 40.75002288818359 0 Z" stroke="none" fill="#e9e9e9"/>
        </g>
        <g id="Polygon_7-2" data-name="Polygon 7" transform="translate(1231 436) rotate(90)" fill="none">
          <path d="M122.25,0,163,74.5,122.25,149H40.75L0,74.5,40.75,0Z" stroke="none"/>
          <path d="M 41.34285736083984 1 L 1.139816284179688 74.5 L 41.34283447265625 148 L 121.6571655273438 148 L 161.8601837158203 74.5 L 121.6571655273438 1 L 41.34285736083984 1 M 40.75002288818359 0 L 122.25 0 L 163 74.5 L 122.25 149 L 40.75 149 L 0 74.5 L 40.75002288818359 0 Z" stroke="none" fill="#e9e9e9"/>
        </g>
        <g id="Polygon_8-2" data-name="Polygon 8" transform="translate(1305 557) rotate(90)" fill="none">
          <path d="M122.25,0,163,74.5,122.25,149H40.75L0,74.5,40.75,0Z" stroke="none"/>
          <path d="M 41.34285736083984 1 L 1.139816284179688 74.5 L 41.34283447265625 148 L 121.6571655273438 148 L 161.8601837158203 74.5 L 121.6571655273438 1 L 41.34285736083984 1 M 40.75002288818359 0 L 122.25 0 L 163 74.5 L 122.25 149 L 40.75 149 L 0 74.5 L 40.75002288818359 0 Z" stroke="none" fill="#e9e9e9"/>
        </g>
        <g id="Polygon_2-2" data-name="Polygon 2" transform="translate(935 517) rotate(90)" fill="none">
          <path d="M122.25,0,163,74.5,122.25,149H40.75L0,74.5,40.75,0Z" stroke="none"/>
          <path d="M 41.34285736083984 1 L 1.139816284179688 74.5 L 41.34283447265625 148 L 121.6571655273438 148 L 161.8601837158203 74.5 L 121.6571655273438 1 L 41.34285736083984 1 M 40.75002288818359 0 L 122.25 0 L 163 74.5 L 122.25 149 L 40.75 149 L 0 74.5 L 40.75002288818359 0 Z" stroke="none" fill="#e9e9e9"/>
        </g>
      </g>
      <path id="Path_91-2" data-name="Path 91" d="M-383-1823l72.911-40.08v-80.16l74.688-40.86,73.762,39.581v-80.7l74.31-39.79,73.71,39.79v80.7l74.176,40.162,147.854-80.931,74.387,40.663v80.707" transform="translate(1170 2381)" fill="none" stroke="#0498b4" stroke-width="1"/>
      <g id="small_polygon-16" data-name="small polygon">
        <g id="small_polygon-17" data-name="small polygon" transform="translate(864.5 433.5) rotate(90)">
          <path id="small_polygon-18" data-name="small polygon" d="M6.75,0,9,4,6.75,8H2.25L0,4,2.25,0Z" fill="#0498b4"/>
        </g>
        <g id="small_polygon-19" data-name="small polygon" transform="translate(1011.5 431.5) rotate(90)">
          <path id="small_polygon-20" data-name="small polygon" d="M6.75,0,9,4,6.75,8H2.25L0,4,2.25,0Z" fill="#0498b4"/>
        </g>
        <g id="small_polygon-21" data-name="small polygon" transform="translate(1012.5 351.5) rotate(90)">
          <path id="small_polygon-22" data-name="small polygon" d="M6.75,0,9,4,6.75,8H2.25L0,4,2.25,0Z" fill="#0498b4"/>
        </g>
        <g id="small_polygon-23" data-name="small polygon" transform="translate(1160.5 351.5) rotate(90)">
          <path id="small_polygon-24" data-name="small polygon" d="M6.75,0,9,4,6.75,8H2.25L0,4,2.25,0Z" fill="#0498b4"/>
        </g>
        <g id="small_polygon-25" data-name="small polygon" transform="translate(1233.5 472.5) rotate(90)">
          <path id="small_polygon-26" data-name="small polygon" d="M6.75,0,9,4,6.75,8H2.25L0,4,2.25,0Z" fill="#0498b4"/>
        </g>
        <g id="small_polygon-27" data-name="small polygon" transform="translate(1382.5 391.5) rotate(90)">
          <path id="small_polygon-28" data-name="small polygon" d="M6.75,0,9,4,6.75,8H2.25L0,4,2.25,0Z" fill="#0498b4"/>
        </g>
        <g id="small_polygon-29" data-name="small polygon" transform="translate(1456.5 512.5) rotate(90)">
          <path id="small_polygon-30" data-name="small polygon" d="M6.75,0,9,4,6.75,8H2.25L0,4,2.25,0Z" fill="#0498b4"/>
        </g>
      </g>
    </g>
  </g>
</svg>
