<svg xmlns="http://www.w3.org/2000/svg" width="100%" height="100%" viewBox="0 0 1776 1216">
  <g id="backgrd_pattern" data-name="backgrd pattern" transform="translate(71 -3314)">
    <g id="pattern_plus_path" data-name="pattern plus path" transform="translate(-786 3000)">
      <g id="big_hexagon" data-name="big hexagon">
        <g id="Polygon_1" data-name="Polygon 1" transform="translate(1009 396) rotate(90)" fill="none">
          <path d="M122.25,0,163,74.5,122.25,149H40.75L0,74.5,40.75,0Z" stroke="none"/>
          <path d="M 41.34285736083984 1 L 1.139816284179688 74.5 L 41.34283447265625 148 L 121.6571655273438 148 L 161.8601837158203 74.5 L 121.6571655273438 1 L 41.34285736083984 1 M 40.75002288818359 0 L 122.25 0 L 163 74.5 L 122.25 149 L 40.75 149 L 0 74.5 L 40.75002288818359 0 Z" stroke="none" fill="#cfd3da"/>
        </g>
        <g id="Polygon_3" data-name="Polygon 3" transform="translate(1157 315) rotate(90)" fill="none">
          <path d="M122.25,0,163,74.5,122.25,149H40.75L0,74.5,40.75,0Z" stroke="none"/>
          <path d="M 41.34285736083984 1 L 1.139816284179688 74.5 L 41.34283447265625 148 L 121.6571655273438 148 L 161.8601837158203 74.5 L 121.6571655273438 1 L 41.34285736083984 1 M 40.75002288818359 0 L 122.25 0 L 163 74.5 L 122.25 149 L 40.75 149 L 0 74.5 L 40.75002288818359 0 Z" stroke="none" fill="#cfd3da"/>
        </g>
        <g id="Polygon_4" data-name="Polygon 4" transform="translate(1305 314) rotate(90)" fill="none">
          <path d="M122.25,0,163,74.5,122.25,149H40.75L0,74.5,40.75,0Z" stroke="none"/>
          <path d="M 41.34285736083984 1 L 1.139816284179688 74.5 L 41.34283447265625 148 L 121.6571655273438 148 L 161.8601837158203 74.5 L 121.6571655273438 1 L 41.34285736083984 1 M 40.75002288818359 0 L 122.25 0 L 163 74.5 L 122.25 149 L 40.75 149 L 0 74.5 L 40.75002288818359 0 Z" stroke="none" fill="#cfd3da"/>
        </g>
        <g id="Polygon_5" data-name="Polygon 5" transform="translate(1453 395) rotate(90)" fill="none">
          <path d="M122.25,0,163,74.5,122.25,149H40.75L0,74.5,40.75,0Z" stroke="none"/>
          <path d="M 41.34285736083984 1 L 1.139816284179688 74.5 L 41.34283447265625 148 L 121.6571655273438 148 L 161.8601837158203 74.5 L 121.6571655273438 1 L 41.34285736083984 1 M 40.75002288818359 0 L 122.25 0 L 163 74.5 L 122.25 149 L 40.75 149 L 0 74.5 L 40.75002288818359 0 Z" stroke="none" fill="#cfd3da"/>
        </g>
        <g id="Polygon_6" data-name="Polygon 6" transform="translate(1601 314) rotate(90)" fill="none">
          <path d="M122.25,0,163,74.5,122.25,149H40.75L0,74.5,40.75,0Z" stroke="none"/>
          <path d="M 41.34285736083984 1 L 1.139816284179688 74.5 L 41.34283447265625 148 L 121.6571655273438 148 L 161.8601837158203 74.5 L 121.6571655273438 1 L 41.34285736083984 1 M 40.75002288818359 0 L 122.25 0 L 163 74.5 L 122.25 149 L 40.75 149 L 0 74.5 L 40.75002288818359 0 Z" stroke="none" fill="#cfd3da"/>
        </g>
        <g id="Polygon_7" data-name="Polygon 7" transform="translate(1231 436) rotate(90)" fill="none">
          <path d="M122.25,0,163,74.5,122.25,149H40.75L0,74.5,40.75,0Z" stroke="none"/>
          <path d="M 41.34285736083984 1 L 1.139816284179688 74.5 L 41.34283447265625 148 L 121.6571655273438 148 L 161.8601837158203 74.5 L 121.6571655273438 1 L 41.34285736083984 1 M 40.75002288818359 0 L 122.25 0 L 163 74.5 L 122.25 149 L 40.75 149 L 0 74.5 L 40.75002288818359 0 Z" stroke="none" fill="#cfd3da"/>
        </g>
        <g id="Polygon_8" data-name="Polygon 8" transform="translate(1305 557) rotate(90)" fill="none">
          <path d="M122.25,0,163,74.5,122.25,149H40.75L0,74.5,40.75,0Z" stroke="none"/>
          <path d="M 41.34285736083984 1 L 1.139816284179688 74.5 L 41.34283447265625 148 L 121.6571655273438 148 L 161.8601837158203 74.5 L 121.6571655273438 1 L 41.34285736083984 1 M 40.75002288818359 0 L 122.25 0 L 163 74.5 L 122.25 149 L 40.75 149 L 0 74.5 L 40.75002288818359 0 Z" stroke="none" fill="#cfd3da"/>
        </g>
        <g id="Polygon_9" data-name="Polygon 9" transform="translate(1453 557) rotate(90)" fill="none">
          <path d="M122.25,0,163,74.5,122.25,149H40.75L0,74.5,40.75,0Z" stroke="none"/>
          <path d="M 41.34285736083984 1 L 1.139816284179688 74.5 L 41.34283447265625 148 L 121.6571655273438 148 L 161.8601837158203 74.5 L 121.6571655273438 1 L 41.34285736083984 1 M 40.75002288818359 0 L 122.25 0 L 163 74.5 L 122.25 149 L 40.75 149 L 0 74.5 L 40.75002288818359 0 Z" stroke="none" fill="#cfd3da"/>
        </g>
        <g id="Polygon_10" data-name="Polygon 10" transform="translate(1601 638) rotate(90)" fill="none">
          <path d="M122.25,0,163,74.5,122.25,149H40.75L0,74.5,40.75,0Z" stroke="none"/>
          <path d="M 41.34285736083984 1 L 1.139816284179688 74.5 L 41.34283447265625 148 L 121.6571655273438 148 L 161.8601837158203 74.5 L 121.6571655273438 1 L 41.34285736083984 1 M 40.75002288818359 0 L 122.25 0 L 163 74.5 L 122.25 149 L 40.75 149 L 0 74.5 L 40.75002288818359 0 Z" stroke="none" fill="#cfd3da"/>
        </g>
        <g id="Polygon_11" data-name="Polygon 11" transform="translate(1157 638) rotate(90)" fill="none">
          <path d="M122.25,0,163,74.5,122.25,149H40.75L0,74.5,40.75,0Z" stroke="none"/>
          <path d="M 41.34285736083984 1 L 1.139816284179688 74.5 L 41.34283447265625 148 L 121.6571655273438 148 L 161.8601837158203 74.5 L 121.6571655273438 1 L 41.34285736083984 1 M 40.75002288818359 0 L 122.25 0 L 163 74.5 L 122.25 149 L 40.75 149 L 0 74.5 L 40.75002288818359 0 Z" stroke="none" fill="#cfd3da"/>
        </g>
        <g id="Polygon_12" data-name="Polygon 12" transform="translate(1379 679) rotate(90)" fill="none">
          <path d="M122.25,0,163,74.5,122.25,149H40.75L0,74.5,40.75,0Z" stroke="none"/>
          <path d="M 41.34285736083984 1 L 1.139816284179688 74.5 L 41.34283447265625 148 L 121.6571655273438 148 L 161.8601837158203 74.5 L 121.6571655273438 1 L 41.34285736083984 1 M 40.75002288818359 0 L 122.25 0 L 163 74.5 L 122.25 149 L 40.75 149 L 0 74.5 L 40.75002288818359 0 Z" stroke="none" fill="#cfd3da"/>
        </g>
        <g id="Polygon_2" data-name="Polygon 2" transform="translate(935 517) rotate(90)" fill="none">
          <path d="M122.25,0,163,74.5,122.25,149H40.75L0,74.5,40.75,0Z" stroke="none"/>
          <path d="M 41.34285736083984 1 L 1.139816284179688 74.5 L 41.34283447265625 148 L 121.6571655273438 148 L 161.8601837158203 74.5 L 121.6571655273438 1 L 41.34285736083984 1 M 40.75002288818359 0 L 122.25 0 L 163 74.5 L 122.25 149 L 40.75 149 L 0 74.5 L 40.75002288818359 0 Z" stroke="none" fill="#cfd3da"/>
        </g>
      </g>
    </g>
    <g id="pattern_plus_path-2" data-name="pattern plus path" transform="translate(-119 3039)">
      <g id="big_hexagon-2" data-name="big hexagon">
        <g id="Polygon_1-2" data-name="Polygon 1" transform="translate(1009 396) rotate(90)" fill="none">
          <path d="M122.25,0,163,74.5,122.25,149H40.75L0,74.5,40.75,0Z" stroke="none"/>
          <path d="M 41.34285736083984 1 L 1.139816284179688 74.5 L 41.34283447265625 148 L 121.6571655273438 148 L 161.8601837158203 74.5 L 121.6571655273438 1 L 41.34285736083984 1 M 40.75002288818359 0 L 122.25 0 L 163 74.5 L 122.25 149 L 40.75 149 L 0 74.5 L 40.75002288818359 0 Z" stroke="none" fill="#cfd3da"/>
        </g>
        <g id="Polygon_3-2" data-name="Polygon 3" transform="translate(1157 315) rotate(90)" fill="none">
          <path d="M122.25,0,163,74.5,122.25,149H40.75L0,74.5,40.75,0Z" stroke="none"/>
          <path d="M 41.34285736083984 1 L 1.139816284179688 74.5 L 41.34283447265625 148 L 121.6571655273438 148 L 161.8601837158203 74.5 L 121.6571655273438 1 L 41.34285736083984 1 M 40.75002288818359 0 L 122.25 0 L 163 74.5 L 122.25 149 L 40.75 149 L 0 74.5 L 40.75002288818359 0 Z" stroke="none" fill="#cfd3da"/>
        </g>
        <g id="Polygon_5-2" data-name="Polygon 5" transform="translate(1453 395) rotate(90)" fill="none">
          <path d="M122.25,0,163,74.5,122.25,149H40.75L0,74.5,40.75,0Z" stroke="none"/>
          <path d="M 41.34285736083984 1 L 1.139816284179688 74.5 L 41.34283447265625 148 L 121.6571655273438 148 L 161.8601837158203 74.5 L 121.6571655273438 1 L 41.34285736083984 1 M 40.75002288818359 0 L 122.25 0 L 163 74.5 L 122.25 149 L 40.75 149 L 0 74.5 L 40.75002288818359 0 Z" stroke="none" fill="#cfd3da"/>
        </g>
        <g id="Polygon_6-2" data-name="Polygon 6" transform="translate(1601 314) rotate(90)" fill="none">
          <path d="M122.25,0,163,74.5,122.25,149H40.75L0,74.5,40.75,0Z" stroke="none"/>
          <path d="M 41.34285736083984 1 L 1.139816284179688 74.5 L 41.34283447265625 148 L 121.6571655273438 148 L 161.8601837158203 74.5 L 121.6571655273438 1 L 41.34285736083984 1 M 40.75002288818359 0 L 122.25 0 L 163 74.5 L 122.25 149 L 40.75 149 L 0 74.5 L 40.75002288818359 0 Z" stroke="none" fill="#cfd3da"/>
        </g>
        <g id="Polygon_7-2" data-name="Polygon 7" transform="translate(1231 436) rotate(90)" fill="none">
          <path d="M122.25,0,163,74.5,122.25,149H40.75L0,74.5,40.75,0Z" stroke="none"/>
          <path d="M 41.34285736083984 1 L 1.139816284179688 74.5 L 41.34283447265625 148 L 121.6571655273438 148 L 161.8601837158203 74.5 L 121.6571655273438 1 L 41.34285736083984 1 M 40.75002288818359 0 L 122.25 0 L 163 74.5 L 122.25 149 L 40.75 149 L 0 74.5 L 40.75002288818359 0 Z" stroke="none" fill="#cfd3da"/>
        </g>
        <g id="Polygon_8-2" data-name="Polygon 8" transform="translate(1305 557) rotate(90)" fill="none">
          <path d="M122.25,0,163,74.5,122.25,149H40.75L0,74.5,40.75,0Z" stroke="none"/>
          <path d="M 41.34285736083984 1 L 1.139816284179688 74.5 L 41.34283447265625 148 L 121.6571655273438 148 L 161.8601837158203 74.5 L 121.6571655273438 1 L 41.34285736083984 1 M 40.75002288818359 0 L 122.25 0 L 163 74.5 L 122.25 149 L 40.75 149 L 0 74.5 L 40.75002288818359 0 Z" stroke="none" fill="#cfd3da"/>
        </g>
        <g id="Polygon_9-2" data-name="Polygon 9" transform="translate(1453 557) rotate(90)" fill="none">
          <path d="M122.25,0,163,74.5,122.25,149H40.75L0,74.5,40.75,0Z" stroke="none"/>
          <path d="M 41.34285736083984 1 L 1.139816284179688 74.5 L 41.34283447265625 148 L 121.6571655273438 148 L 161.8601837158203 74.5 L 121.6571655273438 1 L 41.34285736083984 1 M 40.75002288818359 0 L 122.25 0 L 163 74.5 L 122.25 149 L 40.75 149 L 0 74.5 L 40.75002288818359 0 Z" stroke="none" fill="#cfd3da"/>
        </g>
        <g id="Polygon_10-2" data-name="Polygon 10" transform="translate(1601 638) rotate(90)" fill="none">
          <path d="M122.25,0,163,74.5,122.25,149H40.75L0,74.5,40.75,0Z" stroke="none"/>
          <path d="M 41.34285736083984 1 L 1.139816284179688 74.5 L 41.34283447265625 148 L 121.6571655273438 148 L 161.8601837158203 74.5 L 121.6571655273438 1 L 41.34285736083984 1 M 40.75002288818359 0 L 122.25 0 L 163 74.5 L 122.25 149 L 40.75 149 L 0 74.5 L 40.75002288818359 0 Z" stroke="none" fill="#cfd3da"/>
        </g>
        <g id="Polygon_11-2" data-name="Polygon 11" transform="translate(1157 638) rotate(90)" fill="none">
          <path d="M122.25,0,163,74.5,122.25,149H40.75L0,74.5,40.75,0Z" stroke="none"/>
          <path d="M 41.34285736083984 1 L 1.139816284179688 74.5 L 41.34283447265625 148 L 121.6571655273438 148 L 161.8601837158203 74.5 L 121.6571655273438 1 L 41.34285736083984 1 M 40.75002288818359 0 L 122.25 0 L 163 74.5 L 122.25 149 L 40.75 149 L 0 74.5 L 40.75002288818359 0 Z" stroke="none" fill="#cfd3da"/>
        </g>
        <g id="Polygon_12-2" data-name="Polygon 12" transform="translate(1379 679) rotate(90)" fill="none">
          <path d="M122.25,0,163,74.5,122.25,149H40.75L0,74.5,40.75,0Z" stroke="none"/>
          <path d="M 41.34285736083984 1 L 1.139816284179688 74.5 L 41.34283447265625 148 L 121.6571655273438 148 L 161.8601837158203 74.5 L 121.6571655273438 1 L 41.34285736083984 1 M 40.75002288818359 0 L 122.25 0 L 163 74.5 L 122.25 149 L 40.75 149 L 0 74.5 L 40.75002288818359 0 Z" stroke="none" fill="#cfd3da"/>
        </g>
        <g id="Polygon_2-2" data-name="Polygon 2" transform="translate(935 517) rotate(90)" fill="none">
          <path d="M122.25,0,163,74.5,122.25,149H40.75L0,74.5,40.75,0Z" stroke="none"/>
          <path d="M 41.34285736083984 1 L 1.139816284179688 74.5 L 41.34283447265625 148 L 121.6571655273438 148 L 161.8601837158203 74.5 L 121.6571655273438 1 L 41.34285736083984 1 M 40.75002288818359 0 L 122.25 0 L 163 74.5 L 122.25 149 L 40.75 149 L 0 74.5 L 40.75002288818359 0 Z" stroke="none" fill="#cfd3da"/>
        </g>
      </g>
    </g>
    <g id="pattern_plus_path-3" data-name="pattern plus path" transform="translate(-119 3039)">
      <g id="big_hexagon-3" data-name="big hexagon">
        <g id="Polygon_1-3" data-name="Polygon 1" transform="translate(1009 396) rotate(90)" fill="none">
          <path d="M122.25,0,163,74.5,122.25,149H40.75L0,74.5,40.75,0Z" stroke="none"/>
          <path d="M 41.34285736083984 1 L 1.139816284179688 74.5 L 41.34283447265625 148 L 121.6571655273438 148 L 161.8601837158203 74.5 L 121.6571655273438 1 L 41.34285736083984 1 M 40.75002288818359 0 L 122.25 0 L 163 74.5 L 122.25 149 L 40.75 149 L 0 74.5 L 40.75002288818359 0 Z" stroke="none" fill="#cfd3da"/>
        </g>
        <g id="Polygon_3-3" data-name="Polygon 3" transform="translate(1157 315) rotate(90)" fill="none">
          <path d="M122.25,0,163,74.5,122.25,149H40.75L0,74.5,40.75,0Z" stroke="none"/>
          <path d="M 41.34285736083984 1 L 1.139816284179688 74.5 L 41.34283447265625 148 L 121.6571655273438 148 L 161.8601837158203 74.5 L 121.6571655273438 1 L 41.34285736083984 1 M 40.75002288818359 0 L 122.25 0 L 163 74.5 L 122.25 149 L 40.75 149 L 0 74.5 L 40.75002288818359 0 Z" stroke="none" fill="#cfd3da"/>
        </g>
        <g id="Polygon_5-3" data-name="Polygon 5" transform="translate(1453 395) rotate(90)" fill="none">
          <path d="M122.25,0,163,74.5,122.25,149H40.75L0,74.5,40.75,0Z" stroke="none"/>
          <path d="M 41.34285736083984 1 L 1.139816284179688 74.5 L 41.34283447265625 148 L 121.6571655273438 148 L 161.8601837158203 74.5 L 121.6571655273438 1 L 41.34285736083984 1 M 40.75002288818359 0 L 122.25 0 L 163 74.5 L 122.25 149 L 40.75 149 L 0 74.5 L 40.75002288818359 0 Z" stroke="none" fill="#cfd3da"/>
        </g>
        <g id="Polygon_6-3" data-name="Polygon 6" transform="translate(1601 314) rotate(90)" fill="none">
          <path d="M122.25,0,163,74.5,122.25,149H40.75L0,74.5,40.75,0Z" stroke="none"/>
          <path d="M 41.34285736083984 1 L 1.139816284179688 74.5 L 41.34283447265625 148 L 121.6571655273438 148 L 161.8601837158203 74.5 L 121.6571655273438 1 L 41.34285736083984 1 M 40.75002288818359 0 L 122.25 0 L 163 74.5 L 122.25 149 L 40.75 149 L 0 74.5 L 40.75002288818359 0 Z" stroke="none" fill="#cfd3da"/>
        </g>
        <g id="Polygon_7-3" data-name="Polygon 7" transform="translate(1231 436) rotate(90)" fill="none">
          <path d="M122.25,0,163,74.5,122.25,149H40.75L0,74.5,40.75,0Z" stroke="none"/>
          <path d="M 41.34285736083984 1 L 1.139816284179688 74.5 L 41.34283447265625 148 L 121.6571655273438 148 L 161.8601837158203 74.5 L 121.6571655273438 1 L 41.34285736083984 1 M 40.75002288818359 0 L 122.25 0 L 163 74.5 L 122.25 149 L 40.75 149 L 0 74.5 L 40.75002288818359 0 Z" stroke="none" fill="#cfd3da"/>
        </g>
        <g id="Polygon_8-3" data-name="Polygon 8" transform="translate(1305 557) rotate(90)" fill="none">
          <path d="M122.25,0,163,74.5,122.25,149H40.75L0,74.5,40.75,0Z" stroke="none"/>
          <path d="M 41.34285736083984 1 L 1.139816284179688 74.5 L 41.34283447265625 148 L 121.6571655273438 148 L 161.8601837158203 74.5 L 121.6571655273438 1 L 41.34285736083984 1 M 40.75002288818359 0 L 122.25 0 L 163 74.5 L 122.25 149 L 40.75 149 L 0 74.5 L 40.75002288818359 0 Z" stroke="none" fill="#cfd3da"/>
        </g>
        <g id="Polygon_9-3" data-name="Polygon 9" transform="translate(1453 557) rotate(90)" fill="none">
          <path d="M122.25,0,163,74.5,122.25,149H40.75L0,74.5,40.75,0Z" stroke="none"/>
          <path d="M 41.34285736083984 1 L 1.139816284179688 74.5 L 41.34283447265625 148 L 121.6571655273438 148 L 161.8601837158203 74.5 L 121.6571655273438 1 L 41.34285736083984 1 M 40.75002288818359 0 L 122.25 0 L 163 74.5 L 122.25 149 L 40.75 149 L 0 74.5 L 40.75002288818359 0 Z" stroke="none" fill="#cfd3da"/>
        </g>
        <g id="Polygon_10-3" data-name="Polygon 10" transform="translate(1601 638) rotate(90)" fill="none">
          <path d="M122.25,0,163,74.5,122.25,149H40.75L0,74.5,40.75,0Z" stroke="none"/>
          <path d="M 41.34285736083984 1 L 1.139816284179688 74.5 L 41.34283447265625 148 L 121.6571655273438 148 L 161.8601837158203 74.5 L 121.6571655273438 1 L 41.34285736083984 1 M 40.75002288818359 0 L 122.25 0 L 163 74.5 L 122.25 149 L 40.75 149 L 0 74.5 L 40.75002288818359 0 Z" stroke="none" fill="#cfd3da"/>
        </g>
        <g id="Polygon_11-3" data-name="Polygon 11" transform="translate(1157 638) rotate(90)" fill="none">
          <path d="M122.25,0,163,74.5,122.25,149H40.75L0,74.5,40.75,0Z" stroke="none"/>
          <path d="M 41.34285736083984 1 L 1.139816284179688 74.5 L 41.34283447265625 148 L 121.6571655273438 148 L 161.8601837158203 74.5 L 121.6571655273438 1 L 41.34285736083984 1 M 40.75002288818359 0 L 122.25 0 L 163 74.5 L 122.25 149 L 40.75 149 L 0 74.5 L 40.75002288818359 0 Z" stroke="none" fill="#cfd3da"/>
        </g>
        <g id="Polygon_12-3" data-name="Polygon 12" transform="translate(1379 679) rotate(90)" fill="none">
          <path d="M122.25,0,163,74.5,122.25,149H40.75L0,74.5,40.75,0Z" stroke="none"/>
          <path d="M 41.34285736083984 1 L 1.139816284179688 74.5 L 41.34283447265625 148 L 121.6571655273438 148 L 161.8601837158203 74.5 L 121.6571655273438 1 L 41.34285736083984 1 M 40.75002288818359 0 L 122.25 0 L 163 74.5 L 122.25 149 L 40.75 149 L 0 74.5 L 40.75002288818359 0 Z" stroke="none" fill="#cfd3da"/>
        </g>
        <g id="Polygon_2-3" data-name="Polygon 2" transform="translate(935 518) rotate(90)" fill="none">
          <path d="M122.25,0,163,74.5,122.25,149H40.75L0,74.5,40.75,0Z" stroke="none"/>
          <path d="M 41.34285736083984 1 L 1.139816284179688 74.5 L 41.34283447265625 148 L 121.6571655273438 148 L 161.8601837158203 74.5 L 121.6571655273438 1 L 41.34285736083984 1 M 40.75002288818359 0 L 122.25 0 L 163 74.5 L 122.25 149 L 40.75 149 L 0 74.5 L 40.75002288818359 0 Z" stroke="none" fill="#cfd3da"/>
        </g>
      </g>
    </g>
    <g id="pattern_plus_path-4" data-name="pattern plus path" transform="translate(-119 3039)">
      <g id="big_hexagon-4" data-name="big hexagon">
        <g id="Polygon_1-4" data-name="Polygon 1" transform="translate(1009 396) rotate(90)" fill="none">
          <path d="M122.25,0,163,74.5,122.25,149H40.75L0,74.5,40.75,0Z" stroke="none"/>
          <path d="M 41.34285736083984 1 L 1.139816284179688 74.5 L 41.34283447265625 148 L 121.6571655273438 148 L 161.8601837158203 74.5 L 121.6571655273438 1 L 41.34285736083984 1 M 40.75002288818359 0 L 122.25 0 L 163 74.5 L 122.25 149 L 40.75 149 L 0 74.5 L 40.75002288818359 0 Z" stroke="none" fill="#cfd3da"/>
        </g>
        <g id="Polygon_3-4" data-name="Polygon 3" transform="translate(1157 315) rotate(90)" fill="none">
          <path d="M122.25,0,163,74.5,122.25,149H40.75L0,74.5,40.75,0Z" stroke="none"/>
          <path d="M 41.34285736083984 1 L 1.139816284179688 74.5 L 41.34283447265625 148 L 121.6571655273438 148 L 161.8601837158203 74.5 L 121.6571655273438 1 L 41.34285736083984 1 M 40.75002288818359 0 L 122.25 0 L 163 74.5 L 122.25 149 L 40.75 149 L 0 74.5 L 40.75002288818359 0 Z" stroke="none" fill="#cfd3da"/>
        </g>
        <g id="Polygon_5-4" data-name="Polygon 5" transform="translate(1453 395) rotate(90)" fill="none">
          <path d="M122.25,0,163,74.5,122.25,149H40.75L0,74.5,40.75,0Z" stroke="none"/>
          <path d="M 41.34285736083984 1 L 1.139816284179688 74.5 L 41.34283447265625 148 L 121.6571655273438 148 L 161.8601837158203 74.5 L 121.6571655273438 1 L 41.34285736083984 1 M 40.75002288818359 0 L 122.25 0 L 163 74.5 L 122.25 149 L 40.75 149 L 0 74.5 L 40.75002288818359 0 Z" stroke="none" fill="#cfd3da"/>
        </g>
        <g id="Polygon_6-4" data-name="Polygon 6" transform="translate(1601 314) rotate(90)" fill="none">
          <path d="M122.25,0,163,74.5,122.25,149H40.75L0,74.5,40.75,0Z" stroke="none"/>
          <path d="M 41.34285736083984 1 L 1.139816284179688 74.5 L 41.34283447265625 148 L 121.6571655273438 148 L 161.8601837158203 74.5 L 121.6571655273438 1 L 41.34285736083984 1 M 40.75002288818359 0 L 122.25 0 L 163 74.5 L 122.25 149 L 40.75 149 L 0 74.5 L 40.75002288818359 0 Z" stroke="none" fill="#cfd3da"/>
        </g>
        <g id="Polygon_7-4" data-name="Polygon 7" transform="translate(1231 436) rotate(90)" fill="none">
          <path d="M122.25,0,163,74.5,122.25,149H40.75L0,74.5,40.75,0Z" stroke="none"/>
          <path d="M 41.34285736083984 1 L 1.139816284179688 74.5 L 41.34283447265625 148 L 121.6571655273438 148 L 161.8601837158203 74.5 L 121.6571655273438 1 L 41.34285736083984 1 M 40.75002288818359 0 L 122.25 0 L 163 74.5 L 122.25 149 L 40.75 149 L 0 74.5 L 40.75002288818359 0 Z" stroke="none" fill="#cfd3da"/>
        </g>
        <g id="Polygon_8-4" data-name="Polygon 8" transform="translate(1305 557) rotate(90)" fill="none">
          <path d="M122.25,0,163,74.5,122.25,149H40.75L0,74.5,40.75,0Z" stroke="none"/>
          <path d="M 41.34285736083984 1 L 1.139816284179688 74.5 L 41.34283447265625 148 L 121.6571655273438 148 L 161.8601837158203 74.5 L 121.6571655273438 1 L 41.34285736083984 1 M 40.75002288818359 0 L 122.25 0 L 163 74.5 L 122.25 149 L 40.75 149 L 0 74.5 L 40.75002288818359 0 Z" stroke="none" fill="#cfd3da"/>
        </g>
        <g id="Polygon_9-4" data-name="Polygon 9" transform="translate(1453 557) rotate(90)" fill="none">
          <path d="M122.25,0,163,74.5,122.25,149H40.75L0,74.5,40.75,0Z" stroke="none"/>
          <path d="M 41.34285736083984 1 L 1.139816284179688 74.5 L 41.34283447265625 148 L 121.6571655273438 148 L 161.8601837158203 74.5 L 121.6571655273438 1 L 41.34285736083984 1 M 40.75002288818359 0 L 122.25 0 L 163 74.5 L 122.25 149 L 40.75 149 L 0 74.5 L 40.75002288818359 0 Z" stroke="none" fill="#cfd3da"/>
        </g>
        <g id="Polygon_10-4" data-name="Polygon 10" transform="translate(1601 638) rotate(90)" fill="none">
          <path d="M122.25,0,163,74.5,122.25,149H40.75L0,74.5,40.75,0Z" stroke="none"/>
          <path d="M 41.34285736083984 1 L 1.139816284179688 74.5 L 41.34283447265625 148 L 121.6571655273438 148 L 161.8601837158203 74.5 L 121.6571655273438 1 L 41.34285736083984 1 M 40.75002288818359 0 L 122.25 0 L 163 74.5 L 122.25 149 L 40.75 149 L 0 74.5 L 40.75002288818359 0 Z" stroke="none" fill="#cfd3da"/>
        </g>
        <g id="Polygon_11-4" data-name="Polygon 11" transform="translate(1157 638) rotate(90)" fill="none">
          <path d="M122.25,0,163,74.5,122.25,149H40.75L0,74.5,40.75,0Z" stroke="none"/>
          <path d="M 41.34285736083984 1 L 1.139816284179688 74.5 L 41.34283447265625 148 L 121.6571655273438 148 L 161.8601837158203 74.5 L 121.6571655273438 1 L 41.34285736083984 1 M 40.75002288818359 0 L 122.25 0 L 163 74.5 L 122.25 149 L 40.75 149 L 0 74.5 L 40.75002288818359 0 Z" stroke="none" fill="#cfd3da"/>
        </g>
        <g id="Polygon_12-4" data-name="Polygon 12" transform="translate(1379 679) rotate(90)" fill="none">
          <path d="M122.25,0,163,74.5,122.25,149H40.75L0,74.5,40.75,0Z" stroke="none"/>
          <path d="M 41.34285736083984 1 L 1.139816284179688 74.5 L 41.34283447265625 148 L 121.6571655273438 148 L 161.8601837158203 74.5 L 121.6571655273438 1 L 41.34285736083984 1 M 40.75002288818359 0 L 122.25 0 L 163 74.5 L 122.25 149 L 40.75 149 L 0 74.5 L 40.75002288818359 0 Z" stroke="none" fill="#cfd3da"/>
        </g>
        <g id="Polygon_2-4" data-name="Polygon 2" transform="translate(935 517) rotate(90)" fill="none">
          <path d="M122.25,0,163,74.5,122.25,149H40.75L0,74.5,40.75,0Z" stroke="none"/>
          <path d="M 41.34285736083984 1 L 1.139816284179688 74.5 L 41.34283447265625 148 L 121.6571655273438 148 L 161.8601837158203 74.5 L 121.6571655273438 1 L 41.34285736083984 1 M 40.75002288818359 0 L 122.25 0 L 163 74.5 L 122.25 149 L 40.75 149 L 0 74.5 L 40.75002288818359 0 Z" stroke="none" fill="#cfd3da"/>
        </g>
      </g>
    </g>
    <g id="pattern_plus_path-5" data-name="pattern plus path" transform="translate(-635 3486)">
      <g id="big_hexagon-5" data-name="big hexagon">
        <g id="Polygon_1-5" data-name="Polygon 1" transform="translate(1009 396) rotate(90)" fill="none">
          <path d="M122.25,0,163,74.5,122.25,149H40.75L0,74.5,40.75,0Z" stroke="none"/>
          <path d="M 41.34285736083984 1 L 1.139816284179688 74.5 L 41.34283447265625 148 L 121.6571655273438 148 L 161.8601837158203 74.5 L 121.6571655273438 1 L 41.34285736083984 1 M 40.75002288818359 0 L 122.25 0 L 163 74.5 L 122.25 149 L 40.75 149 L 0 74.5 L 40.75002288818359 0 Z" stroke="none" fill="#cfd3da"/>
        </g>
        <g id="Polygon_3-5" data-name="Polygon 3" transform="translate(1157 315) rotate(90)" fill="none">
          <path d="M122.25,0,163,74.5,122.25,149H40.75L0,74.5,40.75,0Z" stroke="none"/>
          <path d="M 41.34285736083984 1 L 1.139816284179688 74.5 L 41.34283447265625 148 L 121.6571655273438 148 L 161.8601837158203 74.5 L 121.6571655273438 1 L 41.34285736083984 1 M 40.75002288818359 0 L 122.25 0 L 163 74.5 L 122.25 149 L 40.75 149 L 0 74.5 L 40.75002288818359 0 Z" stroke="none" fill="#cfd3da"/>
        </g>
        <g id="Polygon_4-2" data-name="Polygon 4" transform="translate(1305 314) rotate(90)" fill="none">
          <path d="M122.25,0,163,74.5,122.25,149H40.75L0,74.5,40.75,0Z" stroke="none"/>
          <path d="M 41.34285736083984 1 L 1.139816284179688 74.5 L 41.34283447265625 148 L 121.6571655273438 148 L 161.8601837158203 74.5 L 121.6571655273438 1 L 41.34285736083984 1 M 40.75002288818359 0 L 122.25 0 L 163 74.5 L 122.25 149 L 40.75 149 L 0 74.5 L 40.75002288818359 0 Z" stroke="none" fill="#cfd3da"/>
        </g>
        <g id="Polygon_5-5" data-name="Polygon 5" transform="translate(1453 395) rotate(90)" fill="none">
          <path d="M122.25,0,163,74.5,122.25,149H40.75L0,74.5,40.75,0Z" stroke="none"/>
          <path d="M 41.34285736083984 1 L 1.139816284179688 74.5 L 41.34283447265625 148 L 121.6571655273438 148 L 161.8601837158203 74.5 L 121.6571655273438 1 L 41.34285736083984 1 M 40.75002288818359 0 L 122.25 0 L 163 74.5 L 122.25 149 L 40.75 149 L 0 74.5 L 40.75002288818359 0 Z" stroke="none" fill="#cfd3da"/>
        </g>
        <g id="Polygon_6-5" data-name="Polygon 6" transform="translate(1601 314) rotate(90)" fill="none">
          <path d="M122.25,0,163,74.5,122.25,149H40.75L0,74.5,40.75,0Z" stroke="none"/>
          <path d="M 41.34285736083984 1 L 1.139816284179688 74.5 L 41.34283447265625 148 L 121.6571655273438 148 L 161.8601837158203 74.5 L 121.6571655273438 1 L 41.34285736083984 1 M 40.75002288818359 0 L 122.25 0 L 163 74.5 L 122.25 149 L 40.75 149 L 0 74.5 L 40.75002288818359 0 Z" stroke="none" fill="#cfd3da"/>
        </g>
        <g id="Polygon_7-5" data-name="Polygon 7" transform="translate(1231 436) rotate(90)" fill="none">
          <path d="M122.25,0,163,74.5,122.25,149H40.75L0,74.5,40.75,0Z" stroke="none"/>
          <path d="M 41.34285736083984 1 L 1.139816284179688 74.5 L 41.34283447265625 148 L 121.6571655273438 148 L 161.8601837158203 74.5 L 121.6571655273438 1 L 41.34285736083984 1 M 40.75002288818359 0 L 122.25 0 L 163 74.5 L 122.25 149 L 40.75 149 L 0 74.5 L 40.75002288818359 0 Z" stroke="none" fill="#cfd3da"/>
        </g>
        <g id="Polygon_8-5" data-name="Polygon 8" transform="translate(1305 557) rotate(90)" fill="none">
          <path d="M122.25,0,163,74.5,122.25,149H40.75L0,74.5,40.75,0Z" stroke="none"/>
          <path d="M 41.34285736083984 1 L 1.139816284179688 74.5 L 41.34283447265625 148 L 121.6571655273438 148 L 161.8601837158203 74.5 L 121.6571655273438 1 L 41.34285736083984 1 M 40.75002288818359 0 L 122.25 0 L 163 74.5 L 122.25 149 L 40.75 149 L 0 74.5 L 40.75002288818359 0 Z" stroke="none" fill="#cfd3da"/>
        </g>
        <g id="Polygon_9-5" data-name="Polygon 9" transform="translate(1453 557) rotate(90)" fill="none">
          <path d="M122.25,0,163,74.5,122.25,149H40.75L0,74.5,40.75,0Z" stroke="none"/>
          <path d="M 41.34285736083984 1 L 1.139816284179688 74.5 L 41.34283447265625 148 L 121.6571655273438 148 L 161.8601837158203 74.5 L 121.6571655273438 1 L 41.34285736083984 1 M 40.75002288818359 0 L 122.25 0 L 163 74.5 L 122.25 149 L 40.75 149 L 0 74.5 L 40.75002288818359 0 Z" stroke="none" fill="#cfd3da"/>
        </g>
        <g id="Polygon_10-5" data-name="Polygon 10" transform="translate(1601 638) rotate(90)" fill="none">
          <path d="M122.25,0,163,74.5,122.25,149H40.75L0,74.5,40.75,0Z" stroke="none"/>
          <path d="M 41.34285736083984 1 L 1.139816284179688 74.5 L 41.34283447265625 148 L 121.6571655273438 148 L 161.8601837158203 74.5 L 121.6571655273438 1 L 41.34285736083984 1 M 40.75002288818359 0 L 122.25 0 L 163 74.5 L 122.25 149 L 40.75 149 L 0 74.5 L 40.75002288818359 0 Z" stroke="none" fill="#cfd3da"/>
        </g>
        <g id="Polygon_11-5" data-name="Polygon 11" transform="translate(1157 638) rotate(90)" fill="none">
          <path d="M122.25,0,163,74.5,122.25,149H40.75L0,74.5,40.75,0Z" stroke="none"/>
          <path d="M 41.34285736083984 1 L 1.139816284179688 74.5 L 41.34283447265625 148 L 121.6571655273438 148 L 161.8601837158203 74.5 L 121.6571655273438 1 L 41.34285736083984 1 M 40.75002288818359 0 L 122.25 0 L 163 74.5 L 122.25 149 L 40.75 149 L 0 74.5 L 40.75002288818359 0 Z" stroke="none" fill="#cfd3da"/>
        </g>
        <g id="Polygon_12-5" data-name="Polygon 12" transform="translate(1379 679) rotate(90)" fill="none">
          <path d="M122.25,0,163,74.5,122.25,149H40.75L0,74.5,40.75,0Z" stroke="none"/>
          <path d="M 41.34285736083984 1 L 1.139816284179688 74.5 L 41.34283447265625 148 L 121.6571655273438 148 L 161.8601837158203 74.5 L 121.6571655273438 1 L 41.34285736083984 1 M 40.75002288818359 0 L 122.25 0 L 163 74.5 L 122.25 149 L 40.75 149 L 0 74.5 L 40.75002288818359 0 Z" stroke="none" fill="#cfd3da"/>
        </g>
        <g id="Polygon_2-5" data-name="Polygon 2" transform="translate(935 517) rotate(90)" fill="none">
          <path d="M122.25,0,163,74.5,122.25,149H40.75L0,74.5,40.75,0Z" stroke="none"/>
          <path d="M 41.34285736083984 1 L 1.139816284179688 74.5 L 41.34283447265625 148 L 121.6571655273438 148 L 161.8601837158203 74.5 L 121.6571655273438 1 L 41.34285736083984 1 M 40.75002288818359 0 L 122.25 0 L 163 74.5 L 122.25 149 L 40.75 149 L 0 74.5 L 40.75002288818359 0 Z" stroke="none" fill="#cfd3da"/>
        </g>
      </g>
    </g>
    <g id="pattern_plus_path-6" data-name="pattern plus path" transform="translate(-931 3810)">
      <g id="big_hexagon-6" data-name="big hexagon">
        <g id="Polygon_1-6" data-name="Polygon 1" transform="translate(1009 396) rotate(90)" fill="none">
          <path d="M122.25,0,163,74.5,122.25,149H40.75L0,74.5,40.75,0Z" stroke="none"/>
          <path d="M 41.34285736083984 1 L 1.139816284179688 74.5 L 41.34283447265625 148 L 121.6571655273438 148 L 161.8601837158203 74.5 L 121.6571655273438 1 L 41.34285736083984 1 M 40.75002288818359 0 L 122.25 0 L 163 74.5 L 122.25 149 L 40.75 149 L 0 74.5 L 40.75002288818359 0 Z" stroke="none" fill="#cfd3da"/>
        </g>
        <g id="Polygon_3-6" data-name="Polygon 3" transform="translate(1157 315) rotate(90)" fill="none">
          <path d="M122.25,0,163,74.5,122.25,149H40.75L0,74.5,40.75,0Z" stroke="none"/>
          <path d="M 41.34285736083984 1 L 1.139816284179688 74.5 L 41.34283447265625 148 L 121.6571655273438 148 L 161.8601837158203 74.5 L 121.6571655273438 1 L 41.34285736083984 1 M 40.75002288818359 0 L 122.25 0 L 163 74.5 L 122.25 149 L 40.75 149 L 0 74.5 L 40.75002288818359 0 Z" stroke="none" fill="#cfd3da"/>
        </g>
        <g id="Polygon_4-3" data-name="Polygon 4" transform="translate(1305 314) rotate(90)" fill="none">
          <path d="M122.25,0,163,74.5,122.25,149H40.75L0,74.5,40.75,0Z" stroke="none"/>
          <path d="M 41.34285736083984 1 L 1.139816284179688 74.5 L 41.34283447265625 148 L 121.6571655273438 148 L 161.8601837158203 74.5 L 121.6571655273438 1 L 41.34285736083984 1 M 40.75002288818359 0 L 122.25 0 L 163 74.5 L 122.25 149 L 40.75 149 L 0 74.5 L 40.75002288818359 0 Z" stroke="none" fill="#cfd3da"/>
        </g>
        <g id="Polygon_7-6" data-name="Polygon 7" transform="translate(1231 436) rotate(90)" fill="none">
          <path d="M122.25,0,163,74.5,122.25,149H40.75L0,74.5,40.75,0Z" stroke="none"/>
          <path d="M 41.34285736083984 1 L 1.139816284179688 74.5 L 41.34283447265625 148 L 121.6571655273438 148 L 161.8601837158203 74.5 L 121.6571655273438 1 L 41.34285736083984 1 M 40.75002288818359 0 L 122.25 0 L 163 74.5 L 122.25 149 L 40.75 149 L 0 74.5 L 40.75002288818359 0 Z" stroke="none" fill="#cfd3da"/>
        </g>
        <g id="Polygon_8-6" data-name="Polygon 8" transform="translate(1305 557) rotate(90)" fill="none">
          <path d="M122.25,0,163,74.5,122.25,149H40.75L0,74.5,40.75,0Z" stroke="none"/>
          <path d="M 41.34285736083984 1 L 1.139816284179688 74.5 L 41.34283447265625 148 L 121.6571655273438 148 L 161.8601837158203 74.5 L 121.6571655273438 1 L 41.34285736083984 1 M 40.75002288818359 0 L 122.25 0 L 163 74.5 L 122.25 149 L 40.75 149 L 0 74.5 L 40.75002288818359 0 Z" stroke="none" fill="#cfd3da"/>
        </g>
        <g id="Polygon_11-6" data-name="Polygon 11" transform="translate(1528 435) rotate(90)" fill="none">
          <path d="M122.25,0,163,74.5,122.25,149H40.75L0,74.5,40.75,0Z" stroke="none"/>
          <path d="M 41.34285736083984 1 L 1.139816284179688 74.5 L 41.34283447265625 148 L 121.6571655273438 148 L 161.8601837158203 74.5 L 121.6571655273438 1 L 41.34285736083984 1 M 40.75002288818359 0 L 122.25 0 L 163 74.5 L 122.25 149 L 40.75 149 L 0 74.5 L 40.75002288818359 0 Z" stroke="none" fill="#cfd3da"/>
        </g>
      </g>
    </g>
    <g id="pattern_plus_path-7" data-name="pattern plus path" transform="translate(104 3485)">
      <g id="big_hexagon-7" data-name="big hexagon">
        <g id="Polygon_1-7" data-name="Polygon 1" transform="translate(1009 396) rotate(90)" fill="none">
          <path d="M122.25,0,163,74.5,122.25,149H40.75L0,74.5,40.75,0Z" stroke="none"/>
          <path d="M 41.34285736083984 1 L 1.139816284179688 74.5 L 41.34283447265625 148 L 121.6571655273438 148 L 161.8601837158203 74.5 L 121.6571655273438 1 L 41.34285736083984 1 M 40.75002288818359 0 L 122.25 0 L 163 74.5 L 122.25 149 L 40.75 149 L 0 74.5 L 40.75002288818359 0 Z" stroke="none" fill="#cfd3da"/>
        </g>
        <g id="Polygon_3-7" data-name="Polygon 3" transform="translate(1157 315) rotate(90)" fill="none">
          <path d="M122.25,0,163,74.5,122.25,149H40.75L0,74.5,40.75,0Z" stroke="none"/>
          <path d="M 41.34285736083984 1 L 1.139816284179688 74.5 L 41.34283447265625 148 L 121.6571655273438 148 L 161.8601837158203 74.5 L 121.6571655273438 1 L 41.34285736083984 1 M 40.75002288818359 0 L 122.25 0 L 163 74.5 L 122.25 149 L 40.75 149 L 0 74.5 L 40.75002288818359 0 Z" stroke="none" fill="#cfd3da"/>
        </g>
        <g id="Polygon_4-4" data-name="Polygon 4" transform="translate(1305 314) rotate(90)" fill="none">
          <path d="M122.25,0,163,74.5,122.25,149H40.75L0,74.5,40.75,0Z" stroke="none"/>
          <path d="M 41.34285736083984 1 L 1.139816284179688 74.5 L 41.34283447265625 148 L 121.6571655273438 148 L 161.8601837158203 74.5 L 121.6571655273438 1 L 41.34285736083984 1 M 40.75002288818359 0 L 122.25 0 L 163 74.5 L 122.25 149 L 40.75 149 L 0 74.5 L 40.75002288818359 0 Z" stroke="none" fill="#cfd3da"/>
        </g>
        <g id="Polygon_5-6" data-name="Polygon 5" transform="translate(1453 395) rotate(90)" fill="none">
          <path d="M122.25,0,163,74.5,122.25,149H40.75L0,74.5,40.75,0Z" stroke="none"/>
          <path d="M 41.34285736083984 1 L 1.139816284179688 74.5 L 41.34283447265625 148 L 121.6571655273438 148 L 161.8601837158203 74.5 L 121.6571655273438 1 L 41.34285736083984 1 M 40.75002288818359 0 L 122.25 0 L 163 74.5 L 122.25 149 L 40.75 149 L 0 74.5 L 40.75002288818359 0 Z" stroke="none" fill="#cfd3da"/>
        </g>
        <g id="Polygon_6-6" data-name="Polygon 6" transform="translate(1601 314) rotate(90)" fill="none">
          <path d="M122.25,0,163,74.5,122.25,149H40.75L0,74.5,40.75,0Z" stroke="none"/>
          <path d="M 41.34285736083984 1 L 1.139816284179688 74.5 L 41.34283447265625 148 L 121.6571655273438 148 L 161.8601837158203 74.5 L 121.6571655273438 1 L 41.34285736083984 1 M 40.75002288818359 0 L 122.25 0 L 163 74.5 L 122.25 149 L 40.75 149 L 0 74.5 L 40.75002288818359 0 Z" stroke="none" fill="#cfd3da"/>
        </g>
        <g id="Polygon_7-7" data-name="Polygon 7" transform="translate(1231 436) rotate(90)" fill="none">
          <path d="M122.25,0,163,74.5,122.25,149H40.75L0,74.5,40.75,0Z" stroke="none"/>
          <path d="M 41.34285736083984 1 L 1.139816284179688 74.5 L 41.34283447265625 148 L 121.6571655273438 148 L 161.8601837158203 74.5 L 121.6571655273438 1 L 41.34285736083984 1 M 40.75002288818359 0 L 122.25 0 L 163 74.5 L 122.25 149 L 40.75 149 L 0 74.5 L 40.75002288818359 0 Z" stroke="none" fill="#cfd3da"/>
        </g>
        <g id="Polygon_8-7" data-name="Polygon 8" transform="translate(1305 557) rotate(90)" fill="none">
          <path d="M122.25,0,163,74.5,122.25,149H40.75L0,74.5,40.75,0Z" stroke="none"/>
          <path d="M 41.34285736083984 1 L 1.139816284179688 74.5 L 41.34283447265625 148 L 121.6571655273438 148 L 161.8601837158203 74.5 L 121.6571655273438 1 L 41.34285736083984 1 M 40.75002288818359 0 L 122.25 0 L 163 74.5 L 122.25 149 L 40.75 149 L 0 74.5 L 40.75002288818359 0 Z" stroke="none" fill="#cfd3da"/>
        </g>
        <g id="Polygon_9-6" data-name="Polygon 9" transform="translate(1453 557) rotate(90)" fill="none">
          <path d="M122.25,0,163,74.5,122.25,149H40.75L0,74.5,40.75,0Z" stroke="none"/>
          <path d="M 41.34285736083984 1 L 1.139816284179688 74.5 L 41.34283447265625 148 L 121.6571655273438 148 L 161.8601837158203 74.5 L 121.6571655273438 1 L 41.34285736083984 1 M 40.75002288818359 0 L 122.25 0 L 163 74.5 L 122.25 149 L 40.75 149 L 0 74.5 L 40.75002288818359 0 Z" stroke="none" fill="#cfd3da"/>
        </g>
        <g id="Polygon_10-6" data-name="Polygon 10" transform="translate(1601 638) rotate(90)" fill="none">
          <path d="M122.25,0,163,74.5,122.25,149H40.75L0,74.5,40.75,0Z" stroke="none"/>
          <path d="M 41.34285736083984 1 L 1.139816284179688 74.5 L 41.34283447265625 148 L 121.6571655273438 148 L 161.8601837158203 74.5 L 121.6571655273438 1 L 41.34285736083984 1 M 40.75002288818359 0 L 122.25 0 L 163 74.5 L 122.25 149 L 40.75 149 L 0 74.5 L 40.75002288818359 0 Z" stroke="none" fill="#cfd3da"/>
        </g>
        <g id="Polygon_11-7" data-name="Polygon 11" transform="translate(1157 638) rotate(90)" fill="none">
          <path d="M122.25,0,163,74.5,122.25,149H40.75L0,74.5,40.75,0Z" stroke="none"/>
          <path d="M 41.34285736083984 1 L 1.139816284179688 74.5 L 41.34283447265625 148 L 121.6571655273438 148 L 161.8601837158203 74.5 L 121.6571655273438 1 L 41.34285736083984 1 M 40.75002288818359 0 L 122.25 0 L 163 74.5 L 122.25 149 L 40.75 149 L 0 74.5 L 40.75002288818359 0 Z" stroke="none" fill="#cfd3da"/>
        </g>
        <g id="Polygon_12-6" data-name="Polygon 12" transform="translate(1379 679) rotate(90)" fill="none">
          <path d="M122.25,0,163,74.5,122.25,149H40.75L0,74.5,40.75,0Z" stroke="none"/>
          <path d="M 41.34285736083984 1 L 1.139816284179688 74.5 L 41.34283447265625 148 L 121.6571655273438 148 L 161.8601837158203 74.5 L 121.6571655273438 1 L 41.34285736083984 1 M 40.75002288818359 0 L 122.25 0 L 163 74.5 L 122.25 149 L 40.75 149 L 0 74.5 L 40.75002288818359 0 Z" stroke="none" fill="#cfd3da"/>
        </g>
        <g id="Polygon_2-6" data-name="Polygon 2" transform="translate(935 517) rotate(90)" fill="none">
          <path d="M122.25,0,163,74.5,122.25,149H40.75L0,74.5,40.75,0Z" stroke="none"/>
          <path d="M 41.34285736083984 1 L 1.139816284179688 74.5 L 41.34283447265625 148 L 121.6571655273438 148 L 161.8601837158203 74.5 L 121.6571655273438 1 L 41.34285736083984 1 M 40.75002288818359 0 L 122.25 0 L 163 74.5 L 122.25 149 L 40.75 149 L 0 74.5 L 40.75002288818359 0 Z" stroke="none" fill="#cfd3da"/>
        </g>
      </g>
    </g>
    <g id="pattern_plus_path-8" data-name="pattern plus path" transform="translate(-119 3931)">
      <g id="big_hexagon-8" data-name="big hexagon">
        <g id="Polygon_3-8" data-name="Polygon 3" transform="translate(1157 315) rotate(90)" fill="none">
          <path d="M122.25,0,163,74.5,122.25,149H40.75L0,74.5,40.75,0Z" stroke="none"/>
          <path d="M 41.34285736083984 1 L 1.139816284179688 74.5 L 41.34283447265625 148 L 121.6571655273438 148 L 161.8601837158203 74.5 L 121.6571655273438 1 L 41.34285736083984 1 M 40.75002288818359 0 L 122.25 0 L 163 74.5 L 122.25 149 L 40.75 149 L 0 74.5 L 40.75002288818359 0 Z" stroke="none" fill="#cfd3da"/>
        </g>
        <g id="Polygon_4-5" data-name="Polygon 4" transform="translate(1305 314) rotate(90)" fill="none">
          <path d="M122.25,0,163,74.5,122.25,149H40.75L0,74.5,40.75,0Z" stroke="none"/>
          <path d="M 41.34285736083984 1 L 1.139816284179688 74.5 L 41.34283447265625 148 L 121.6571655273438 148 L 161.8601837158203 74.5 L 121.6571655273438 1 L 41.34285736083984 1 M 40.75002288818359 0 L 122.25 0 L 163 74.5 L 122.25 149 L 40.75 149 L 0 74.5 L 40.75002288818359 0 Z" stroke="none" fill="#cfd3da"/>
        </g>
        <g id="Polygon_7-8" data-name="Polygon 7" transform="translate(1008 396) rotate(90)" fill="none">
          <path d="M122.25,0,163,74.5,122.25,149H40.75L0,74.5,40.75,0Z" stroke="none"/>
          <path d="M 41.34285736083984 1 L 1.139816284179688 74.5 L 41.34283447265625 148 L 121.6571655273438 148 L 161.8601837158203 74.5 L 121.6571655273438 1 L 41.34285736083984 1 M 40.75002288818359 0 L 122.25 0 L 163 74.5 L 122.25 149 L 40.75 149 L 0 74.5 L 40.75002288818359 0 Z" stroke="none" fill="#cfd3da"/>
        </g>
      </g>
    </g>
  </g>
</svg>
