<svg xmlns="http://www.w3.org/2000/svg" width="90.453" height="95.452" viewBox="0 0 90.453 95.452"><defs><style>.a{fill:#62c370;}.b,.d,.g,.i,.l,.m,.n,.p{fill:none;}.b,.d,.i,.j,.l,.m,.n{stroke:#010623;}.c{fill:#010623;}.d{stroke-dasharray:60 5;}.e,.j{fill:#fff;}.f{fill:#c3423f;}.g{stroke:#62c370;stroke-width:2px;}.g,.i,.j,.l,.m,.n{stroke-linecap:round;}.h{fill:#0498b4;}.i{stroke-dasharray:10 5;}.k{fill:#f6ce41;}.m{stroke-dasharray:30 5;}.n{stroke-dasharray:13 5;}.o{stroke:none;}</style></defs><g transform="translate(-927.5 -575.5)"><g transform="translate(915.5 584)"><path class="a" d="M28.086,21.48l-2.57-2.5-1.7,1.84,4.464,4.346,7.8-9.483L34.2,14.043Z" transform="translate(-1.534 -3.903)"/><path class="a" d="M28.086,21.48l-2.57-2.5-1.7,1.84,4.464,4.346,7.8-9.483L34.2,14.043Z" transform="translate(-1.534 12.857)"/><path class="a" d="M28.086,21.48l-2.57-2.5-1.7,1.84,4.464,4.346,7.8-9.483L34.2,14.043Z" transform="translate(-1.534 29.457)"/><path class="b" d="M28.086,59.89l-2.57-2.5-1.7,1.84,4.464,4.343,7.8-9.483L34.2,52.453Z" transform="translate(-1.534 -7.106)"/><path class="a" d="M28.086,21.48l-2.57-2.5-1.7,1.84,4.464,4.346,7.8-9.483L34.2,14.043Z" transform="translate(-1.534 46.097)"/><path class="b" d="M28.086,40.525l-2.57-2.5-1.7,1.84,4.464,4.343,7.8-9.483L34.2,33.085Z" transform="translate(-1.534 -4.482)"/><path class="b" d="M28.086,21.48l-2.57-2.5-1.7,1.84,4.464,4.346,7.8-9.483L34.2,14.043Z" transform="translate(-1.534 -1.903)"/><path class="b" d="M28.086,78.866l-2.57-2.5L23.82,78.2l4.464,4.343,7.8-9.483L34.2,71.429Z" transform="translate(-1.534 -9.677)"/><path class="c" d="M43.566,55H71.781v1.891H43.566Z" transform="translate(-4.209 -7.451)"/><path class="c" d="M43.566,60.48H71.781v1.891H43.566Z" transform="translate(-4.209 -8.194)"/><path class="c" d="M43.566,35.82H71.781v1.891H43.566Z" transform="translate(-4.209 -4.853)"/><path class="c" d="M43.566,41.3H71.781v1.891H43.566Z" transform="translate(-4.209 -5.595)"/><path class="c" d="M43.566,16.641H71.781v1.891H43.566Z" transform="translate(-4.209 -2.254)"/><path class="c" d="M43.566,22.121H71.781v1.891H43.566Z" transform="translate(-4.209 -2.997)"/><path class="c" d="M43.566,74.18H71.781v1.891H43.566Z" transform="translate(-4.209 -10.05)"/><path class="c" d="M43.566,79.66H71.781v1.891H43.566Z" transform="translate(-4.209 -10.792)"/><path class="d" d="M12.5,86.452H77.339V0H12.5ZM14.391,1.892H75.448v82.67H14.391Z"/></g><rect class="e" width="46" height="79" transform="translate(953 583)"/><g transform="translate(935.227 569.164)"><path class="f" d="M7299.309-3428.824v9.834h9.945Z" transform="translate(-7230.227 3439.892)"/><path class="d" d="M81.047,93.164a1.176,1.176,0,0,0,.832-.34A1.158,1.158,0,0,0,82.227,92V23.266a1.041,1.041,0,0,0-.023-.219.014.014,0,0,0,0-.008,1.221,1.221,0,0,0-.062-.2l0-.012a1.162,1.162,0,0,0-.094-.184l-.008-.016h0a.982.982,0,0,0-.125-.16s0-.008-.008-.012L67.227,7.192s-.008,0-.008-.008a.468.468,0,0,0-.047-.043.352.352,0,0,0-.039-.035.559.559,0,0,0-.059-.043l-.035-.023a.935.935,0,0,0-.082-.051s-.012,0-.016-.008l0,0a1.193,1.193,0,0,0-.566-.141H18.953a1.176,1.176,0,0,0-.832.34A1.158,1.158,0,0,0,17.773,8V92a1.158,1.158,0,0,0,.348.828,1.176,1.176,0,0,0,.832.34ZM67.578,10.914,78.3,22.07H67.578ZM20.117,9.18H65.234V23.266a1.127,1.127,0,0,0,1.145,1.148h13.5V90.82H20.117Z"/><path class="g" d="M7280-3414.325h8.713l-2.041,7.585" transform="translate(-7231.227 3438.836)"/><path class="a" d="M35.618,30.463l8.3,7.557a1.192,1.192,0,0,0,1.561.046L58.7,27.371l-1.9-1.679L44.77,35.426l-8.382-7.633a1.192,1.192,0,0,0-1.654.038l-9.808,9.743a1.3,1.3,0,0,0-.037,1.789,1.194,1.194,0,0,0,1.732.038Z" transform="translate(-1.413)"/><rect class="h" width="8" height="19" rx="1" transform="translate(52.773 38.836)"/><g class="i" transform="translate(50.773 38.836)"><rect class="o" width="8" height="19" rx="1"/><rect class="p" x="0.5" y="0.5" width="7" height="18" rx="0.5"/></g><g class="j" transform="translate(25.773 48.836)"><rect class="o" width="8" height="9" rx="1"/><rect class="p" x="0.5" y="0.5" width="7" height="8" rx="0.5"/></g><rect class="k" width="8" height="14" rx="1" transform="translate(39.773 43.836)"/><g class="l" transform="translate(37.773 43.836)"><rect class="o" width="8" height="14" rx="1"/><rect class="p" x="0.5" y="0.5" width="7" height="13" rx="0.5"/></g><path class="m" d="M24.551,38.709l10.391-9.852,7.783,7.226L57.672,24.776"/><path class="m" d="M24.551,38.709l10.391-9.852,7.783,7.226L57.672,24.776"/><path class="l" d="M50.773,23.438h8.47l-2.255,7.615" transform="translate(-1 1)"/><line class="n" x2="41" transform="translate(29.273 78.336)"/><rect class="k" width="22" height="2" transform="translate(30.773 67.836)"/><line class="b" x2="23" transform="translate(29.273 68.336)"/></g></g></svg>