<svg xmlns="http://www.w3.org/2000/svg" width="125.116" height="139" viewBox="0 0 125.116 139"><defs><style>.a{fill:#62c370;}.b,.d,.g,.h{fill:none;stroke:#04070b;}.b{stroke-dasharray:60 5;}.c{fill:#f6ce41;}.e{fill:#c3423f;}.f{fill:#0498b4;}.g{stroke-dasharray:20 5;}.h{stroke-dasharray:40 5;}</style></defs><g transform="translate(-6.893 -2)"><path class="a" d="M43.253,23.56s5.692,7.277,7.97,7.452S67.672,15.8,68.938,13.294s-2.285-6.708-6.393-3.507S51.223,21.11,51.223,21.11s-.185.813-3.265-3.387-7.847-.23-7.1,1.918A12.843,12.843,0,0,0,43.253,23.56Z" transform="translate(15.289 4.217)"/><path class="b" d="M25.751,59.672a4.208,4.208,0,0,0,4.206-4.206l.006-19.013a5.511,5.511,0,0,1,5.515-5.515h3.628A24.246,24.246,0,0,0,58.7,50.528v13.06a4.206,4.206,0,0,0,8.412,0V50.528A24.419,24.419,0,0,0,86.7,30.938h3.628a5.511,5.511,0,0,1,5.515,5.515V55.466a4.206,4.206,0,0,0,8.412,0l.006-19.013A14.088,14.088,0,0,0,90.185,22.379H86.557A23.9,23.9,0,0,0,62.9,2.5a24.158,24.158,0,0,0-23.8,19.879H35.479A14.088,14.088,0,0,0,21.4,36.453L21.4,55.466a4.242,4.242,0,0,0,4.353,4.206Zm24.964-36.13a3.853,3.853,0,0,1,5.368.147l4.064,4.353L69.58,17.885A3.8,3.8,0,0,1,75.1,23.105L62.908,36.166a3.846,3.846,0,0,1-5.51,0l-6.819-7.4a3.667,3.667,0,0,1,.136-5.221Z" transform="translate(6.544 0)"/><path class="c" d="M43.613,61.954A14.657,14.657,0,1,1,28.954,47.3,14.661,14.661,0,0,1,43.613,61.954" transform="translate(0.439 20.211)"/><path class="d" d="M43.613,61.954A14.657,14.657,0,1,1,28.954,47.3,14.661,14.661,0,0,1,43.613,61.954" transform="translate(3.342 20.211)"/><path class="e" d="M48.955,76.151A15.55,15.55,0,0,0,36.767,70.2H25.884A15.783,15.783,0,0,0,10.358,83.985L8.907,96.609a3.458,3.458,0,0,0,2.466,3.628A99.834,99.834,0,0,0,31.4,102.266c2.9,0,5.657-.147,8.418-.289l1.3-11.32a21.9,21.9,0,0,1,7.834-14.506Z" transform="translate(-2 30.542)"/><path class="d" d="M48.955,76.151A15.55,15.55,0,0,0,36.767,70.2H25.884A15.783,15.783,0,0,0,10.358,83.985L8.907,96.609a3.458,3.458,0,0,0,2.466,3.628A99.834,99.834,0,0,0,31.4,102.266c2.9,0,5.657-.147,8.418-.289l1.3-11.32a21.9,21.9,0,0,1,7.834-14.506Z" transform="translate(0.902 30.542)"/><path class="f" d="M94.765,61.954A14.633,14.633,0,1,1,80.135,47.3a14.644,14.644,0,0,1,14.63,14.654" transform="translate(29.389 20.211)"/><path class="g" d="M94.812,61.954A14.657,14.657,0,1,1,80.158,47.3,14.656,14.656,0,0,1,94.812,61.954" transform="translate(26.439 20.211)"/><path class="c" d="M102.1,84.087A15.569,15.569,0,0,0,86.575,70.3H75.692A15.55,15.55,0,0,0,63.5,76.253a21.735,21.735,0,0,1,7.981,14.511l1.3,11.32a79.064,79.064,0,0,0,8.27.289,99.886,99.886,0,0,0,20.027-2.029,3.259,3.259,0,0,0,2.466-3.628Z" transform="translate(28.442 30.588)"/><path class="g" d="M102.1,84.087A15.569,15.569,0,0,0,86.575,70.3H75.692A15.55,15.55,0,0,0,63.5,76.253a21.735,21.735,0,0,1,7.981,14.511l1.3,11.32a79.064,79.064,0,0,0,8.27.289,99.886,99.886,0,0,0,20.027-2.029,3.259,3.259,0,0,0,2.466-3.628Z" transform="translate(25.54 30.588)"/><path class="h" d="M62.513,75.4H51.629A15.783,15.783,0,0,0,36.1,89.184l-1.6,12.771a3.457,3.457,0,0,0,2.466,3.628A98.779,98.779,0,0,0,57,107.612a99.883,99.883,0,0,0,20.027-2.029,3.143,3.143,0,0,0,2.466-3.628l-1.6-12.771A15.529,15.529,0,0,0,62.513,75.4Z" transform="translate(12.45 32.887)"/><path class="f" d="M69.217,67.057A14.659,14.659,0,1,1,54.557,52.4,14.661,14.661,0,0,1,69.217,67.057" transform="translate(11.988 22.511)"/><path class="d" d="M69.217,67.057A14.659,14.659,0,1,1,54.557,52.4,14.661,14.661,0,0,1,69.217,67.057" transform="translate(14.89 22.511)"/></g></svg>