<?xml version="1.0" encoding="UTF-8"?>
<svg  width="36px" height="36px" viewBox="0 0 36 36" version="1.1" xmlns="http://www.w3.org/2000/svg" xmlns:xlink="http://www.w3.org/1999/xlink">
    <title>9B066D34-4EF0-4CB8-B96E-8FAA2D19E90D</title>
    <defs>
        <filter id="colorFilter">
            <feColorMatrix 
                color-interpolation-filters="sRGB"
                type="matrix"
                values="0.01 0   0   0   0
                        0   0.10  0   0   0
                        0   0   0.42  0   0
                        0   0   0   1   0 "/>
            </filter>
          </defs>
    <g id="HFW-0.4" stroke="none" stroke-width="1" >
        <g id="Analyze/CodeRepo/#1" transform="translate(-1456.000000, -28.000000)">
            <g id="Navbar">
                <g id="icon/help">
                    <g transform="translate(1456.000000, 28.000000)">
                        <g id="icon:help-with-circle">
                            <g>
                                <path  d="M18,0 C8.07157895,0 0,8.07157895 0,18 C0,27.9284211 8.07157895,36 18,36 C27.9284211,36 36,27.9284211 36,18 C36,8.07157895 27.9284211,0 18,0 Z M18,28.9136842 C16.9389474,28.9136842 16.0673684,28.0421053 16.0673684,26.9810526 C16.0673684,25.92 16.9389474,25.0484211 18,25.0484211 C19.0610526,25.0484211 19.9326316,25.92 19.9326316,26.9810526 C19.9326316,28.0421053 19.0989474,28.9136842 18,28.9136842 Z M19.8947368,18.9852632 C19.7052632,19.0610526 19.5536842,19.2884211 19.5536842,19.5536842 L19.5536842,21.4863158 C19.5536842,22.32 18.8715789,23.0021053 18.0378947,23.0021053 C17.2042105,23.0021053 16.5221053,22.32 16.5221053,21.4863158 L16.5221053,19.5536842 C16.5221053,17.9621053 17.5073684,16.56 18.9852632,16.0673684 C20.2357895,15.6505263 21.3347368,14.3621053 21.0315789,12.6189474 C20.8042105,11.4063158 19.8189474,10.4210526 18.6063158,10.1936842 C17.6968421,10.0421053 16.7873684,10.2694737 16.1052632,10.8378947 C15.3473684,11.4442105 14.9684211,12.3157895 14.9684211,13.1873684 C14.9684211,14.0210526 14.2863158,14.7031579 13.4526316,14.7031579 C12.6189474,14.7031579 11.9368421,14.0210526 11.9368421,13.1873684 C11.9368421,11.3684211 12.7326316,9.66315789 14.0968421,8.52631579 C15.4610526,7.35157895 17.28,6.85894737 19.0989474,7.2 C21.5621053,7.61684211 23.5705263,9.66315789 23.9873684,12.0884211 C24.5178947,15.1578947 22.8126316,18.0378947 19.8947368,18.9852632 Z" fill="#031A6B" id="Shape" ></path>
                            </g>
                        </g>
                    </g>
                </g>
            </g>
        </g>
    </g>
</svg>




