<svg xmlns="http://www.w3.org/2000/svg" width="116.678" height="138" viewBox="0 0 116.678 138"><defs><style>.a{fill:#f6ce41;}.b,.c,.h,.i{fill:none;}.b,.c,.d,.h,.i{stroke:#04070b;}.b{stroke-dasharray:25 5;}.d{fill:rgba(0,0,0,0);}.e{fill:#0498b4;}.f{fill:#62c370;}.g{fill:#c3423f;}.h{stroke-dasharray:7 2;}.i{stroke-dasharray:40 5;}</style></defs><g transform="translate(-17.186 -1.063)"><path class="a" d="M89.76,48.723a6.756,6.756,0,0,1-2.646-3.836L71.687,62.281a9.873,9.873,0,0,0-5.466-1.62,9.094,9.094,0,0,0-5.132,1.62l-12.9-14.81a37.428,37.428,0,0,1-3.4,3.035L56.98,63.685a11.1,11.1,0,0,0-2.238,6.64,11.481,11.481,0,0,0,22.959,0,11.07,11.07,0,0,0-2.164-6.544Z" transform="translate(13.965 19.056)"/><path class="b" d="M89.514,48.768a6.839,6.839,0,0,1-2.632-3.882L72.012,60.9A11.13,11.13,0,0,0,60.3,60.847L48.169,47.5a37.446,37.446,0,0,1-3.379,3.071L56.914,63.907a11.415,11.415,0,1,0,18.455.1Z" transform="translate(12.503 19.987)"/><path class="a" d="M92.939,18.031A13.752,13.752,0,0,0,81.57,14.169c-6.524.793-11.866,6.457-12.7,13.462a16.023,16.023,0,0,0,6.592,15.231,8.846,8.846,0,0,1,3.625,6.926l2.106-.006V33.535a4.514,4.514,0,0,1-2.075-3.845,4.16,4.16,0,1,1,8.3,0,4.521,4.521,0,0,1-2.075,3.845V49.782h2.1a8.867,8.867,0,0,1,3.667-6.949,15.9,15.9,0,0,0,6.68-13.144,16.2,16.2,0,0,0-4.854-11.659Z" transform="translate(29.403 5.767)"/><path class="c" d="M95.373,18.121a15.77,15.77,0,0,0-10.617-4.059,16.371,16.371,0,0,0-1.9.108,15.979,15.979,0,0,0-6.719,29.346,8.882,8.882,0,0,1,3.99,7.084L82.45,50.6V33.979a4.567,4.567,0,1,1,4.567,0V50.6h2.312a8.907,8.907,0,0,1,4.036-7.107,15.972,15.972,0,0,0,2.009-25.368Z" transform="translate(23.558 5.767)"/><path class="a" d="M76.562,44.06a2.115,2.115,0,0,0,2.283,1.872h4.567A2.115,2.115,0,0,0,85.7,44.06V42.188H76.562Z" transform="translate(31.545 18.741)"/><path class="c" d="M76.562,44.471a2.29,2.29,0,0,0,2.283,2.283h4.567A2.29,2.29,0,0,0,85.7,44.471V42.188H76.562Z" transform="translate(27.161 18.741)"/><path class="c" d="M78.125,1.563h4.567V10.7H78.125Z" transform="translate(27.882)"/><path class="d" d="M61.395,9.938l3.231-3.231,6.85,6.85-3.231,3.231Z" transform="translate(20.164 2.373)"/><path class="e" d="M89.062,54.688h8.594v59.366H89.062Z" transform="translate(35.85 24.508)"/><path class="b" d="M89.062,54.688H98.2v59.366H89.062Z" transform="translate(32.928 24.508)"/><path class="f" d="M42.188,73.438H52.525V105.4H42.188Z" transform="translate(12.765 33.158)"/><path class="c" d="M42.188,73.438h9.133V105.4H42.188Z" transform="translate(11.303 33.158)"/><path class="g" d="M57.812,76.562h9.346v27.4H57.812Z" transform="translate(20.382 34.599)"/><path class="c" d="M57.812,76.562h9.133v27.4H57.812Z" transform="translate(18.511 34.599)"/><path class="e" d="M34.624,64.062H25.675a2.227,2.227,0,0,0-2.237,2.2v35.258a6.713,6.713,0,0,0,13.424,0V66.266A2.227,2.227,0,0,0,34.624,64.062Z" transform="translate(4.937 29.532)"/><path class="b" d="M34.854,64.062H25.721a2.29,2.29,0,0,0-2.283,2.283v36.533a6.85,6.85,0,0,0,13.7,0V66.345A2.29,2.29,0,0,0,34.854,64.062Z" transform="translate(2.653 28.833)"/><path class="c" d="M73.438,60.938h9.133v50.233H73.438Z" transform="translate(25.72 27.391)"/><path class="h" d="M25,54.488v7.141a2.29,2.29,0,0,0,2.283,2.283H31.85a2.29,2.29,0,0,0,2.283-2.283V54.488a38.916,38.916,0,0,1-4.567.291A38.916,38.916,0,0,1,25,54.488Z" transform="translate(3.374 24.416)"/><ellipse class="e" cx="25" cy="26" rx="25" ry="26" transform="translate(23.686 11.563)"/><path class="i" d="M25.573,51.146A25.573,25.573,0,1,0,0,25.573,25.574,25.574,0,0,0,25.573,51.146Zm0-38.859a6.081,6.081,0,1,1-6.082,6.082,6.082,6.082,0,0,1,6.082-6.082ZM17.168,29.455A11.888,11.888,0,0,1,37.461,37.86H13.686a11.806,11.806,0,0,1,3.482-8.405Z" transform="translate(17.686 11.792)"/><path class="c" d="M7087.982,1185.647l-1.555-1.6-7.079,7.258,3.233,3.056,5.4-5.511" transform="translate(-6954.477 -1175.11)"/></g></svg>