<?xml version="1.0" encoding="UTF-8"?>
<svg width="36px" height="36px" viewBox="0 0 36 36" version="1.1" xmlns="http://www.w3.org/2000/svg" xmlns:xlink="http://www.w3.org/1999/xlink">
    <title>B7EAFB0C-652D-4D7B-A784-7E7B4DB0DF59</title>
    <defs>
        <filter id="filter-1">
            <feColorMatrix in="SourceGraphic" type="matrix" values="0 0 0 0 0.913725 0 0 0 0 0.921569 0 0 0 0 0.913725 0 0 0 0.400000 0"></feColorMatrix>
        </filter>
    </defs>
    <g id="HFW-0.4" stroke="none" stroke-width="1" fill="none" fill-rule="evenodd">
        <g id="Analyze/CodeRepo/#1" transform="translate(-58.000000, -337.000000)">
            <g id="Sidebar-Projects" transform="translate(0.000000, 145.000000)">
                <g id="Sidebar-tab---settings" transform="translate(48.000000, 192.000000)">
                    <g id="icon:settings" transform="translate(10.000000, 0.000000)">
                        <g filter="url(#filter-1)">
                            <g>
                                <g id="Group" fill="#000000" fill-rule="nonzero">
                                    <path d="M34.575,14.7 L30.1125,14.25 C29.9625,14.25 29.8125,14.1375 29.775,13.9875 C29.5875,13.5 29.4,13.0125 29.175,12.525 C29.1,12.375 29.1375,12.225 29.2125,12.075 L32.025,8.625 C32.475,8.0625 32.4375,7.275 31.9125,6.75 L29.25,4.05 C28.7625,3.5625 27.9375,3.4875 27.375,3.9375 L23.925,6.75 C23.8125,6.8625 23.625,6.8625 23.475,6.7875 C22.9875,6.5625 22.5375,6.3375 22.0125,6.1875 C21.8625,6.15 21.75,6 21.75,5.85 L21.3,1.425 C21.225,0.7125 20.625,0.1875 19.9125,0.1875 L16.0875,0.1875 C15.375,0.1875 14.775,0.7125 14.7,1.425 L14.25,5.8875 C14.25,6.0375 14.1375,6.1875 13.9875,6.225 C13.5,6.4125 13.0125,6.6 12.525,6.825 C12.375,6.9 12.225,6.8625 12.075,6.7875 L8.625,3.975 C8.0625,3.525 7.275,3.5625 6.75,4.0875 L4.05,6.75 C3.5625,7.2375 3.4875,8.0625 3.9375,8.625 L6.75,12.075 C6.8625,12.1875 6.8625,12.375 6.7875,12.525 C6.5625,13.0125 6.3375,13.4625 6.1875,13.9875 C6.15,14.1375 6,14.25 5.85,14.25 L1.425,14.7 C0.7125,14.775 0.1875,15.375 0.1875,16.0875 L0.1875,19.9125 C0.1875,20.625 0.7125,21.225 1.425,21.3 L5.8875,21.75 C6.0375,21.75 6.1875,21.8625 6.225,22.0125 C6.4125,22.5 6.6,22.9875 6.825,23.475 C6.9,23.625 6.8625,23.775 6.7875,23.925 L3.975,27.375 C3.525,27.9375 3.5625,28.725 4.0875,29.25 L6.7875,31.95 C7.275,32.4375 8.1,32.5125 8.6625,32.0625 L12.1125,29.25 C12.225,29.1375 12.4125,29.1375 12.5625,29.2125 C13.05,29.4375 13.5,29.6625 14.025,29.8125 C14.175,29.85 14.2875,30 14.2875,30.15 L14.7375,34.575 C14.8125,35.2875 15.4125,35.8125 16.125,35.8125 L19.95,35.8125 C20.6625,35.8125 21.2625,35.2875 21.3375,34.575 L21.75,30.1125 C21.75,29.9625 21.8625,29.8125 22.0125,29.775 C22.5,29.5875 22.9875,29.4 23.475,29.175 C23.625,29.1 23.775,29.1375 23.925,29.2125 L27.375,32.025 C27.9375,32.475 28.725,32.4375 29.25,31.9125 L31.95,29.2125 C32.4375,28.725 32.5125,27.9 32.0625,27.3375 L29.25,23.8875 C29.1375,23.775 29.1375,23.5875 29.2125,23.4375 C29.4375,22.95 29.6625,22.5 29.8125,21.975 C29.85,21.825 30,21.7125 30.15,21.7125 L34.575,21.2625 C35.2875,21.1875 35.8125,20.5875 35.8125,19.875 L35.8125,16.0875 C35.8125,15.375 35.2875,14.775 34.575,14.7 Z M18,26.1375 C13.5375,26.1375 9.8625,22.5 9.8625,18 C9.8625,13.5375 13.5,9.8625 18,9.8625 C22.5,9.8625 26.1375,13.5375 26.1375,18 C26.1375,22.4625 22.4625,26.1375 18,26.1375 Z" id="Shape"></path>
                                    <path d="M18,13.05 C15.2625,13.05 13.05,15.2625 13.05,18 C13.05,20.7375 15.2625,22.95 18,22.95 C20.7375,22.95 22.95,20.7375 22.95,18 C22.95,15.2625 20.7375,13.05 18,13.05 Z" id="Path"></path>
                                </g>
                            </g>
                        </g>
                    </g>
                </g>
            </g>
        </g>
    </g>
</svg>