<svg width="100%" height="100%" viewBox="0 0 123 125">
    <g id="Page-1" stroke="none" stroke-width="1" fill="none" fill-rule="evenodd">
        <g id="icon-repositories">
            <polygon id="Path" fill="#F6CE41" fill-rule="nonzero" points="93.136 12.548 83.999 34.332 114.221 34.332 122.129 12.548"></polygon>
            <polygon id="Path" fill="#C3423F" fill-rule="nonzero" points="93.136 57.527 83.999 79.311 114.221 79.311 122.129 57.527"></polygon>
            <polygon id="Path" fill="#62C370" fill-rule="nonzero" points="93.136 102.505 83.999 124.289 114.221 124.289 122.129 102.505"></polygon>
            <path d="M39.054,100.899 C53.22,100.899 67.477,96.899 70.831,91.994 C71.0600679,91.6602331 71.1820013,91.2648114 71.1820013,90.86 L71.1820013,33.63 C71.1820013,25.151 54.631,20.578 39.054,20.578 C23.477,20.578 6.92599871,25.154 6.92599871,33.63 L6.92599871,90.859 C6.92599871,91.2638114 7.04793211,91.6592331 7.277,91.993 C10.801,97.154 24.165,100.899 39.055,100.899 L39.054,100.899 Z M39.054,24.599 C56.474,24.599 67.166,29.86 67.166,33.635 C67.166,37.41 56.474,42.671 39.054,42.671 C21.634,42.671 10.942,37.407 10.942,33.63 C10.942,29.853 21.634,24.596 39.054,24.596 L39.054,24.599 Z M41.654,46.637 C43.095,46.582 43.823,46.537 44.554,46.491 C45.869,46.391 46.723,46.32 47.571,46.225 C47.771,46.205 47.983,46.175 48.193,46.155 C48.876,46.075 49.558,45.989 50.231,45.889 C50.431,45.859 50.631,45.834 50.831,45.799 C51.654,45.674 52.467,45.538 53.271,45.382 L53.713,45.292 C54.381,45.161 55.038,45.016 55.686,44.865 C55.886,44.815 56.103,44.765 56.308,44.714 C57.076,44.523 57.834,44.327 58.562,44.114 L58.597,44.104 C59.31,43.893 60.003,43.662 60.665,43.426 L61.217,43.226 C61.7843333,43.0153333 62.3366667,42.7943333 62.874,42.563 C62.979,42.518 63.09,42.473 63.19,42.427 C63.802,42.161 64.38,41.875 64.937,41.569 C65.078,41.494 65.208,41.413 65.337,41.338 C65.775,41.087 40.775,46.664 41.649,46.63 L41.654,46.637 Z M34.901,82.717 L35.077,82.717 C35.629,82.742 42.477,82.742 43.029,82.717 C53.18,82.245 24.923,82.245 34.901,82.717 Z" id="Shape" fill="#0498B4" fill-rule="nonzero"></path>
            <path d="M32.628,100.899 C46.794,100.899 61.051,96.899 64.405,91.994 C64.6340679,91.6602331 64.7560013,91.2648114 64.7560013,90.86 L64.7560013,33.63 C64.7560013,25.151 48.205,20.578 32.628,20.578 C17.051,20.578 0.499998706,25.154 0.499998706,33.63 L0.499998706,90.859 C0.499998706,91.2638114 0.621932115,91.6592331 0.851,91.993 C4.375,97.154 17.739,100.899 32.629,100.899 L32.628,100.899 Z M32.628,24.599 C50.048,24.599 60.74,29.86 60.74,33.635 C60.74,37.41 50.048,42.671 32.628,42.671 C15.208,42.671 4.516,37.407 4.516,33.63 C4.516,29.853 15.208,24.596 32.628,24.596 L32.628,24.599 Z M4.516,40.203 C4.576,40.248 4.647,40.288 4.707,40.328 C4.822,40.408 4.948,40.489 5.068,40.569 C5.46,40.835 5.876,41.091 6.313,41.332 C6.449,41.407 6.584,41.488 6.713,41.563 C7.265,41.863 7.848,42.15 8.46,42.421 C8.56,42.466 8.671,42.511 8.776,42.557 C9.31333333,42.7876667 9.86566667,43.0086667 10.433,43.22 L10.985,43.42 C11.658,43.656 12.34,43.887 13.053,44.098 L13.088,44.108 C13.816,44.324 14.574,44.52 15.342,44.708 C15.542,44.758 15.754,44.808 15.964,44.859 C16.612,45.01 17.269,45.159 17.937,45.286 L18.379,45.376 C19.179,45.527 19.985,45.667 20.819,45.793 L21.419,45.883 C22.092,45.983 22.774,46.069 23.457,46.149 C23.657,46.174 23.869,46.199 24.079,46.219 C24.927,46.309 25.779,46.39 26.639,46.455 L27.096,46.485 C27.824,46.535 28.557,46.575 29.29,46.605 L29.998,46.63 C30.866,46.66 31.74,46.68 32.608,46.68 C33.476,46.68 34.345,46.66 35.218,46.63 L35.926,46.605 C36.659,46.575 37.387,46.535 38.12,46.485 L38.577,46.455 C39.435,46.39 40.289,46.314 41.137,46.219 C41.337,46.199 41.549,46.169 41.759,46.149 C42.442,46.069 43.124,45.983 43.797,45.883 C43.997,45.853 44.197,45.828 44.397,45.793 C45.22,45.668 46.033,45.532 46.837,45.376 L47.279,45.286 C47.947,45.155 48.604,45.01 49.252,44.859 C49.452,44.809 49.669,44.759 49.874,44.708 C50.642,44.517 51.4,44.321 52.128,44.108 L52.163,44.098 C52.876,43.887 53.569,43.656 54.231,43.42 L54.783,43.22 C55.3503333,43.0093333 55.9026667,42.7883333 56.44,42.557 C56.545,42.512 56.656,42.467 56.756,42.421 C57.368,42.155 57.946,41.869 58.503,41.563 C58.644,41.488 58.774,41.407 58.903,41.332 C59.34,41.086 59.751,40.832 60.148,40.569 C60.268,40.489 60.394,40.408 60.509,40.328 C60.569,40.288 60.64,40.248 60.7,40.203 L60.7,51.703 C60.7,54.745 53.727,58.761 41.885,60.197 C41.554,60.237 41.217,60.267 40.885,60.302 C40.4283333,60.352 39.9666667,60.3973333 39.5,60.438 C39.033,60.478 38.536,60.518 38.054,60.548 C37.607,60.578 37.154,60.603 36.699,60.628 C36.244,60.653 35.841,60.673 35.399,60.688 C34.48,60.718 33.547,60.738 32.588,60.738 C31.629,60.738 30.695,60.718 29.777,60.688 C29.34,60.673 28.914,60.648 28.477,60.628 C28.04,60.608 27.568,60.578 27.122,60.548 C26.635,60.518 26.153,60.478 25.676,60.438 C25.199,60.398 24.747,60.353 24.291,60.302 L23.291,60.197 C11.488,58.762 4.516,54.746 4.516,51.704 L4.516,40.203 Z M4.516,59.003 C9.621,62.045 18.497,64.174 28.472,64.645 L28.648,64.645 C29.2,64.67 29.757,64.695 30.315,64.71 C31.088,64.73 31.856,64.745 32.624,64.745 C33.392,64.745 34.16,64.73 34.933,64.71 C35.495,64.695 36.047,64.67 36.6,64.645 L36.775,64.645 C46.755,64.173 55.625,62.045 60.731,59.003 L60.741,69.776 C60.741,72.818 53.768,76.834 41.926,78.27 C41.595,78.31 41.258,78.34 40.926,78.375 C40.4693333,78.425 40.0076667,78.4703333 39.541,78.511 C39.074,78.551 38.577,78.591 38.095,78.621 C37.648,78.651 37.195,78.676 36.74,78.701 C36.285,78.726 35.882,78.746 35.44,78.761 C34.521,78.791 33.588,78.811 32.629,78.811 C31.67,78.811 30.736,78.791 29.818,78.761 C29.381,78.746 28.955,78.721 28.518,78.701 C28.081,78.681 27.609,78.651 27.163,78.621 C26.676,78.591 26.194,78.551 25.717,78.511 C25.24,78.471 24.788,78.426 24.332,78.375 L23.332,78.27 C11.489,76.83 4.516,72.818 4.516,69.776 L4.516,59.003 Z M4.516,77.074 C9.621,80.116 18.497,82.245 28.472,82.716 L28.648,82.716 C29.2,82.741 29.757,82.766 30.315,82.781 C31.088,82.801 31.856,82.816 32.624,82.816 C33.392,82.816 34.16,82.801 34.933,82.781 C35.495,82.766 36.047,82.741 36.6,82.716 L36.775,82.716 C46.755,82.244 55.625,80.116 60.731,77.074 L60.731,90.152 C57.931,93.099 46.555,96.884 32.631,96.884 C19.131,96.884 7.546,93.491 4.519,90.167 L4.516,77.074 Z" id="Shape" stroke="#010623" stroke-dasharray="45"></path>
            <path d="M120.632,7.407 C120.259974,6.85373282 119.636714,6.52222754 118.97,6.523 L108.368,6.523 L106.817,1.875 C106.547058,1.05444865 105.780813,0.5 104.917,0.5 L76.803,0.5 C76.2178569,0.502141403 75.6626046,0.758789264 75.2818434,1.20310669 C74.9010821,1.64742411 74.7325002,2.23543206 74.82,2.814 L78.836,28.914 C78.836,28.949 78.861,28.974 78.866,29.014 C78.897144,29.1649466 78.9461558,29.3116466 79.012,29.451 C79.037,29.506 79.062,29.561 79.092,29.617 C79.112,29.657 79.127,29.697 79.152,29.737 L79.158,29.737 C79.2176419,29.8229127 79.2845546,29.9035425 79.358,29.978 C79.3853427,30.0136324 79.4154347,30.047068 79.448,30.078 L79.443,30.078 C79.5841177,30.20845 79.7430358,30.3182112 79.915,30.404 C79.955,30.424 80,30.434 80.046,30.454 C80.1878352,30.5131041 80.3362181,30.5550676 80.488,30.579 C80.518,30.579 80.548,30.604 80.588,30.609 C80.668,30.614 80.744,30.6190031 80.824,30.6190031 L110.944,30.6190031 C111.76548,30.6204393 112.504991,30.1213587 112.811,29.359 L120.838,9.275 C121.084721,8.65554385 121.007519,7.9539831 120.632,7.403 L120.632,7.407 Z M79.142,4.516 L103.469,4.516 L104.137,6.524 L88.851,6.524 C88.0295196,6.52256071 87.2900088,7.02164134 86.984,7.784 L81.684,21.036 L79.142,4.516 Z M109.579,26.604 L83.787,26.604 L90.213,10.54 L116.005,10.54 L109.579,26.604 Z" id="Shape" stroke="#010623" stroke-dasharray="20"></path>
            <path d="M118.97,50.7 L108.368,50.7 L106.817,46.052 C106.547058,45.2314487 105.780813,44.677 104.917,44.677 L76.803,44.677 C76.2178569,44.6791414 75.6626046,44.9357893 75.2818434,45.3801067 C74.9010821,45.8244241 74.7325002,46.4124321 74.82,46.991 L78.836,73.091 C78.836,73.126 78.861,73.151 78.866,73.191 C78.8971531,73.3419442 78.9461647,73.488643 79.012,73.628 C79.037,73.683 79.062,73.738 79.092,73.794 C79.112,73.834 79.127,73.874 79.152,73.914 L79.158,73.914 C79.217638,73.9999157 79.284551,74.0805458 79.358,74.155 C79.3853364,74.1906376 79.4154288,74.2240737 79.448,74.255 L79.443,74.255 C79.5841177,74.38545 79.7430358,74.4952112 79.915,74.581 C79.955,74.601 80,74.611 80.046,74.631 C80.1878321,74.6901131 80.336216,74.7320769 80.488,74.756 C80.518,74.756 80.548,74.781 80.588,74.786 C80.668,74.791 80.744,74.7960031 80.824,74.7960031 L110.944,74.7960031 C111.76548,74.7974393 112.504991,74.2983587 112.811,73.536 L120.843,53.456 C121.091069,52.8366717 121.015502,52.1345951 120.641321,51.5822417 C120.26714,51.0298883 119.643162,50.6993221 118.976,50.7 L118.97,50.7 Z M79.142,48.692 L103.469,48.692 L104.137,50.7 L88.851,50.7 C88.0295196,50.6985607 87.2900088,51.1976413 86.984,51.96 L81.684,65.212 L79.142,48.692 Z M109.579,70.776 L83.787,70.776 L90.213,54.712 L116.005,54.712 L109.579,70.776 Z" id="Shape" stroke="#010623"></path>
            <path d="M112.807,119.722 L120.839,99.642 C121.087069,99.0226717 121.011502,98.3205951 120.637321,97.7682417 C120.26314,97.2158883 119.639162,96.8853221 118.972,96.886 L108.372,96.886 L106.818,92.235 C106.548058,91.4144487 105.781813,90.86 104.918,90.86 L76.804,90.86 C76.2188569,90.8621414 75.6636046,91.1187893 75.2828434,91.5631067 C74.9020821,92.0074241 74.7335002,92.5954321 74.821,93.174 L78.837,119.274 C78.837,119.309 78.862,119.334 78.867,119.374 C78.8981531,119.524944 78.9471647,119.671643 79.013,119.811 C79.038,119.866 79.063,119.921 79.093,119.977 C79.1109883,120.017975 79.1310133,120.058025 79.153,120.097 L79.158,120.097 C79.217634,120.182919 79.2845473,120.263549 79.358,120.338 C79.3853395,120.373635 79.4154318,120.407071 79.448,120.438 L79.443,120.438 C79.5841177,120.56845 79.7430358,120.678211 79.915,120.764 C79.955,120.784 80,120.794 80.046,120.814 C80.1877886,120.873456 80.3361738,120.915755 80.488,120.94 C80.518,120.94 80.548,120.965 80.588,120.97 C80.668,120.975 80.744,120.980003 80.824,120.980003 L110.944,120.980003 C111.76548,120.981439 112.504991,120.482359 112.811,119.72 L112.807,119.722 Z M79.143,94.876 L103.47,94.876 L104.138,96.884 L88.852,96.884 C88.0305196,96.8825607 87.2910088,97.3816413 86.985,98.144 L81.685,111.396 L79.143,94.876 Z M83.781,116.964 L90.207,100.9 L116.007,100.9 L109.579,116.964 L83.781,116.964 Z" id="Shape" stroke="#010623" stroke-dasharray="25"></path>
            <polygon id="Path" fill="#010623" fill-rule="nonzero" points="30.619 12.548 34.635 12.548 34.635 16.564 30.619 16.564"></polygon>
            <polygon id="Path" fill="#010623" fill-rule="nonzero" points="30.619 4.516 34.635 4.516 34.635 8.532 30.619 8.532"></polygon>
            <polygon id="Path" fill="#010623" fill-rule="nonzero" points="38.651 4.516 42.667 4.516 42.667 8.532 38.651 8.532"></polygon>
            <polygon id="Path" fill="#010623" fill-rule="nonzero" points="46.683 4.516 50.699 4.516 50.699 8.532 46.683 8.532"></polygon>
            <polygon id="Path" fill="#010623" fill-rule="nonzero" points="54.715 4.516 58.731 4.516 58.731 8.532 54.715 8.532"></polygon>
            <polygon id="Path" fill="#010623" fill-rule="nonzero" points="62.747 4.516 66.763 4.516 66.763 8.532 62.747 8.532"></polygon>
            <polygon id="Path" fill="#010623" fill-rule="nonzero" points="30.619 104.915 34.635 104.915 34.635 108.931 30.619 108.931"></polygon>
            <polygon id="Path" fill="#010623" fill-rule="nonzero" points="30.619 112.947 34.635 112.947 34.635 116.963 30.619 116.963"></polygon>
            <polygon id="Path" fill="#010623" fill-rule="nonzero" points="38.651 112.947 42.667 112.947 42.667 116.963 38.651 116.963"></polygon>
            <polygon id="Path" fill="#010623" fill-rule="nonzero" points="46.683 112.947 50.699 112.947 50.699 116.963 46.683 116.963"></polygon>
            <polygon id="Path" fill="#010623" fill-rule="nonzero" points="54.715 112.947 58.731 112.947 58.731 116.963 54.715 116.963"></polygon>
            <polygon id="Path" fill="#010623" fill-rule="nonzero" points="62.747 112.947 66.763 112.947 66.763 116.963 62.747 116.963"></polygon>
        </g>
    </g>
</svg>