<svg width="100%" height="100%" viewBox="0 0 779.643 649"><defs><style>.a,.p{fill:none;}.b{fill:#f2f2f2;}.c{fill:#1f28cf;}.d{clip-path:url(#c);}.e{fill:#b28b67;}.f{fill:#191847;}.g{fill:#997659;}.h{fill:#e4e4e4;}.i{fill:#2b44ff;}.j{fill:#dde3e9;}.k{fill:#2f3676;}.l{fill:rgba(0,0,0,0.1);}.m{fill:rgba(255,255,255,0.2);}.n{fill:#cfd3da;opacity:0.522;}.o{fill:#6d7275;}.p{stroke:#fff;stroke-width:2px;}.q{fill:#62c370;}.r{opacity:0.302;}.s{fill:#c3423f;}.t{fill:#c5cfd6;}.u{fill:#db2721;}.v{fill:#ff4133;}.w{fill:#69a1ac;}.x{fill:#89c5cc;}.y{fill:#e87613;}.z{fill:#ff9b21;}.aa{filter:url(#a);}</style><filter id="a" x="0" y="14.827" width="308.249" height="491.502" filterUnits="userSpaceOnUse"><feOffset dx="-10" dy="22" input="SourceAlpha"/><feGaussianBlur stdDeviation="17" result="b"/><feFlood flood-opacity="0.102"/><feComposite operator="in" in2="b"/><feComposite in="SourceGraphic"/></filter><clipPath id="c"><rect class="a" width="319" height="504"/></clipPath></defs><g transform="translate(-1.357 -822)"><path class="b" d="M422.84,60.381c46.8,24.6,103.881,44.667,100.787,63.027-3.094,18.314-66.345,34.873-136.443,49.863-70.206,15.008-147.149,28.446-207.344,20.028S76.175,154.517,63.6,123.861s5.439-61.682,50.486-86.1,116.9-42.34,171.209-36.717S376.036,35.743,422.84,60.381Z" transform="translate(257.254 1237.462)"/><g transform="translate(57 822)"><g transform="matrix(0.999, -0.035, 0.035, 0.999, 0, 11.796)"><g class="aa" transform="matrix(1, 0.03, -0.03, 1, -55.2, -13.73)"><rect class="b" width="193" height="383" rx="36.45" transform="matrix(1, -0.03, 0.03, 1, 61, 50.56)"/></g><path class="c" d="M141.974,358.319H24.3A24.28,24.28,0,0,1,0,334.019V24.3A24.279,24.279,0,0,1,24.3,0H38.6A12.864,12.864,0,0,0,42.4,9.153a12.86,12.86,0,0,0,9.153,3.791h63.678a12.86,12.86,0,0,0,9.153-3.791A12.859,12.859,0,0,0,128.172,0h13.8a24.28,24.28,0,0,1,24.3,24.3V334.019a24.279,24.279,0,0,1-24.3,24.3Z" transform="translate(17.599 51.255)"/><g transform="translate(19)"><rect class="a" width="319" height="504"/><g class="d"><g transform="translate(-84.983 -129.632) rotate(14)"><g transform="matrix(0.848, 0.53, -0.53, 0.848, 295.921, 109.892)"><g transform="translate(47.499 27.022)"><path class="e" d="M0,63.631,7.267,30.063C3.215,25.349.471,19.571.929,13.1,2.251-5.557,28.454-1.453,33.551,7.962s4.492,33.3-2.1,34.979c-2.627.671-8.224-.973-13.92-4.375l3.575,25.065Z" transform="translate(0 0)"/></g><path class="f" d="M46.061,47.07c-3.238,0-6.241-2.051-8.455-5.775a26.383,26.383,0,0,1-3.3-13.114c0-.335.007-.68.021-1.025a53.564,53.564,0,0,0-6.65,5.741,51.994,51.994,0,0,1-7.2,6.135,15.5,15.5,0,0,1-8.64,2.807,10.7,10.7,0,0,1-8.572-4.7A17.014,17.014,0,0,1,0,27.176a13.567,13.567,0,0,1,.669-4.312,10.355,10.355,0,0,1,2.1-3.669,9.887,9.887,0,0,1,3.676-2.55,14.307,14.307,0,0,1,5.393-.956c12.434,0,18.513,1.78,23.815,4.452a16.938,16.938,0,0,1,4.564-7.051,7.075,7.075,0,0,1,2.1-1.476,9.882,9.882,0,0,1,1.754-.745,44.6,44.6,0,0,1,12.92-2.15c.691-.024,1.384-.036,2.057-.036.256,0,.514,0,.766.005A8.622,8.622,0,0,1,62.4,2.544,8.813,8.813,0,0,1,77.406,8.716a8.747,8.747,0,0,1-8.319,8.7,44.608,44.608,0,0,1-9.839,1.658,18.1,18.1,0,0,1,.567,4.676,26.156,26.156,0,0,1-.491,4.862,4.109,4.109,0,0,0-3.028-1.6,5.217,5.217,0,0,0-3.806,1.605,5.3,5.3,0,0,0-1.472,3.625A6.684,6.684,0,0,0,52.376,36.5a4.856,4.856,0,0,0,3.54,1.837,23.409,23.409,0,0,1-4.553,6.232A7.979,7.979,0,0,1,46.061,47.07Z" transform="translate(6.157 17.433)"/></g><g transform="translate(141.609 290.731)"><path class="c" d="M0,13.918S31.666,22.8,54.641,22.8,97.321,9.12,97.321,9.12,66.333,0,46.281,0,0,13.918,0,13.918Z" transform="translate(85.719 72.678)"/><path class="g" d="M53.035,104.021a5,5,0,0,1-.512-1C49.7,95.531,4.5,14.766,0,0H50.887c3.424,11.227,18.833,81.681,21,95.737,6.842,22.173,20.93,93.982,22.728,98.957,1.892,5.233-8.753,10.685-11.59,4.251-4.514-10.237-15.268-38.563-20.057-55.859C58.481,126.872,54.826,112.284,53.035,104.021Z" transform="translate(105.6)"/><path class="e" d="M108.091,113.881c-20.664,5.24-96.248,14.712-101.435,16.2-5.336,1.528-10.014-9.505-3.419-11.9,10.494-3.8,39.41-12.59,56.942-16.176,14.1-2.884,26.97-5.238,35.609-6.616C95.056,71.046,91.711,12.619,93.9,0h45.025c-2.1,12.1-19.879,100.4-23.183,109.233-1.049,3.155-4.177,4.55-7.655,4.648Z" transform="translate(8.911 0)"/><g transform="matrix(0.174, 0.985, -0.985, 0.174, 34.232, 109.023)"><path class="h" d="M4.474,5.033A2,2,0,0,0,1.908,6.381L0,13.106A64.242,64.242,0,0,0,.9,21H57.3s2.2-7.268-2.538-7.848-7.87-1.047-7.87-1.047L20.68.419a1,1,0,0,0-1.332.532L17.663,5.039s-4.385,2.046-7.127,2.046Z" transform="translate(1 19)"/></g><g transform="translate(183.04 175.686)"><path class="h" d="M3.937,4.482a1.759,1.759,0,0,0-2.257,1.19L0,11.609a56.891,56.891,0,0,0,.793,6.969H50.427s1.935-6.417-2.234-6.928-6.925-.924-6.925-.924L18.2.409a.879.879,0,0,0-1.172.47L15.544,4.487S11.685,6.294,9.272,6.294Z" transform="translate(0.88 16.735)"/></g><path class="i" d="M20.556,4.334s29.762-8.543,56.32,0C83.036,32.53,98,43.721,100.636,86.95c-29.92,14.915-66.88-10.637-97.68,3.908C-5.844,70.513,6.476,21.518,20.556,4.334Z" transform="translate(82.404 -4.334)"/></g><g transform="translate(210.282 165.706) rotate(21)"><path class="e" d="M.987,72.3c-.9-.554-1.88-2.638.494-4.267,5.918-4.059,14.445-11.162,15.6-13.5,2.357-4.782,10.382-51.4,10.382-51.4L44.267,3.2S28.7,53.464,27.461,56.539c-1.861,4.613,2.077,11.639,3.761,15.415-2.654,1.188-3.888-.329-5.238-1.845-1.439-1.617-3.012-3.233-6.582-1.572-4.568,2.126-8.346,5.5-12.848,5.5A10.444,10.444,0,0,1,.987,72.3Zm143.721-45.23L121.017,13.1,128.583,0l22.783,22.231A69.046,69.046,0,0,1,167.66,31.6c.953,1.149,1.989,3.35-2.491,2.365s-9.237-1.819-10.078-.363,1.639,3.69.083,5.6a.589.589,0,0,1-.477.228Q152.552,39.429,144.707,27.068Z" transform="translate(27.475 71.695)"/><path class="f" d="M0,1.8,6.825,0q21.8,43.141,69.581,75.776L56.334,105.036C23.583,72.954,2.134,38.775,0,1.8Z" transform="matrix(0.996, 0.087, -0.087, 0.996, 102.854, 2.499)"/><path class="j" d="M0,91.708H61.927s-21.52-52.34-21.52-88.924L21.726,0C7.045,23.617,2.9,52.7,0,91.708Z" transform="translate(72.382)"/><path class="k" d="M0,118.254C6.773,41.828,49.464,0,49.464,0l.015.013L49.486,0h1.22c2.189.075,6.667.272,6.667.272l4.514,12.9c.717,23.6,8.365,95.109,8.365,95.109H29.717q.1,4.918.467,9.97Z" transform="translate(44.233 0)"/><path class="l" d="M11.343,39.819H.05A205.581,205.581,0,0,1,3.105,0,216.381,216.381,0,0,0,5.83,22.272C7.3,30.243,9.156,36.146,11.342,39.818Z" transform="translate(73.907 68.782)"/><path class="m" d="M0,9.308,20.017,0V9.308Z" transform="translate(82.926 74.355)"/></g></g></g></g></g></g><g transform="translate(-57 -3)"><g transform="translate(-3627 633)"><rect class="n" width="109" height="94" rx="6" transform="translate(4087 470)"/><rect class="o" width="107" height="93" rx="6" transform="translate(4105 487)"/><path class="p" d="M13219.795-3558l-14.605,16.135,14.605,11.818" transform="translate(-9078.884 4077.605)"/><path class="p" d="M13205.189-3558l14.605,16.135-14.605,11.818" transform="translate(-9034.596 4077.605)"/><path class="p" d="M13225.336-3558l-7.967,28.313" transform="translate(-9065.941 4077.605)"/></g><g transform="translate(-3467 658.831)"><g transform="translate(3910.854 232)"><path class="q" d="M55.35,2.473c-11.76,6.8-19.675,24.8-19.675,39.363V96.823H75.024V41.836c0-14.564-7.915-32.56-19.675-39.363ZM65.2,39.854a9.737,9.737,0,0,1-9.739,9.739h-.226A9.737,9.737,0,0,1,45.5,39.854v-.226a9.737,9.737,0,0,1,9.739-9.739h.226A9.737,9.737,0,0,1,65.2,39.628Z" transform="translate(-16.126 -2.473)"/><path class="q" d="M53.989,82.234H50.062v19.574h3.926Z" transform="translate(-12.791 16.013)"/><path class="q" d="M46.178,82.242H42.031V93.977h4.148Z" transform="translate(-14.653 16.015)"/><path class="q" d="M62.117,82.242H57.965V93.977h4.152Z" transform="translate(-10.96 16.015)"/><path class="q" d="M95.251,79.79,78.718,59.077l-.664,2.444.505,3.628.063,14.642H39.806V64.856l.64-2.945-1.087-2.844L23.167,79.791,19.8,83.7H98.45Z" transform="translate(-19.804 10.644)"/></g><g class="r" transform="translate(3901 232)"><path class="q" d="M55.35,2.473c-11.76,6.8-19.675,24.8-19.675,39.363V96.823H75.024V41.836c0-14.564-7.915-32.56-19.675-39.363ZM65.2,39.854a9.737,9.737,0,0,1-9.739,9.739h-.226A9.737,9.737,0,0,1,45.5,39.854v-.226a9.737,9.737,0,0,1,9.739-9.739h.226A9.737,9.737,0,0,1,65.2,39.628Z" transform="translate(-16.126 -2.473)"/><path class="q" d="M53.989,82.234H50.062v19.574h3.926Z" transform="translate(-12.791 16.013)"/><path class="q" d="M46.178,82.242H42.031V93.977h4.148Z" transform="translate(-14.653 16.015)"/><path class="q" d="M62.117,82.242H57.965V93.977h4.152Z" transform="translate(-10.96 16.015)"/><path class="q" d="M95.251,79.79,78.718,59.077l-.664,2.444.505,3.628.063,14.642H39.806V64.856l.64-2.945-1.087-2.844L23.167,79.791,19.8,83.7H98.45Z" transform="translate(-19.804 10.644)"/></g></g><path class="s" d="M69.519,39.987A2.948,2.948,0,0,0,65.83,40l-8.221,6.588a27.817,27.817,0,0,0-4.463-1.854L51.977,34.264a2.941,2.941,0,0,0-2.595-2.618,40.655,40.655,0,0,0-9.16,0,2.954,2.954,0,0,0-2.6,2.618L36.455,44.735h0A27.83,27.83,0,0,0,32,46.589L23.776,40a2.948,2.948,0,0,0-3.694-.009A40,40,0,0,0,13.6,46.474a2.948,2.948,0,0,0,.009,3.694L20.2,58.39a27.943,27.943,0,0,0-1.854,4.458L7.871,64.016a2.95,2.95,0,0,0-2.618,2.6,40.615,40.615,0,0,0,0,9.155,2.95,2.95,0,0,0,2.618,2.6l10.471,1.169A27.83,27.83,0,0,0,20.2,84l-6.583,8.217a2.986,2.986,0,0,0-.014,3.7,40.366,40.366,0,0,0,6.482,6.482,2.942,2.942,0,0,0,3.694-.014L32,95.8v0a27.943,27.943,0,0,0,4.458,1.854l1.169,10.475h0a2.936,2.936,0,0,0,2.595,2.608,40.123,40.123,0,0,0,9.16,0,2.936,2.936,0,0,0,2.595-2.613l1.169-10.471A27.829,27.829,0,0,0,57.608,95.8l8.221,6.588v0a2.942,2.942,0,0,0,3.694.014,40.18,40.18,0,0,0,6.482-6.482,2.979,2.979,0,0,0-.014-3.694L69.409,84a27.817,27.817,0,0,0,1.854-4.463L81.738,78.37a2.946,2.946,0,0,0,2.613-2.6,40.616,40.616,0,0,0,0-9.155,2.954,2.954,0,0,0-2.618-2.6L71.263,62.848a27.956,27.956,0,0,0-1.854-4.458L76,50.168a2.948,2.948,0,0,0,.009-3.694,40.428,40.428,0,0,0-6.487-6.487ZM65.563,56.406a2.945,2.945,0,0,0-.267,3.3,23.44,23.44,0,0,1,2.135,5.121,2.938,2.938,0,0,0,2.512,2.144l10.3,1.15c.087,1.017.133,2.047.133,3.078s-.046,2.061-.133,3.078l-10.3,1.15,0,0a2.94,2.94,0,0,0-2.512,2.139,23.465,23.465,0,0,1-2.13,5.125,2.936,2.936,0,0,0,.262,3.3l6.478,8.083a35.91,35.91,0,0,1-4.366,4.366l-8.083-6.478a2.936,2.936,0,0,0-3.3-.267,22.985,22.985,0,0,1-5.121,2.13,2.949,2.949,0,0,0-2.144,2.517l-1.15,10.3a36.135,36.135,0,0,1-6.151,0l-1.15-10.3a2.933,2.933,0,0,0-2.139-2.512,23.387,23.387,0,0,1-5.125-2.135,2.937,2.937,0,0,0-3.3.267l-8.088,6.478h0a35.91,35.91,0,0,1-4.366-4.366l6.482-8.088h0a2.945,2.945,0,0,0,.267-3.294,23.162,23.162,0,0,1-2.135-5.125,2.94,2.94,0,0,0-2.512-2.139l-10.3-1.15c-.087-1.012-.133-2.043-.133-3.078s.046-2.066.133-3.078l10.292-1.15v0a2.938,2.938,0,0,0,2.516-2.144A23.43,23.43,0,0,1,24.3,59.7a2.945,2.945,0,0,0-.262-3.3L17.56,48.318l0,0a35.586,35.586,0,0,1,4.366-4.366l8.088,6.478h0a2.945,2.945,0,0,0,3.3.262,23.426,23.426,0,0,1,5.121-2.13,2.938,2.938,0,0,0,2.144-2.512l1.15-10.3a36.135,36.135,0,0,1,6.151,0l1.15,10.3v0a2.945,2.945,0,0,0,2.139,2.512,23.465,23.465,0,0,1,5.125,2.13,2.945,2.945,0,0,0,3.3-.262l8.088-6.478h0a35.874,35.874,0,0,1,4.366,4.361ZM44.8,55.532h0a15.663,15.663,0,1,0,15.665,15.66A15.655,15.655,0,0,0,44.8,55.532Zm0,27.088h0A11.426,11.426,0,1,1,56.228,71.193,11.427,11.427,0,0,1,44.8,82.62ZM110.887,25.1a2.67,2.67,0,0,1-1.357,3.138l-6.2,3.414v0a19.808,19.808,0,0,1,0,2.765l6.238,3.432,0,0a2.75,2.75,0,0,1,1.32,3.087,29.779,29.779,0,0,1-2.563,6.215,2.748,2.748,0,0,1-3.161,1.274l-6.832-1.964a21.722,21.722,0,0,1-1.96,1.946l1.992,6.855A2.716,2.716,0,0,1,97.109,58.4,29.42,29.42,0,0,1,90.9,60.965a2.608,2.608,0,0,1-.754.115,2.723,2.723,0,0,1-2.383-1.463l-3.418-6.211v0a19.834,19.834,0,0,1-3.8-.087l.511-4.21a15.826,15.826,0,0,0,3.819-.014,2.733,2.733,0,0,1,2.705,1.385l3.326,6.05a25.037,25.037,0,0,0,3.059-1.265L92.03,48.631a2.714,2.714,0,0,1,.911-2.871,16.4,16.4,0,0,0,2.733-2.714,2.691,2.691,0,0,1,2.935-.911l6.579,1.891c.235-.478.465-.985.676-1.5.216-.529.414-1.049.584-1.555L100.4,37.65a2.718,2.718,0,0,1-1.366-2.765,15.528,15.528,0,0,0-.018-3.754,2.734,2.734,0,0,1,1.376-2.7l6.054-3.335a25.274,25.274,0,0,0-1.265-3.055l-6.629,1.928h0a2.715,2.715,0,0,1-2.875-.916,16.55,16.55,0,0,0-2.714-2.728,2.7,2.7,0,0,1-.911-2.931l1.891-6.583c-.478-.235-.985-.465-1.5-.676-.529-.216-1.044-.414-1.555-.584L87.572,15.59a2.7,2.7,0,0,1-2.76,1.371,15.565,15.565,0,0,0-3.759.018,2.726,2.726,0,0,1-2.7-1.38l-3.331-6.05a25.312,25.312,0,0,0-3.059,1.261l1.928,6.629a2.712,2.712,0,0,1-.906,2.871,16.283,16.283,0,0,0-2.737,2.719,2.69,2.69,0,0,1-2.926.911l-6.588-1.9c-.235.478-.465.985-.676,1.5-.216.529-.409,1.044-.584,1.555l6.045,3.326a2.722,2.722,0,0,1,1.366,2.76A15.8,15.8,0,0,0,66.9,34.94l-4.21.524h0a19.578,19.578,0,0,1-.11-3.814l-6.238-3.432,0,0a2.759,2.759,0,0,1-1.32-3.087,29.78,29.78,0,0,1,2.563-6.215,2.748,2.748,0,0,1,3.17-1.27l6.823,1.964a20.579,20.579,0,0,1,1.96-1.946L67.545,10.8A2.716,2.716,0,0,1,68.81,7.677,29.42,29.42,0,0,1,75.021,5.11a2.675,2.675,0,0,1,3.138,1.353l3.418,6.206a20.608,20.608,0,0,1,2.77-.009l3.432-6.238a2.759,2.759,0,0,1,3.1-1.32,29.7,29.7,0,0,1,6.206,2.563,2.742,2.742,0,0,1,1.274,3.165l-1.964,6.827a20.052,20.052,0,0,1,1.946,1.96l6.855-1.992a2.708,2.708,0,0,1,3.128,1.265,29.42,29.42,0,0,1,2.567,6.211ZM79.221,42.066a9.774,9.774,0,1,0-5.29-5.29,9.774,9.774,0,0,0,5.29,5.29ZM77.85,30.919h0a5.533,5.533,0,1,1,0,4.237,5.537,5.537,0,0,1,0-4.237Z" transform="translate(441.004 1004.001)"/></g><g transform="translate(137 1098)"><g transform="translate(72)"><g transform="translate(47.34 27.136)"><path class="e" d="M0,64,7.279,30.238C3.22,25.5.472,19.684.931,13.173,2.254-5.589,28.5-1.462,33.6,8.008S38.1,41.5,31.5,43.19c-2.631.675-8.236-.978-13.941-4.4L21.143,64Z" transform="translate(-0.34 -0.136)"/></g><path class="f" d="M129.277,30.362c-2.773-.454-10.239-.766-11.616-.766-.88,0-1.834.2-2.355-.606-.427-.661-.27-1.778-.4-2.545-.148-.891-.358-1.77-.57-2.647a26.885,26.885,0,0,0-2.8-7.1,21.838,21.838,0,0,0-10.357-9.363A33.3,33.3,0,0,0,85.458,5.178c-5.643.457-10.752,2.317-16.08,4.067a33.749,33.749,0,0,1-15.706,1.51c-5.351-.821-9.394-3.716-13.907-6.465C35.144,1.478,29.864-.363,24.4.06A29.612,29.612,0,0,0,10.389,5.365C6.444,7.993,3.19,11.154,1.352,15.6-.625,20.388-.623,25.641,2.628,29.87,7.34,36,16.087,37.586,23.364,37.428a39.672,39.672,0,0,0,12.317-2.254c5.3-1.861,9.88-5.016,14.838-7.576a38.646,38.646,0,0,1,7.253-2.9c2.446-.69,4.856-1.006,7.071.469a33.406,33.406,0,0,0,7.124,4.072A23,23,0,0,0,80,30.682c5.331-.041,10.586-1.7,15.763-2.81,4.222-.906,8.739-1.808,13.044-.938,1.8.363,4.42,1.113,5.068,2.977-10.918,1.976-15.207,15.459-12.129,25.356,1.661,5.342,11.647,11.587,15.53,8.779,2.46-1.779.966-4.115,0-5.657-1.851-2.953-2.484-6.746.941-8.8,2.954-1.773,6.06,2.438,6.119,2.433.812-.064,7.828-4.026,12.661-9.807,4.768.282,5.492-2.857,4.353-5.425S133.108,30.99,129.277,30.362Z" transform="translate(-60.49 -6.127)"/></g><g transform="translate(0 164)"><g transform="translate(9 37)"><ellipse class="t" cx="67.5" cy="64.5" rx="67.5" ry="64.5" transform="translate(34 -13)"/></g><path class="e" d="M110.962,56.385c-5.583-19.527-9.83-36.71-10.9-43.127C97.5-2.043,119.75-2.934,122.691,4.67,127.143,16.18,134.914,54,144.252,111.119l-10.674,3.11C122.346,89.4,114.223,67.79,110.962,56.385ZM3.288,36.325c10.306-4.068,46.4-16.8,63.8-20.4,5-1.035,9.85-2,14.408-2.865,13.548-2.582,20.567,21.822,7.518,23.7-32.495,4.67-78.563,9.492-82.5,10.034a5.031,5.031,0,0,1-.682.047C.657,46.84-2.92,38.775,3.288,36.325Z" transform="translate(104.445 28.157)"/><path class="c" d="M55.9,37.4a11.359,11.359,0,0,1-.151-2.9L0,6.169V0H6.629S87.525,20.583,89.3,26.381c.013.041.024.082.034.123l.082.109c10.688,14.677,17.089,86.331,19.19,91.7L88.129,121.36C80.295,92.353,55.23,72.145,55.9,37.4Z" transform="translate(138.513)"/><path class="i" d="M27.244,57.1l16.837-5.767c-5.1-1.019-9.8-1.929-13.816-2.633C4.3,44.151-3.267,30.275,1.209,0H49.042c7.813,2.241,48.42,19.245,69.489,28.288,13.944,5.986,9.549,27.564,1.651,33.179a.77.77,0,0,1-.438.683c-29.214,12.089-54.23,11.5-70.656,10.915-7.459-.266-13.147-.533-16.653.388Z" transform="translate(99.063)"/><g transform="matrix(0.438, 0.899, -0.899, 0.438, 130.242, 50.028)"><path class="h" d="M4.474,5.033A2,2,0,0,0,1.908,6.381L0,13.106A64.242,64.242,0,0,0,.9,21H57.3s2.2-7.268-2.538-7.848-7.87-1.047-7.87-1.047L20.68.419a1,1,0,0,0-1.332.532L17.663,5.039s-4.385,2.046-7.127,2.046Z" transform="translate(1 19)"/></g><g transform="translate(231 116)"><path class="h" d="M3.922,4.447a1.754,1.754,0,0,0-2.249,1.18L0,11.513a56.154,56.154,0,0,0,.79,6.91H50.236s1.927-6.362-2.225-6.87-6.9-.916-6.9-.916L18.129.408a.877.877,0,0,0-1.167.466L15.485,4.452S11.641,6.243,9.237,6.243Z" transform="translate(0.877 16.59)"/></g></g><g transform="translate(19 72)"><path class="e" d="M27.868,101.775c-1.2-2.007-2.554-4.014-6.682-2.991C13.82,100.612,7.574,105.3.7,98.977-.14,98.2-.758,95.77,2.122,94.524c7.174-3.1,17.771-8.917,19.49-11.174Q25.128,78.733,43.4,30.638L61.367,34.2Q34.267,84.624,32.3,87.65c-2.95,4.539-.2,12.856.819,17.237a5.542,5.542,0,0,1-1.251.156C29.707,105.043,28.842,103.409,27.868,101.775ZM171.827,26.8l31.765-13.929A75.264,75.264,0,0,1,219.713.247c1.55-.492,4.2-.641,1.372,3.478s-5.61,8.579-4.482,10.023,4.4-.15,5.689,2.2q1.292,2.348-16.533,5.617L181.969,39.775Z" transform="translate(1.753 41.142)"/><path class="u" d="M0,1.953,7.438,0c17.842,14.493,27.9,52.182,39.309,56.289,10.783,3.883,25.069-2.037,41.985-9.824l6.392,11.463c-14.368,18.529-46.9,35.967-61.329,28.9C10.732,75.526,1.545,28.76,0,1.953Z" transform="matrix(0.996, 0.087, -0.087, 0.996, 112.116, 2.722)"/><path class="j" d="M0,99.79H67.075c3.065,0,2.487-4.419,2.044-6.649C64.006,67.406,44.045,39.664,44.045,3.029L24.7,0C8.694,25.7,3.16,57.34,0,99.79Z" transform="translate(78.9)"/><path class="v" d="M0,124.177Q13.584,40.053,78.679,0h7.66S112.393,88.678,100.7,118.173H40.327c.955-14.388,4.018-29.6,8.214-44.439q-20.511,36.942-34.481,53.193Z" transform="translate(23.67)"/></g></g><g transform="translate(528.199 1065.5)"><g transform="translate(82.439 0)"><g transform="translate(2.987 3.146)"><path class="e" d="M0,0,7.152,33.321C3.164,38,.464,43.737.915,50.163c1.3,18.517,27.087,14.443,32.1,5.1s4.42-33.052-2.062-34.722c-2.586-.666-8.093.966-13.7,4.343L20.775,0Z" transform="translate(36.356 63.164) rotate(180)"/></g><path class="f" d="M7.092,0C3.648,2.066,1.024,6.245.246,10.9a18.02,18.02,0,0,0,.405,7.764,19.926,19.926,0,0,0,1.9,4.569C5.73,36.328,18.9,35.153,28.748,33.976c4.8-.573,8.81-1.146,10.5-.072,1.127-7.065-2.509-12.761-15.3-11.657-2.781-1.559-4.788-4.479-7.235-8.405a5.193,5.193,0,0,1-5.528-8.547C9.85,3.413,8.513,1.681,7.093,0h0Z" transform="translate(39.441 34.652) rotate(180)"/></g><g transform="translate(7.717 141.647)"><path class="g" d="M82.234,0,39.748,107.489l-28.5,90.873H0L43.563,0Z" transform="translate(32.731)"/><path class="e" d="M42.314,0c.452,37.772,7.05,88.627,8.1,90.981s72.78,59.884,72.78,59.884l-7.75,8.29s-84.629-49.324-88.546-55.9S10.236,36.136,0,0Z" transform="translate(81.206)"/><g transform="translate(215.009 154.191) rotate(130)"><path class="h" d="M3.716,13.265a1.662,1.662,0,0,1-2.131-1.12L0,6.558A53.37,53.37,0,0,1,.749,0H47.606S49.432,6.038,45.5,6.52s-6.538.869-6.538.869L17.18,17.1a.831.831,0,0,1-1.106-.442l-1.4-3.4s-3.643-1.7-5.921-1.7Z" transform="translate(0 0)"/></g><g transform="translate(0 188.914)"><path class="h" d="M46.171,4.4a1.731,1.731,0,0,1,2.22,1.167l1.652,5.818a55.564,55.564,0,0,1-.78,6.831H.441s-1.9-6.289,2.2-6.79,6.812-.906,6.812-.906L32.143.407A.866.866,0,0,1,33.3.868L34.754,4.4s3.8,1.77,6.169,1.77Z" transform="translate(0 -0.332)"/></g><path class="w" d="M53.5,189,0,183.2,39.649,0H87.566Z" transform="translate(32.901 0)"/><path class="x" d="M116.286,137.491l-35.092,41.52s-55.443-60.529-64.647-78.99S0,0,0,0H53.946s4.011,71.753,5.408,75.092S116.286,137.491,116.286,137.491Z" transform="translate(77.052)"/></g><g transform="translate(0 44.381)"><path class="e" d="M1.1,1.929C.1,2.543-1,4.854,1.654,6.66c6.608,4.5,16.131,12.376,17.417,14.968,2.632,5.3,15.781,73.547,15.781,73.547L54.517,95.1S32.05,22.81,30.665,19.4c-2.078-5.115,2.32-12.9,4.2-17.091C31.9.993,30.523,2.674,29.016,4.356c-1.607,1.792-3.363,3.585-7.35,1.743C16.565,3.741,12.347,0,7.32,0A11.723,11.723,0,0,0,1.1,1.929ZM177.26,42.856l-26.454,15.49,8.45,14.52L184.7,48.219a77.26,77.26,0,0,0,18.2-10.388c1.063-1.273,2.22-3.714-2.782-2.622s-10.313,2.017-11.254.4,1.831-4.091.093-6.206a.659.659,0,0,0-.533-.253Q186.021,29.151,177.26,42.856Z" transform="translate(203.818 159.553) rotate(180)"/><path class="y" d="M0,98.686l7.621,1.995c15.93-41.718,81.1-65.4,86.34-81.061,1.923-5.742-2.068-9.079.284-10.673L84.829.757c-1.875,1.824-5.193-2.1-13-.242S4.432,48.026,0,98.686Z" transform="matrix(-0.996, 0.087, -0.087, -0.996, 117.643, 107.286)"/><path class="z" d="M3.948,3.622c.9,4.92-5.332,7.315-3.662,18.307,9.439,62.134,45.662,95.512,60.276,106.681l.368,5.225a3.584,3.584,0,0,0,3.834,3.31l24.189-1.68a3.575,3.575,0,0,0,3.332-3.807l-.647-9.188c-.894-56.856,32.2-71.364,24.829-94.173C110.38,9.461,52.112-10.788,42.029,7.676c-4.041,7.4-5.9,16.336-6.137,26.052-2.541-7.336-4.669-13.931-6.121-19.211C27.185,5.116,17.158,3.622,17.158,0Z" transform="translate(187.618 137.154) rotate(180)"/></g></g></g></svg>