<?xml version="1.0" encoding="iso-8859-1"?>
<!-- Generator: Adobe Illustrator 19.0.0, SVG Export Plug-In . SVG Version: 6.00 Build 0)  -->
<svg version="1.1" id="Capa_1" xmlns="http://www.w3.org/2000/svg" xmlns:xlink="http://www.w3.org/1999/xlink" x="0px" y="0px"
	 viewBox="0 0 480 480" style="enable-background:new 0 0 480 480;" xml:space="preserve">
<polygon style="fill:#FF9F1C;" points="72,408 40,408 8,408 8,472 72,472 "/>
<polygon style="fill:#FFBF69;" points="136,472 200,472 200,408 168,408 136,408 "/>
<polygon style="fill:#60C4C2;" points="280,472 344,472 344,408 312,408 280,408 "/>
<polygon style="fill:#CBF3F0;" points="408,472 472,472 472,408 440,408 408,408 "/>
<polygon style="fill:#FF9F1C;" points="72,296 40,296 8,296 8,360 40,360 72,360 "/>
<polygon style="fill:#FFBF69;" points="136,360 168,360 200,360 200,296 168,296 136,296 "/>
<polygon style="fill:#FF9F1C;" points="136,152 72,152 72,216 104,216 136,216 "/>
<g>
	<polygon style="fill:#E8EDED;" points="239.8,72 240.2,72 240,71.88 	"/>
	<polygon style="fill:#E8EDED;" points="272,8 208,8 208,72 239.8,72 240,71.88 240.2,72 272,72 	"/>
</g>
<g>
	<polygon style="fill:#60C4C2;" points="408,152 376,152 344,152 344,216 376,216 408,216 	"/>
	<polygon style="fill:#60C4C2;" points="280,360 312,360 344,360 344,296 312,296 280,296 	"/>
</g>
<polygon style="fill:#CBF3F0;" points="408,296 408,360 440,360 472,360 472,296 440,296 "/>
<path style="fill:#3F3F3F;" d="M472,288h-28.152l-51.2-64H408c4.424,0,8-3.584,8-8v-64c0-4.416-3.576-8-8-8h-29.824l-108.8-64H272
	c4.424,0,8-3.584,8-8V8c0-4.416-3.576-8-8-8h-64c-4.424,0-8,3.584-8,8v64c0,4.416,3.576,8,8,8h2.312l-110.096,64H72
	c-4.424,0-8,3.584-8,8v64c0,4.416,3.576,8,8,8h15.352l-51.2,64H8c-4.424,0-8,3.584-8,8v64c0,4.416,3.576,8,8,8h24v32H8
	c-4.424,0-8,3.584-8,8v64c0,4.416,3.576,8,8,8h64c4.424,0,8-3.584,8-8v-64c0-4.416-3.576-8-8-8H48v-32h24c4.424,0,8-3.584,8-8v-64
	c0-4.416-3.576-8-8-8H56.648L104,228.808L151.352,288H136c-4.424,0-8,3.584-8,8v64c0,4.416,3.576,8,8,8h24v32h-24
	c-4.424,0-8,3.584-8,8v64c0,4.416,3.576,8,8,8h64c4.424,0,8-3.584,8-8v-64c0-4.416-3.576-8-8-8h-24v-32h24c4.424,0,8-3.584,8-8v-64
	c0-4.416-3.576-8-8-8h-28.152l-51.2-64H136c4.424,0,8-3.584,8-8v-64c0-4.416-3.576-8-8-8h-3.936l107.912-62.736L346.624,144H344
	c-4.424,0-8,3.584-8,8v64c0,4.416,3.576,8,8,8h15.352l-51.2,64H280c-4.424,0-8,3.584-8,8v64c0,4.416,3.576,8,8,8h24v32h-24
	c-4.424,0-8,3.584-8,8v64c0,4.416,3.576,8,8,8h64c4.424,0,8-3.584,8-8v-64c0-4.416-3.576-8-8-8h-24v-32h24c4.424,0,8-3.584,8-8v-64
	c0-4.416-3.576-8-8-8h-15.352L376,228.808L423.352,288H408c-4.424,0-8,3.584-8,8v64c0,4.416,3.576,8,8,8h24v32h-24
	c-4.424,0-8,3.584-8,8v64c0,4.416,3.576,8,8,8h64c4.424,0,8-3.584,8-8v-64c0-4.416-3.576-8-8-8h-24v-32h24c4.424,0,8-3.584,8-8v-64
	C480,291.584,476.424,288,472,288z M216,16h48v48h-23.944c-0.024,0-0.048,0-0.072,0H216V16z M64,464H16v-48h48V464z M64,352H16v-48
	h48V352z M192,464h-48v-48h48V464z M192,352h-48v-48h48V352z M128,208H80v-48h48V208z M352,160h48v48h-48V160z M336,464h-48v-48h48
	V464z M336,352h-48v-48h48V352z M464,464h-48v-48h48V464z M464,352h-48v-48h48V352z"/>
<g>
</g>
<g>
</g>
<g>
</g>
<g>
</g>
<g>
</g>
<g>
</g>
<g>
</g>
<g>
</g>
<g>
</g>
<g>
</g>
<g>
</g>
<g>
</g>
<g>
</g>
<g>
</g>
<g>
</g>
</svg>
