<svg xmlns="http://www.w3.org/2000/svg" width="212.506" height="89.507" viewBox="0 0 212.506 89.507"><defs><style>.a{fill:#f6ce41;}.b{fill:#c3423f;}.c{fill:#0498b4;}.d{fill:#62c370;}.e{fill:#fff;stroke:#010623;stroke-dasharray:30 5;}</style></defs><g transform="translate(-589.494 -489.493)"><circle class="a" cx="12.5" cy="12.5" r="12.5" transform="translate(655 491)"/><circle class="a" cx="14" cy="14" r="14" transform="translate(712 551)"/><circle class="b" cx="12.5" cy="12.5" r="12.5" transform="translate(655 553)"/><circle class="c" cx="12.5" cy="12.5" r="12.5" transform="translate(716 491)"/><circle class="c" cx="13" cy="13" r="13" transform="translate(776 551)"/><path class="d" d="M76.738,37.5a2.581,2.581,0,0,0-3.659,0L41.916,68.657v-4.97a2.587,2.587,0,0,0-5.173,0V74.9A2.6,2.6,0,0,0,39.334,77.5H50.55a2.587,2.587,0,0,0,0-5.173H45.585L76.737,41.159a2.589,2.589,0,0,0,0-3.659Z" transform="translate(577.505 479.43)"/><path class="d" d="M27.891,41.544v16.6l3.6-3.6a2.653,2.653,0,1,1,3.753,3.753l-8.132,8.132a2.655,2.655,0,0,1-3.753,0L15.23,58.29a2.653,2.653,0,0,1,3.753-3.753l3.6,3.6v-16.6a2.655,2.655,0,0,1,5.31,0Z" transform="translate(701.196 481.105)"/><path class="e" d="M86.488,42.789a2.381,2.381,0,0,0-2.382,2.382v14.9L80.87,56.84a2.383,2.383,0,1,0-3.37,3.37l7.3,7.3a2.385,2.385,0,0,0,3.37,0l7.3-7.3a2.383,2.383,0,1,0-3.37-3.37l-3.231,3.24v-14.9a2.386,2.386,0,0,0-2.386-2.386ZM73.572,37.44a2.376,2.376,0,0,0-3.37,0l-28.7,28.691V61.555a2.382,2.382,0,1,0-4.764,0V71.883a2.393,2.393,0,0,0,2.386,2.386H49.457a2.382,2.382,0,1,0,0-4.764H44.885l28.687-28.7a2.384,2.384,0,0,0,0-3.37ZM37.229,86.488a12.712,12.712,0,1,1-12.71-12.71A12.727,12.727,0,0,1,37.229,86.488Zm-4.764,0a7.946,7.946,0,1,0-7.946,7.946A7.957,7.957,0,0,0,32.465,86.488Zm66.737,0a12.712,12.712,0,1,1-12.71-12.714A12.727,12.727,0,0,1,99.2,86.488Zm-4.769,0a7.946,7.946,0,1,0-7.946,7.946A7.957,7.957,0,0,0,94.433,86.488ZM73.777,24.519a12.712,12.712,0,1,1,12.71,12.71A12.727,12.727,0,0,1,73.777,24.519Zm4.764,0a7.946,7.946,0,1,0,7.946-7.946A7.957,7.957,0,0,0,78.541,24.519Z" transform="translate(578.189 478.188)"/><path class="d" d="M26.94,41.356V56.779l3.348-3.348a2.466,2.466,0,0,1,3.487,3.487l-7.557,7.557a2.468,2.468,0,0,1-3.487,0l-7.557-7.557a2.466,2.466,0,1,1,3.487-3.487l3.344,3.348V41.356a2.467,2.467,0,0,1,4.934,0Z" transform="translate(641.109 530.831) rotate(-90)"/><path class="e" d="M27.5,41.137v15.5l3.364-3.364a2.478,2.478,0,0,1,3.5,3.5l-7.593,7.593a2.479,2.479,0,0,1-3.5,0L15.68,56.773a2.478,2.478,0,0,1,3.5-3.5l3.36,3.364v-15.5c0-1.366,4.958-1.371,4.958,0ZM38.241,84.093A13.218,13.218,0,1,1,25.025,70.878,13.234,13.234,0,0,1,38.241,84.093Zm-4.954,0a8.262,8.262,0,1,0-8.262,8.262A8.274,8.274,0,0,0,33.287,84.093Z" transform="translate(701.195 589.194) rotate(-90)"/><path class="e" d="M27.72,41.151V56.864l3.411-3.411A2.512,2.512,0,1,1,34.684,57l-7.7,7.7a2.514,2.514,0,0,1-3.553,0l-7.7-7.7a2.512,2.512,0,0,1,3.553-3.553l3.406,3.411V41.151c0-1.385,5.027-1.39,5.027,0ZM38.608,84.7a13.4,13.4,0,1,1-13.4-13.4A13.418,13.418,0,0,1,38.608,84.7Zm-5.023,0a8.377,8.377,0,1,0-8.377,8.377A8.389,8.389,0,0,0,33.586,84.7Z" transform="translate(640.195 529.194) rotate(-90)"/><path class="e" d="M27.243,41.327V56.568l3.309-3.309A2.437,2.437,0,1,1,34,56.706L26.53,64.173a2.439,2.439,0,0,1-3.446,0l-7.468-7.468a2.437,2.437,0,0,1,3.446-3.446l3.3,3.309V41.327a2.438,2.438,0,0,1,4.876,0ZM37.8,83.575a13,13,0,1,1-13-13A13.015,13.015,0,0,1,37.8,83.575Zm-4.872,0A8.126,8.126,0,1,0,24.807,91.7,8.138,8.138,0,0,0,32.933,83.575Z" transform="translate(699.419 481.195)"/></g></svg>